<?xml version="1.0" encoding="utf-8"?>
<!-- Generator: Adobe Illustrator 23.0.6, SVG Export Plug-In . SVG Version: 6.00 Build 0)  -->
<svg version="1.1" id="Layer_1" xmlns="http://www.w3.org/2000/svg" xmlns:xlink="http://www.w3.org/1999/xlink" x="0px" y="0px"
	 viewBox="0 0 432 432" style="enable-background:new 0 0 432 432;" xml:space="preserve">
<style type="text/css">
	.st0{fill:#F5F6F6;}
	.st1{fill:#049948;}
	.st2{enable-background:new    ;}
	.st3{fill:#124D26;}
</style>
<rect x="0" class="st0" width="432" height="432"/>
<g>
	<g>
		<g>
			<path class="st1" d="M213.12,153.58c-7.04,0-13.62,2.95-17.93,7.26c-3.4,3.4-7.49,9.31-7.49,18.38c0,9.08,3.86,14.98,6.81,18.16
				c4.54,4.77,11.58,7.94,19.29,7.94c6.58,0,12.71-2.72,17.02-7.04c4.31-4.09,7.94-10.44,7.94-19.07c0-7.26-2.72-14.07-7.49-18.61
				C226.28,155.85,219.02,153.58,213.12,153.58z"/>
		</g>
		<g>
			<path class="st1" d="M214.82,67.32l-91.11,58.02V249.2h182.21V125.34L214.82,67.32z M269.41,230.07h-32.68v-12.26
				c-8.85,13.62-21.56,15.66-29.96,15.66c-14.53,0-26.78-3.63-37.9-15.43c-10.67-11.35-14.75-24.51-14.75-37.9
				c0-17.02,6.36-31.55,15.66-40.85c8.85-8.85,21.11-13.85,35.18-13.85c8.62,0,22.47,2.04,31.78,14.75v-11.35h32.68v101.23H269.41z"
				/>
		</g>
	</g>
	<g>
		<g class="st2">
			<path class="st3" d="M116.82,283.41h17.06v52.82h-17.06v-6.4c-4.62,7.11-11.25,8.17-15.63,8.17c-7.58,0-13.98-1.89-19.78-8.05
				c-5.57-5.92-7.7-12.79-7.7-19.78c0-8.88,3.32-16.46,8.17-21.32c4.62-4.62,11.01-7.23,18.36-7.23c4.5,0,11.73,1.07,16.58,7.7
				V283.41z M95.14,300.11c-1.78,1.78-3.91,4.86-3.91,9.59s2.01,7.82,3.55,9.48c2.37,2.49,6.04,4.14,10.07,4.14
				c3.43,0,6.63-1.42,8.88-3.67c2.25-2.13,4.15-5.45,4.15-9.95c0-3.79-1.42-7.34-3.91-9.71c-2.61-2.49-6.4-3.67-9.48-3.67
				C100.83,296.32,97.39,297.86,95.14,300.11z"/>
			<path class="st3" d="M176.98,257.24c6.87,0,14.45,0.95,20.73,6.51c6.75,5.92,7.7,13.74,7.7,19.19c0,9.95-3.79,15.52-6.75,18.6
				c-6.28,6.4-14.57,6.99-20.13,6.99h-11.13v27.71h-18.24v-79H176.98z M167.39,293.6h6.51c2.49,0,6.87-0.12,9.83-2.96
				c1.66-1.66,2.96-4.38,2.96-7.82c0-3.32-1.18-6.04-2.96-7.7c-2.72-2.61-6.63-2.96-10.19-2.96h-6.16V293.6z"/>
			<path class="st3" d="M252.9,283.41h17.05v52.82H252.9v-6.4c-4.62,7.11-11.25,8.17-15.63,8.17c-7.58,0-13.98-1.89-19.78-8.05
				c-5.57-5.92-7.7-12.79-7.7-19.78c0-8.88,3.32-16.46,8.17-21.32c4.62-4.62,11.01-7.23,18.36-7.23c4.5,0,11.73,1.07,16.58,7.7
				V283.41z M231.23,300.11c-1.78,1.78-3.91,4.86-3.91,9.59s2.01,7.82,3.55,9.48c2.37,2.49,6.04,4.14,10.07,4.14
				c3.43,0,6.63-1.42,8.88-3.67c2.25-2.13,4.15-5.45,4.15-9.95c0-3.79-1.42-7.34-3.91-9.71c-2.61-2.49-6.4-3.67-9.48-3.67
				C236.91,296.32,233.48,297.86,231.23,300.11z"/>
			<path class="st3" d="M283.22,283.41h17.05v8.29c1.54-2.96,3.91-5.68,6.63-7.34c2.84-1.78,5.8-2.25,9.12-2.25
				c2.13,0,3.67,0.24,5.57,0.83l-0.95,15.99c-2.25-1.18-4.74-1.89-7.7-1.89c-3.67,0-6.4,1.3-8.53,3.55
				c-3.79,4.03-4.15,9.71-4.15,14.21v21.44h-17.05V283.41z"/>
			<path class="st3" d="M350.02,297.15v39.08h-17.05v-39.08h-5.92v-13.74h5.92v-17.06h17.05v17.06h10.54v13.74H350.02z"/>
		</g>
	</g>
</g>
</svg>
