<?xml version="1.0" encoding="utf-8"?>
<!-- Generator: Adobe Illustrator 23.0.6, SVG Export Plug-In . SVG Version: 6.00 Build 0)  -->
<svg version="1.1" id="Layer_1" xmlns="http://www.w3.org/2000/svg" xmlns:xlink="http://www.w3.org/1999/xlink" x="0px" y="0px"
	 viewBox="0 0 432 432" style="enable-background:new 0 0 432 432;" xml:space="preserve">
<style type="text/css">
	.st0{fill:#D8C7D3;}
	.st1{fill:#611644;}
	.st2{enable-background:new    ;}
	.st3{fill:none;stroke:#D8C7D3;stroke-width:6;stroke-linejoin:round;stroke-miterlimit:10;}
	.st4{fill:none;stroke:#D8C7D3;stroke-width:8;stroke-linejoin:round;stroke-miterlimit:10;}
</style>
<rect class="st0" width="432" height="432"/>
<g>
	<g>
		<g>
			<g>
				<path class="st1" d="M200.35,116.83l-4.66-11.92c-0.08-0.19-0.23-0.38-0.45-0.45l-11.96-4.59c-0.19-0.08-0.45-0.08-0.64,0.04
					L167.33,108c-0.19,0.11-0.34,0.26-0.38,0.45l-7.82,27.15l-2.48-18.65c0-0.15-0.08-0.26-0.15-0.38l-20.23-26.36
					c-0.11-0.23-0.34-0.41-0.56-0.45c-0.11-0.04-0.19-0.04-0.3-0.04c-0.26,0.04-0.49,0.23-0.6,0.45l-17.37,41.48
					c-0.08,0.19-0.08,0.38-0.04,0.53l2.41,7.45l0.68,7.48v0.04l6.32,40.13c0.04,0.26,0.19,0.45,0.45,0.56l8.69,3.99
					c0.11,0.04,0.23,0,0.34,0l0,0l4.44-0.04l2.97,7.41c0.11,0.26,0.34,0.41,0.6,0.49l18.31,2.9c0.04,0,0.08,0,0.11,0s0.08,0,0.11,0
					l10.64-1.58c0.04,0,0.08,0,0.15-0.04l12.9-4.44c0.15-0.04,0.26-0.11,0.34-0.23l3.65-4.44c0.08-0.11,0.15-0.23,0.15-0.38
					l2.9-21.4c0-0.11,0-0.26-0.04-0.38l-2.97-8.31l9.82-44.07C200.42,117.13,200.42,116.94,200.35,116.83z M198.58,116.53
					l-11.55,4.44l7.78-14.1L198.58,116.53z M193.81,105.55l-7.93,14.4l-1.84-18.13L193.81,105.55z M182.45,101.75l1.96,18.99
					l-15.16-12L182.45,101.75z M168.16,109.84l16.32,12.94l-5.45,23.73l-7.41-0.19l-9.29-3.91c-0.15-0.08-0.34-0.08-0.53-0.04
					l-1.73,0.53l-0.45-3.5L168.16,109.84z M160.3,156.47l12.26,25.08l-16.62-15.91L160.3,156.47z M154.36,165.16l-11.77,2.22
					l1.96-8.42l9.51-11.92l2.26,6.43L154.36,165.16z M156.73,160.45l1.05-6.09l1.62,0.45L156.73,160.45z M161.16,154.7l0.23-0.53
					c0.04-0.08,0.08-0.15,0.08-0.23l1.2-9.74l8.27,3.5l8.09,12.45l4.32,21.51l-7.78,2.48L161.16,154.7z M180.76,160.91l2.78,0.79
					l3.99,15.95l-2.86,2.93L180.76,160.91z M183.46,160.08l-3.2-0.9l-7.33-11.28l11.06,0.26L183.46,160.08z M161.13,144.17
					l-1.13,9.21l-2.26-0.64l-2.41-6.81L161.13,144.17z M158.61,143.34l-4.48,1.39c-0.15,0.04-0.26,0.15-0.38,0.26l-3.5,4.36
					l-1.58-11.62l6.81-17.64L158.61,143.34z M155,117.17l-6.96,17.98l-10.76-41.1L155,117.17z M135.7,94.12l10.98,42.01l-16.55-9.29
					L135.7,94.12z M145.52,137.25l-9.29,1.2l-5-9.25L145.52,137.25z M118.93,131.99l14.78-35.2l-5.11,29.93l0,0l-7.75,11.02
					L118.93,131.99z M121.34,139.66l7.78-11.06l5.87,10.76l-4.02,17.19l-8.99-9.85L121.34,139.66z M128.26,186.63l-5.87-37.19
					l8.12,8.91l4.74,31.55L128.26,186.63z M136.91,190.39l-4.81-32h0.04l4.32-18.43l10.83-1.39l1.69,12.45l-5.68,7.11
					c-0.08,0.08-0.11,0.19-0.15,0.3l-5.75,24.63c-0.04,0.15-0.04,0.3,0.04,0.45l2.75,6.81L136.91,190.39z M172.71,199.49l-9.97,1.5
					l-17.79-2.82l-6.05-15l3.31-14.18l12.56-2.37l19.56,18.77L172.71,199.49z M174.29,199.04l1.58-13.39l7.75-2.48l1.84,12.07
					L174.29,199.04z M186.17,189.98l-1.17-7.56l2.29-2.41L186.17,189.98z M189.22,190.99l-1.88,2.26l1.77-15.16l2.44-4.32
					L189.22,190.99z M192,169.82l-3.38,5.98l-3.69-14.82l0.41-9.66L192,169.82z M189.63,158.65l-4.14-11.51
					c-0.11-0.3-0.38-0.49-0.71-0.49l-4.17-0.11l5.42-23.47l12.6-4.85L189.63,158.65z"/>
			</g>
		</g>
	</g>
	<g>
		<g>
			<g>
				<path class="st1" d="M150.29,304.67l2.6,12.53c0.04,0.2,0.16,0.41,0.37,0.52l11.02,6.53c0.17,0.11,0.43,0.15,0.64,0.07
					l16.44-5.41c0.2-0.08,0.38-0.2,0.45-0.38l12.26-25.46l-0.68,18.8c-0.03,0.15,0.03,0.27,0.09,0.4L209,341.66
					c0.07,0.24,0.26,0.46,0.48,0.54c0.1,0.06,0.18,0.07,0.29,0.09c0.27,0.01,0.52-0.14,0.67-0.34l24.08-37.98
					c0.11-0.17,0.14-0.36,0.13-0.51l-1.13-7.74l0.59-7.49l0.01-0.04l0.49-40.62c0.01-0.27-0.11-0.48-0.35-0.63l-7.9-5.39
					c-0.1-0.06-0.22-0.04-0.33-0.06l0,0l-4.38-0.71l-1.69-7.8c-0.07-0.28-0.26-0.46-0.51-0.58l-17.57-5.92
					c-0.04-0.01-0.07-0.01-0.11-0.02c-0.04-0.01-0.07-0.01-0.11-0.02l-10.76-0.23c-0.04-0.01-0.07-0.01-0.15,0.01l-13.46,2.21
					c-0.15,0.01-0.28,0.07-0.37,0.17l-4.34,3.76c-0.09,0.1-0.19,0.2-0.21,0.35l-6.44,20.61c-0.02,0.11-0.04,0.26-0.03,0.38
					l1.54,8.69l-17.06,41.81C150.26,304.36,150.23,304.55,150.29,304.67z M151.98,305.26l12.13-2.44l-10.04,12.6L151.98,305.26z
					 M154.85,316.89l10.24-12.87l-1.22,18.18L154.85,316.89z M165.41,322.54l1.25-19.05l12.93,14.37L165.41,322.54z M180.85,316.96
					l-13.92-15.49l9.35-22.48l7.27,1.43l8.5,5.41c0.14,0.1,0.32,0.13,0.51,0.13l1.79-0.23l-0.14,3.52L180.85,316.96z M196.41,272.3
					l-7.88-26.78l13.72,18.47L196.41,272.3z M203.73,264.74l11.98-0.22l-3.34,7.98l-11.38,10.16l-1.15-6.72L203.73,264.74z
					 M200.6,268.97l-2.06,5.83l-1.52-0.72L200.6,268.97z M195.26,273.9l-0.31,0.48c-0.05,0.07-0.1,0.14-0.11,0.21l-2.82,9.4
					l-7.57-4.83l-5.89-13.63l-0.66-21.93l8.09-1.14L195.26,273.9z M176.99,264.5l-2.61-1.24l-1.26-16.39l3.31-2.41L176.99,264.5z
					 M174.18,264.86l3,1.43l5.34,12.35l-10.86-2.11L174.18,264.86z M193.54,284.29l2.66-8.89l2.12,1.01l1.23,7.11L193.54,284.29z
					 M195.88,285.53l4.64-0.62c0.15-0.01,0.28-0.1,0.41-0.2l4.18-3.71l-0.39,11.72l-9.67,16.25L195.88,285.53z M195.06,311.94
					l9.87-16.56l3.72,42.32L195.06,311.94z M210.21,337.89l-3.79-43.25l14.76,11.93L210.21,337.89z M207.76,293.73l9.36,0.37
					l3.38,9.96L207.76,293.73z M233.09,303.37l-20.47,32.23l10.06-28.65l0,0l9.48-9.56L233.09,303.37z M232,295.4l-9.53,9.6
					l-3.98-11.59l6.85-16.27l7.21,11.22L232,295.4z M233.05,247.94l-0.45,37.65l-6.51-10.15l0.61-31.9L233.05,247.94z
					 M225.16,242.78l-0.62,32.36l-0.04-0.01l-7.35,17.44l-10.91-0.44l0.42-12.56l6.79-6.06c0.09-0.06,0.14-0.17,0.2-0.27l9.8-23.32
					c0.06-0.14,0.09-0.29,0.04-0.45l-1.57-7.17L225.16,242.78z M191.39,227.81l10.08,0.19l17.06,5.76l3.46,15.81l-5.64,13.42
					l-12.78,0.23l-16.13-21.78L191.39,227.81z M189.75,227.99l-3.8,12.93l-8.05,1.15l0.21-12.21L189.75,227.99z M176.52,234.94
					l-0.12,7.65l-2.66,1.99L176.52,234.94z M173.69,233.42l2.23-1.91l-4.28,14.64l-3.13,3.85L173.69,233.42z M167.39,253.83
					l4.34-5.33l1.15,15.22l-2.03,9.46L167.39,253.83z M167.86,265.24l2.15,12.04c0.06,0.32,0.29,0.54,0.62,0.6l4.1,0.81l-9.27,22.23
					l-13.23,2.67L167.86,265.24z"/>
			</g>
		</g>
	</g>
	<g>
		<path class="st1" d="M353.11,192.54C353.15,192.52,353.15,192.52,353.11,192.54c0.05-0.06,0.1-0.09,0.15-0.15c0,0,0,0,0.01-0.04
			c0.05-0.06,0.06-0.1,0.08-0.17c0,0,0,0,0.01-0.04l3.3-10.99c0.06-0.25,0.01-0.49-0.17-0.69l-7.93-8.82
			c-0.14-0.19-0.39-0.25-0.62-0.23l-12.62,1.82l0,0l0,0c0,0-0.04-0.01-0.04,0.03c-0.04-0.01-0.08,0.02-0.08,0.02
			c-0.04-0.01-0.04,0.03-0.04,0.03l-0.04,0.03l0,0l0,0l-6.03,3.48l3.7-39.88c0-0.15-0.03-0.31-0.11-0.45l-12.91-20.31
			c-0.13-0.22-0.37-0.32-0.64-0.31c-0.29-0.04-0.59,0.08-0.72,0.31l-21.04,12.2l0,0c-0.04,0.03-0.05,0.06-0.09,0.05
			c0,0-0.01,0.04-0.04,0.03c-0.04,0.03-0.05,0.06-0.11,0.12l0,0l-0.01,0.04c-0.01,0.04-0.05,0.06-0.06,0.1l-0.01,0.04
			c-0.01,0.04-0.02,0.07-0.03,0.11c0,0,0,0-0.01,0.04l-5.91,39.66l-1.74-9l0,0c-0.02-0.08-0.04-0.12-0.06-0.21
			c0,0,0.01-0.04-0.03-0.04c-0.03-0.04-0.09-0.1-0.12-0.14l0,0l-5.97-5.33c-0.25-0.21-0.59-0.22-0.86-0.06l-9,5.8c0,0,0,0-0.01,0.04
			c-0.04,0.03-0.09,0.05-0.1,0.09c0,0-0.01,0.04-0.04,0.03l0,0c-0.04,0.03-0.06,0.1-0.07,0.13l-0.01,0.04
			c-0.01,0.04-0.02,0.07-0.04,0.14l-0.01,0.04c-0.01,0.04-0.03,0.11,0,0.15l0,0l1.9,23.86l-4.3,3.69l0,0
			c-0.04,0.03-0.05,0.06-0.1,0.09c0,0,0,0-0.01,0.04c-0.04,0.03-0.06,0.1-0.07,0.13c0,0,0,0-0.01,0.04s-0.02,0.07-0.03,0.11
			s-0.01,0.04-0.02,0.07c-0.01,0.04-0.02,0.07,0.01,0.12l-0.01,0.04l1.01,16.28c0.01,0.12,0.05,0.24,0.11,0.33l5.08,8.1
			c0.11,0.18,0.27,0.29,0.45,0.3l11.9,2.85l6.53,4.91c0.06,0.05,0.16,0.12,0.27,0.14l0,0l19.02,4.35c0.11,0.03,0.19,0.01,0.3,0
			c0.04,0.01,0.04-0.03,0.08-0.02c0,0,0,0,0.04,0.01l9.4-3.31c0.21-0.06,0.36-0.21,0.45-0.42c0.09-0.2,0.06-0.4-0.01-0.57
			l-2.53-5.15L353.11,192.54z M347.79,172.94l7.4,8.23l-3.06,10.18l-9.45,2.01l-4.08-3.8l-2.32-14.98L347.79,172.94z M322.71,207.76
			l2.17-8.47c0.04-0.03,0.12-0.04,0.17-0.07l12.82-8.32l3.41,3.17L322.71,207.76z M317.24,205.7l8.25-14.36l-5.26,20.38
			L317.24,205.7z M334.92,175.15l2.28,14.56l-11.72,7.58l2.67-10.28c0.01-0.04,0.02-0.07,0.03-0.11l0.76-8.26L334.92,175.15z
			 M327.54,177.79c-0.21,0.21-0.25,0.54-0.09,0.81l0,0l-0.73,7.7c-0.04,0.03-0.05,0.06-0.07,0.13l-10.15,17.71l-1.61-3.25l0,0l0,0
			l0,0c-0.03-0.04-0.03-0.04-0.05-0.09l-0.03-0.04c0,0-0.04-0.01-0.03-0.04c-0.03-0.04-0.09-0.1-0.16-0.12l0,0l-1.56-0.89
			l11.62-47.73l0,0l6.39-12.26L327.54,177.79z M300.48,210.41l-4.62-0.6l-1.5-9.51l4.39-2.68c0.04-0.03,0.08-0.02,0.09-0.05
			l3.72-2.28l9.13,5.26c0.09,0.1,0.21,0.21,0.36,0.24l0,0c0.04,0.01,0.04,0.01,0.07,0.02l0.83,0.47L300.48,210.41z M294.46,210.1
			l-4.94,4.25l-7.97-20.08l4.54-6.89l6.77,12.66c-0.01,0.04,0.02,0.08,0.01,0.12L294.46,210.1z M275.14,193.41l-3.14-4.96l7.2-6.18
			l3.63,2.43l0,0l2.34,1.54l-4.9,7.4c-0.01,0.04-0.02,0.07-0.06,0.1L275.14,193.41z M274.52,161.76l8.04,6.73l-0.03,14.24l-2.98-2
			c-0.26-0.18-0.61-0.15-0.85,0.05l-2.46,2.11L274.52,161.76z M288.29,161.56l2.17,11.23l-2.3,15.41l-1.38-2.51c0,0,0,0-0.04-0.01
			c-0.03-0.04-0.06-0.05-0.05-0.09l-0.03-0.04c-0.03-0.04-0.1-0.06-0.12-0.11l0,0l-2.6-1.72l0.04-15.33L288.29,161.56z
			 M309.76,151.25l13.43,0.85l-11.4,46.84l-8.86-5.12c-0.23-0.13-0.5-0.13-0.72,0.01l-2.69,1.63L309.76,151.25z M331.07,136.63
			l-7.34,14.06l-13.8-0.87c-0.03-0.04-0.03-0.04-0.05-0.09l-1.46-13.74l10.7-18.22L331.07,136.63z M316.95,118.7l-9.52,16.24
			l-8.37-5.86L316.95,118.7z M298.24,130.24l8.79,6.16l1.48,13.94l-10.71,46.21l-3.9,2.39l-4.61-8.63l0.01-0.04L298.24,130.24z
			 M282.57,155.23l5.14,4.56l-4.57,7.3l-8.23-6.89L282.57,155.23z M272.83,204.38l-0.87-13.37l2.02,3.24
			c-0.01,0.04-0.02,0.07,0.01,0.12l2.03,15.1L272.83,204.38z M277.82,212.08l-2.32-17.22l4.86,0.28l7.7,19.33L277.82,212.08z
			 M296.23,219.91l-5.83-4.39l5.03-4.3l4.73,0.63l3.23,9.72L296.23,219.91z M305,221.93l-2.74-8.23l10.3,9.95L305,221.93z
			 M315.1,224.1l-13.35-12.88l12.18-8.94l1.8,3.68l0.03,0.04l5.07,10.26c-0.01,0.04,0.03,0.04,0.02,0.08l2.4,4.89L315.1,224.1z
			 M321.78,214.88l-0.63-1.26c0.05-0.06,0.07-0.13,0.1-0.24l0.92-3.48c0.08-0.02,0.12-0.04,0.21-0.1l20.38-14.98l7.01-1.49
			L321.78,214.88z"/>
	</g>
	<g>
		<path class="st1" d="M80.22,231.43C80.17,231.45,80.17,231.45,80.22,231.43c-0.07,0.06-0.12,0.08-0.19,0.14c0,0,0,0-0.02,0.04
			c-0.07,0.06-0.08,0.1-0.12,0.17c0,0,0,0-0.02,0.04l-5.5,11.32c-0.11,0.26-0.1,0.53,0.06,0.77l7.04,10.94
			c0.12,0.23,0.38,0.34,0.63,0.36l13.99,0.24l0,0l0,0c0,0,0.04,0.02,0.05-0.02c0.04,0.02,0.09-0.01,0.09-0.01
			c0.04,0.02,0.05-0.02,0.05-0.02l0.05-0.02l0,0l0,0l7.14-2.71l-10.98,42.54c-0.03,0.16-0.02,0.34,0.05,0.5L103,319.97
			c0.11,0.26,0.35,0.41,0.64,0.45c0.31,0.09,0.65,0.02,0.84-0.21l24.92-9.53l0,0c0.05-0.02,0.07-0.06,0.11-0.04
			c0,0,0.02-0.04,0.05-0.02c0.05-0.02,0.07-0.06,0.14-0.12l0,0l0.02-0.04c0.02-0.04,0.07-0.06,0.08-0.1l0.02-0.04
			c0.02-0.04,0.03-0.07,0.05-0.11c0,0,0,0,0.02-0.04l13.35-41.92l0.31,10.06l0,0c0.01,0.09,0.03,0.14,0.03,0.23
			c0,0-0.02,0.04,0.02,0.05c0.02,0.05,0.08,0.12,0.1,0.17l0,0l5.53,6.82c0.23,0.28,0.6,0.35,0.92,0.22l10.77-4.71c0,0,0,0,0.02-0.04
			c0.05-0.02,0.11-0.04,0.12-0.08c0,0,0.02-0.04,0.05-0.02l0,0c0.05-0.02,0.08-0.1,0.1-0.13l0.02-0.04
			c0.02-0.04,0.03-0.07,0.06-0.15l0.02-0.04c0.02-0.04,0.05-0.11,0.03-0.16l0,0l2.12-26.17l5.31-3.24l0,0
			c0.05-0.02,0.07-0.06,0.12-0.08c0,0,0,0,0.02-0.04c0.05-0.02,0.08-0.1,0.1-0.13c0,0,0,0,0.02-0.04s0.03-0.07,0.05-0.11
			s0.02-0.04,0.03-0.07c0.02-0.04,0.03-0.07,0.01-0.13l0.02-0.04l1.76-17.81c0.01-0.13-0.02-0.27-0.06-0.38l-4.08-9.66
			c-0.08-0.21-0.24-0.37-0.44-0.41l-12.39-5.17l-6.21-6.46c-0.06-0.07-0.15-0.15-0.26-0.2l0,0l-19.84-8.04
			c-0.11-0.05-0.2-0.04-0.33-0.05c-0.04-0.02-0.05,0.02-0.09,0.01c0,0,0,0-0.04-0.02l-10.76,1.94c-0.23,0.03-0.42,0.17-0.56,0.37
			c-0.13,0.21-0.14,0.42-0.09,0.62l1.84,6.02L80.22,231.43z M82.56,253.6l-6.57-10.21l5.1-10.49l10.59-0.52l3.76,4.83l-0.11,16.64
			L82.56,253.6z M115.81,220.27l-3.84,8.79c-0.05,0.02-0.14,0.03-0.2,0.05l-15.34,6.77l-3.13-4.03L115.81,220.27z M121.37,223.46
			l-11.45,14.11l9.26-21.16L121.37,223.46z M96.89,253.46l0.08-16.16l14.03-6.15l-4.69,10.66c-0.02,0.04-0.03,0.07-0.05,0.11
			l-2.27,8.81L96.89,253.46z M105.34,251.88c0.26-0.2,0.37-0.54,0.24-0.86l0,0l2.14-8.21c0.05-0.02,0.07-0.06,0.1-0.13l14.1-17.41
			l1.17,3.8l0,0l0,0l0,0c0.02,0.05,0.02,0.05,0.04,0.11l0.02,0.05c0,0,0.04,0.02,0.02,0.05c0.02,0.05,0.08,0.12,0.15,0.15l0,0
			l1.53,1.23l-20.94,49.66l0,0l-9.06,12.16L105.34,251.88z M140.36,221.29l4.9,1.46l-0.04,10.56l-5.22,2.14
			c-0.05,0.02-0.09,0.01-0.11,0.04l-4.43,1.82l-8.97-7.29c-0.08-0.12-0.2-0.26-0.34-0.32l0,0c-0.04-0.02-0.04-0.02-0.07-0.03
			l-0.81-0.66L140.36,221.29z M146.83,222.68l6.09-3.74l5.11,23.15l-6.12,6.66l-5.12-14.9c0.02-0.04-0.01-0.09,0.01-0.13
			L146.83,222.68z M164.83,244.14l2.54,5.92l-8.88,5.43l-3.51-3.27l0,0l-2.27-2.08l6.6-7.16c0.02-0.04,0.03-0.07,0.08-0.1
			L164.83,244.14z M159.96,278.52l-7.53-8.69l2.53-15.42l2.88,2.69c0.25,0.24,0.63,0.27,0.93,0.09l3.04-1.85L159.96,278.52z
			 M145.01,276.33l-0.38-12.55l5.18-16.29l1.05,2.96c0,0,0,0,0.04,0.02c0.02,0.05,0.06,0.07,0.04,0.11l0.02,0.05
			c0.02,0.05,0.1,0.08,0.12,0.14l0,0l2.51,2.31l-2.73,16.6L145.01,276.33z M119.95,283.74l-14.39-3.27l20.54-48.73l8.71,7.09
			c0.23,0.19,0.52,0.22,0.78,0.12l3.19-1.3L119.95,283.74z M94.31,295.85l10.41-13.95l14.8,3.35c0.02,0.05,0.02,0.05,0.04,0.11
			l-0.83,15.14l-14.77,17.86L94.31,295.85z M106.47,317.74l13.15-15.93l8.04,7.82L106.47,317.74z M128.75,308.52l-8.44-8.21
			l0.83-15.36l19.69-48.18l4.64-1.9l3.48,10.15l-0.02,0.04L128.75,308.52z M150.09,284.19l-4.77-5.83l6.23-7.1l7.71,8.9
			L150.09,284.19z M169.25,232.66l-1.4,14.63l-1.63-3.86c0.02-0.04,0.03-0.07,0.01-0.13l0.45-16.71L169.25,232.66z M165.19,223.45
			l-0.5,19.06l-5.21-1.15l-4.96-22.29L165.19,223.45z M146.62,211.74l5.54,5.77l-6.2,3.78l-5.01-1.5l-1.8-11.09L146.62,211.74z
			 M137.48,208.02l1.52,9.39l-9.41-12.58L137.48,208.02z M126.92,203.9l12.2,16.28l-14.76,7.55l-1.31-4.3l-0.02-0.05l-3.69-12
			c0.02-0.04-0.02-0.05-0.01-0.09l-1.75-5.72L126.92,203.9z M118.06,212.72l0.46,1.47c-0.07,0.06-0.1,0.13-0.15,0.24l-1.6,3.61
			c-0.09,0.01-0.14,0.03-0.25,0.07l-24.69,12.66l-7.85,0.39L118.06,212.72z"/>
	</g>
	<g>
		<g>
			<g>
				<path class="st1" d="M271.6,160.14l-5.51-8.87c-0.08-0.12-0.17-0.21-0.29-0.29l-2.4-1.33l-15.12-22.7l-9.24-17.69
					c-0.08-0.17-0.21-0.29-0.37-0.37l-8.87-4.23c-0.37-0.17-0.83-0.04-1.08,0.29l-20.13,29.29c-0.08,0.12-0.12,0.29-0.17,0.46
					l-0.25,10.03l-4.72-1.57c-0.25-0.08-0.54-0.04-0.75,0.08l-4.02,2.73c-0.12,0.08-0.25,0.21-0.29,0.33l-4.06,8.49
					c-0.04,0.12-0.08,0.25-0.08,0.37v15.04c0,0.08,0,0.12,0,0.17l3.65,16.2h-3.94c-0.21,0-0.46,0.08-0.62,0.25l-3.48,3.56
					c-0.17,0.17-0.25,0.37-0.25,0.58v9.32c0,0.04,0,0.12,0,0.17l5.14,23.61c0.08,0.41,0.46,0.66,0.83,0.66c0.04,0,0.12,0,0.17,0
					l9.82-1.95l10.61,1.86c0.12,0,0.21,0,0.33,0l9.24-1.95c0.37-0.08,0.66-0.41,0.66-0.79l0.12-3.15l11.85,3.98
					c0.08,0.04,0.17,0.04,0.25,0.04s0.17,0,0.25-0.04l5.47-1.74l0.17,4.47c0,0.37,0.25,0.66,0.58,0.79l7.91,2.61
					c0.08,0.04,0.17,0.04,0.25,0.04h6.55c0.29,0,0.54-0.12,0.7-0.37l8.66-12.43c0.08-0.12,0.12-0.29,0.17-0.46l2.32-55.02
					C271.72,160.43,271.68,160.27,271.6,160.14z M269.53,160.02l-8.49,2.82l4.43-9.36L269.53,160.02z M246.45,127.17l-13.17,9.57
					l3.15-19.89l1.99-5.1L246.45,127.17z M237.21,110.1l-1.74,4.52l-4.02-7.29L237.21,110.1z M229.34,107.03l5.39,9.74l-3.27,20.84
					l-20.71-3.48L229.34,107.03z M203.91,145.11l2.94,0.99l-3.31,1.78L203.91,145.11z M203.33,149.91l5.55-2.94l11.35,10.23
					l6.09,17.9l-16.53-0.7l-6.67-10.61L203.33,149.91z M195.95,155.34l3.85-8.08l2.32-1.53l-0.46,3.56c0,0.04,0,0.12,0,0.12l0,0
					l-0.25,14.29l-5.47,5.1L195.95,155.34L195.95,155.34z M191.31,199.67v-8.29l3.02-3.07h4.43l3.56,2.24l-4.23,11.56l-6.71-2.57
					L191.31,199.67z M196.24,222.91l-4.68-21.54l6.3,2.4l3.4,18.1L196.24,222.91z M202.91,221.58l-3.44-18.35l3.23-8.82l0.33,7.33
					l1.16,19.55L202.91,221.58z M205.85,221.08l-1.16-19.43l-0.5-11.56c0-0.29-0.17-0.54-0.41-0.66l-4.06-2.53l-3.65-16.32
					l0.21,0.21l5.8-5.47l6.42,10.15l6.92,47.27L205.85,221.08z M224.79,221.17l-7.66,1.62l-6.84-46.69l16.36,0.7L224.79,221.17z
					 M226.65,216.98l1.7-40.97c0-0.12,0-0.21-0.04-0.29l-6.55-19.26c-0.04-0.12-0.12-0.25-0.25-0.37l-11.64-10.52l0.25-9.82
					l21.25,3.56l6.38,81.41L226.65,216.98z M239.45,220.79l-6.42-81.82l14.29-10.36l12.84,19.26l-9.9-5.51
					c-0.21-0.12-0.46-0.12-0.7-0.04c-0.25,0.08-0.41,0.25-0.5,0.5l-6.96,17.61c-0.04,0.12-0.08,0.21-0.04,0.33l2.28,58.45
					L239.45,220.79z M257.8,163.21l-13.67-3.23l5.8-14.71L257.8,163.21z M258.09,227.17h-3.89l3.89-41.1V227.17z M258.09,168.18
					l-5.55,58.7l-6.3-2.07l-2.44-63.18l14.29,3.36V168.18L258.09,168.18z M251.67,145.06l10.52,5.88l0.04,0.08l0.04-0.04l1.95,1.08
					l-4.93,10.32L251.67,145.06z M267.7,215.33l-7.91,11.35v-58.41l0.33-3.31l9.86-3.27L267.7,215.33z"/>
			</g>
		</g>
	</g>
	<g>
		<g>
			<g>
				<path class="st1" d="M239.65,290.27l7.01,6.88c0.1,0.1,0.2,0.15,0.33,0.2l2.49,0.68l18.88,17.4l12.38,14.13
					c0.11,0.13,0.25,0.22,0.42,0.26l9.05,1.89c0.38,0.07,0.77-0.15,0.92-0.5l11.91-31.27c0.05-0.13,0.05-0.29,0.05-0.45l-2-9.23
					l4.67,0.39c0.25,0.02,0.5-0.08,0.66-0.24l3.07-3.39c0.1-0.1,0.18-0.24,0.19-0.37l1.83-8.67c0.01-0.12,0.02-0.25-0.01-0.36
					l-3.34-13.76c-0.02-0.08-0.03-0.11-0.04-0.15l-6.94-14.01l3.6-0.87c0.19-0.05,0.4-0.18,0.51-0.37l2.39-4.03
					c0.11-0.19,0.14-0.4,0.1-0.59l-2.07-8.53c-0.01-0.04-0.03-0.11-0.04-0.15l-9.95-20.46c-0.17-0.36-0.56-0.51-0.91-0.42
					c-0.04,0.01-0.11,0.03-0.15,0.04l-8.55,3.96l-10.12,0.65c-0.11,0.03-0.19,0.05-0.3,0.07l-8.02,3.83
					c-0.32,0.16-0.51,0.53-0.43,0.87l0.59,2.91l-11.72-1c-0.08-0.02-0.16,0-0.24,0.02s-0.15,0.04-0.22,0.09l-4.62,2.81l-1.15-4.06
					c-0.08-0.34-0.37-0.55-0.71-0.59l-7.82-0.63c-0.08-0.02-0.16,0-0.24,0.02l-5.99,1.45c-0.27,0.06-0.46,0.23-0.56,0.5l-5.16,13.29
					c-0.05,0.13-0.05,0.29-0.05,0.45l10.11,50.84C239.47,290.04,239.54,290.18,239.65,290.27z M241.57,289.93l7.14-4.46l-1.97,9.55
					L241.57,289.93z M269.98,314.85l9.92-11.68l1.54,18.89l-0.69,5.1L269.98,314.85z M282.22,328.41l0.59-4.52l5.3,5.78
					L282.22,328.41z M290.1,329.46l-7.09-7.71l-1.64-19.79l19.72-1.42L290.1,329.46z M304.91,288.98l-2.91-0.26l2.64-2.37
					L304.91,288.98z M304.37,284.46l-4.42,3.92l-12.66-6.84l-9.55-15.02l15.28-3.03l8.46,8.22L304.37,284.46z M309.91,277.85
					l-1.73,8.25l-1.78,1.92l-0.38-3.36c-0.01-0.04-0.03-0.11-0.03-0.11l0,0l-2.95-13.13l3.87-5.88L309.91,277.85z M304.3,236.28
					l1.84,7.58l-2.08,3.48l-4.05,0.99l-3.76-1.25l1.3-11.51l6.71,0.86L304.3,236.28z M294.62,216.11l9.07,18.66l-6.29-0.8
					l-7.13-15.8L294.62,216.11z M288.82,218.81l7.22,16.02l-0.99,8.79l-1.93-6.63l-5.41-17.63L288.82,218.81z M286.24,219.92
					l5.38,17.51l3.02,10.46c0.06,0.27,0.27,0.46,0.53,0.51l4.28,1.41l6.96,14.12l-0.24-0.14l-4.09,6.29l-8.13-7.86l-16.84-41.7
					L286.24,219.92z M268.9,224.05l6.65-3.18l16.63,41.19l-15.12,2.99L268.9,224.05z M268.13,228.29l7.55,37.85
					c0.03,0.11,0.05,0.19,0.1,0.26l10.27,16.17c0.07,0.1,0.17,0.2,0.31,0.29l12.99,7.04l1.96,9.04l-20.23,1.47l-23.93-73.04
					L268.13,228.29z M255.57,227.65l24.06,73.41l-10.77,12.65l-16.03-14.77l10.28,2.84c0.22,0.07,0.44,0.01,0.65-0.12
					s0.32-0.32,0.34-0.57l2.45-17.65c0.01-0.12,0.03-0.21-0.04-0.31l-15.08-52.96L255.57,227.65z M251.58,284.4l13.22-0.08
					l-2.04,14.74L251.58,284.4z M237.1,225.96l3.56-0.87l5.57,38.46L237.1,225.96z M250.21,279.92l-7.97-54.93l6.22,0.49
					l16.28,57.25l-13.82,0.11L250.21,279.92L250.21,279.92z M261.22,299.64l-10.93-3.04l-0.06-0.07l-0.03,0.05l-2.02-0.55
					l2.22-10.53L261.22,299.64z M230.94,238.93l4.71-12.14l12.98,53.43l0.43,3.11l-8.29,5.19L230.94,238.93z"/>
			</g>
		</g>
	</g>
	<g>
		<path class="st1" d="M121.62,151.81L121.62,151.81l0.02-0.05c-0.01-0.04,0.01-0.08,0-0.12l-0.01-0.04
			c-0.01-0.04-0.02-0.07-0.02-0.07l-0.01-0.04c-0.01-0.04-0.02-0.07-0.02-0.07s0,0-0.01-0.04l-0.01-0.04l-0.01-0.04l-17.58-20.8
			c-0.13-0.15-0.32-0.24-0.54-0.29l-18.14-0.93c0,0,0,0-0.04,0.01c-0.08-0.01-0.12,0-0.19,0.03L85,129.36l0,0
			c-0.07,0.02-0.11,0.04-0.18,0.06l-0.04,0.01c-0.04,0.01-0.06,0.06-0.13,0.09c-0.04,0.01-0.06,0.06-0.08,0.11s-0.06,0.06-0.08,0.11
			l-0.02,0.05l-2.43,5.86l-25.7-9.4c-0.05-0.02-0.13-0.03-0.21-0.04l-0.04,0.01c-0.08-0.01-0.15,0.01-0.22,0.04l0,0
			c-0.04,0.01-0.07,0.02-0.11,0.04l0,0c-0.04,0.01-0.11,0.04-0.13,0.09l0,0c-0.04,0.01-0.06,0.06-0.09,0.07c0,0-0.04,0.01-0.02,0.05
			c-0.04,0.01-0.06,0.06-0.06,0.06s-0.04,0.01-0.02,0.05c-0.02,0.05-0.02,0.05-0.05,0.1c0,0,0,0-0.02,0.05L44.06,156.2l0,0l0,0
			c0,0,0,0,0.01,0.04c-0.01-0.04-0.04,0.01-0.02,0.05l0.01,0.04c0,0,0.01,0.04-0.02,0.05c0.01,0.04-0.01,0.08,0,0.12l0.01,0.04
			c0.02,0.07,0.04,0.11,0.06,0.18c0,0,0,0,0.01,0.04s0.04,0.11,0.09,0.13c0,0,0,0,0.01,0.04l29.15,35.58l-3.74,9.82
			c-0.07,0.14-0.08,0.35-0.03,0.49l4.32,14.3l0.01,0.04c0.01,0.04,0.01,0.04,0.02,0.07s0.02,0.07,0.02,0.07l0.01,0.04l0,0
			c0.06,0.06,0.09,0.13,0.17,0.14c0,0,0.01,0.04,0.05,0.02c0,0,0.01,0.04,0.05,0.02l19.65,12c0.19,0.09,0.41,0.14,0.58,0.07
			l10.91-3.01l0.04-0.01l0,0l0,0c0.07-0.02,0.11-0.04,0.16-0.1l0.04-0.01c0.09-0.07,0.15-0.13,0.2-0.23c0,0,0,0,0.02-0.05l0.02-0.05
			c0.02-0.05,0.05-0.1,0.03-0.13c0,0,0,0-0.01-0.04l0.31-1.5l11.55-0.85c0,0,0,0,0.04-0.01c0.07-0.02,0.12,0,0.19-0.03l0,0
			c0.07-0.02,0.11-0.04,0.16-0.1l0.04-0.01l0.04-0.01l17.2-14.96c0.15-0.13,0.27-0.37,0.28-0.57c0-0.24-0.11-0.44-0.25-0.59
			l-10.68-9.32l0,0c-0.05-0.02-0.1-0.05-0.16-0.1l0,0l-0.05-0.02c-0.05-0.02-0.1-0.05-0.13-0.03c0,0-0.04,0.01-0.05-0.02
			c-0.05-0.02-0.08-0.01-0.15,0.01l-0.04,0.01c-0.07,0.02-0.12,0-0.19,0.03l0,0l0,0l-2.16,0.76L121.62,151.81z M103.01,185.12
			l-15.35-8.71l6.43-16.97l6.84,5.98L103.01,185.12z M108.86,190.22l0.65,9.07l-19.35-8.65l-7.12-15.03L108.86,190.22z
			 M121.37,200.45C121.4,200.43,121.4,200.43,121.37,200.45C121.4,200.43,121.4,200.43,121.37,200.45l1.31-0.46l-4.47,8.41
			l-8.42-1.21l0.59-2.83L121.37,200.45z M104.68,224.65l-22.14-13.08l7.5-19.34l19.49,8.72L104.68,224.65z M77.14,182.58L57.82,159
			l13.73-3.68l3.36,5.81l-0.69,5.73c0,0.12,0,0.24,0.04,0.34l4.16,12.05L77.14,182.58z M56.91,129.87l13.89,24.09l-13.56,3.62
			L56.91,129.87z M77.83,149.86l7.24-17.5l7.88,25.77l-6.67,17.54l-4.61-2.59c-0.19-0.09-0.41-0.14-0.62-0.06l0,0
			c-0.21,0.07-0.39,0.26-0.44,0.43L79.23,177l-3.49-10.14L77.83,149.86z M102.98,131.74l16.79,19.89l-18.06,12.4l-7.28-6.34
			l-8.21-26.81L102.98,131.74z M81.47,137.04l-5.08,12.33c-0.02,0.05-0.03,0.13-0.04,0.21l-1.1,9.06l-17.41-30.25L81.47,137.04z
			 M55.39,130.96l0.34,26.72l-9.89-1.89L55.39,130.96z M46.74,157.54l9.36,1.75l20.39,24.94l-2.5,6.57L46.74,157.54z M71.15,202.59
			l10.28-26.92l7.34,15.54l-7.8,20.2l-5.87,4.21L71.15,202.59z M94.42,228.03l-18.38-11.22l5.59-4l21.67,12.77L94.42,228.03z
			 M106.62,222.93l2.89-14.26l8.33,1.2l-0.8,12.29L106.62,222.93z M118.67,221.12l0.74-11.67l5.13-9.6l9.29,8.1L118.67,221.12z
			 M120.37,199.21l-9.62,3.39l0.41-1.89c0.01-0.08,0.02-0.17,0.01-0.2l0,0l-0.76-10.75c-0.02-0.27-0.17-0.5-0.38-0.62l-5.38-3.08
			l-2.15-20.67l17.67-12.15L120.37,199.21z"/>
	</g>
	<g>
		<path class="st1" d="M338.87,270.09L338.87,270.09l0.04,0.04c0.04,0,0.07,0.04,0.11,0.04h0.04c0.04,0,0.07,0,0.07,0h0.04
			c0.04,0,0.07,0,0.07,0s0,0,0.04,0h0.04h0.04l26-8.13c0.19-0.06,0.35-0.2,0.47-0.38l7.9-16.36c0,0,0,0,0-0.04
			c0.04-0.07,0.04-0.11,0.05-0.18v-0.04l0,0c0-0.07,0.01-0.11,0.01-0.19v-0.04c0-0.04-0.03-0.08-0.03-0.15
			c0-0.04-0.03-0.08-0.07-0.12s-0.03-0.08-0.07-0.12l-0.04-0.04l-4.46-4.51l18.64-20.03c0.04-0.04,0.08-0.11,0.12-0.18v-0.04
			c0.04-0.07,0.05-0.15,0.05-0.22l0,0c0-0.04,0-0.07,0.01-0.11l0,0c0-0.04,0.01-0.11-0.03-0.15l0,0c0-0.04-0.03-0.08-0.03-0.11
			c0,0,0-0.04-0.04-0.04c0-0.04-0.03-0.08-0.03-0.08s0-0.04-0.04-0.04c-0.04-0.04-0.04-0.04-0.07-0.08c0,0,0,0-0.04-0.04
			l-22.73-21.84l0,0l0,0c0,0,0,0-0.04,0c0.04,0,0-0.04-0.04-0.04h-0.04c0,0-0.04,0-0.04-0.04c-0.04,0-0.07-0.04-0.11-0.04h-0.04
			c-0.07,0-0.11-0.01-0.19-0.01c0,0,0,0-0.04,0s-0.11-0.01-0.15,0.03c0,0,0,0-0.04,0l-44.1,13.05l-7.6-7.26
			c-0.11-0.12-0.29-0.21-0.44-0.21l-14.86-1.57h-0.04c-0.04,0-0.04,0-0.07,0c-0.04,0-0.07,0-0.07,0h-0.04l0,0
			c-0.08,0.03-0.15,0.03-0.19,0.1c0,0-0.04,0-0.04,0.04c0,0-0.04,0-0.04,0.04l-18.69,13.45c-0.16,0.14-0.28,0.32-0.29,0.51
			l-1.46,11.22v0.04l0,0l0,0c0,0.07-0.01,0.11,0.03,0.19v0.04c0.03,0.11,0.06,0.19,0.13,0.27c0,0,0,0,0.04,0.04l0.04,0.04
			c0.04,0.04,0.07,0.08,0.11,0.08c0,0,0,0,0.04,0l1.26,0.86l-3.7,10.97c0,0,0,0,0,0.04c0,0.07-0.04,0.11-0.05,0.18l0,0
			c0,0.07-0.01,0.11,0.03,0.19v0.04v0.04l7.11,21.66c0.06,0.19,0.24,0.39,0.42,0.48c0.22,0.09,0.45,0.06,0.64,0l12.74-6.22l0,0
			c0.04-0.04,0.08-0.07,0.16-0.1l0,0l0.04-0.04c0.04-0.04,0.08-0.07,0.08-0.11c0,0,0-0.04,0.04-0.04c0.04-0.04,0.04-0.07,0.05-0.15
			v-0.04c0-0.07,0.04-0.11,0.05-0.18l0,0l0,0l0.14-2.28L338.87,270.09z M315.4,240.01l13.99-10.77l13.15,12.51l-8.17,3.98
			L315.4,240.01z M308.43,243.43l-8.62-2.92l15.49-14.47l16.61-0.73L308.43,243.43z M294.15,250.98
			C294.15,251.02,294.15,251.02,294.15,250.98C294.15,251.02,294.15,251.02,294.15,250.98l-0.08,1.39l-6.02-7.39l4.38-7.29
			l2.38,1.65L294.15,250.98z M278.32,226.21l20.65-15.33l14.91,14.42l-15.6,14.58L278.32,226.21z M327.78,217.17l29.22-8.65
			l-1.94,14.09l-6.66,0.84l-5.01-2.86c-0.11-0.04-0.22-0.09-0.33-0.1l-12.72-0.84L327.78,217.17z M384.21,218.98l-27.6,3.45
			l1.93-13.9L384.21,218.98z M357.67,230.5l13.32,13.46l-26.81-2.74l-13.57-12.95l4.18-3.24c0.16-0.14,0.28-0.32,0.3-0.55l0,0
			c0.01-0.22-0.09-0.46-0.23-0.58l-2.73-2.64l10.7,0.72L357.67,230.5z M364.61,260.71l-24.85,7.75L335.34,247l8.67-4.25l27.89,2.84
			L364.61,260.71z M368.07,238.83l-9.39-9.47c-0.04-0.04-0.11-0.08-0.18-0.12l-7.92-4.53l34.64-4.3L368.07,238.83z M383.8,217.15
			l-24.76-10.06l5.58-8.38L383.8,217.15z M362.66,198.86l-5.25,7.95l-30.91,9.11l-5.08-4.85L362.66,198.86z M311.67,203.87
			l20.82,19.93l-17.18,0.73l-15.59-15.03l-1.6-7.05L311.67,203.87z M279.19,215.44l17.48-12.59l1.51,6.7L278,224.58L279.19,215.44z
			 M279.15,228.67l12.02,8.2l-4.34,7.22l-11.01-5.51L279.15,228.67z M276.15,240.47l10.47,5.21l6.86,8.45l-11.07,5.42L276.15,240.47
			z M295.68,250.55l0.61-10.18l1.59,1.11c0.07,0.04,0.15,0.08,0.18,0.09l0,0l10.2,3.47c0.26,0.09,0.52,0.03,0.72-0.11l4.92-3.76
			l19.89,6.04l4.33,21L295.68,250.55z"/>
	</g>
	<g>
		<g class="st2">
			<path class="st1" d="M205.44,251.6c-1.69,4.27-6.17,5.92-9.07,5.92c-4.71,0-6.97-2.1-6.97-7.83c0-5.76,2.77-16.55,11.11-16.55
				c2.99,0,5.32,1.18,5.32,4.26c0,1.69-0.6,2.93-2.23,2.93c-0.51,0-1.21-0.13-1.81-0.83c0.76-0.38,1.46-1.72,1.46-2.93
				c0-1.02-0.51-1.94-1.94-1.94c-3.5,0-6.62,8.37-6.62,14.86c0,2.93,0.76,4.96,3.82,4.96c2.48,0,4.74-1.21,6.21-3.18L205.44,251.6z"
				/>
			<path class="st1" d="M218.93,245.9c0.13,0.06,0.25,0.06,0.35,0.06c1.46,0,3.53-0.96,4.9-1.91l0.29,0.86
				c-1.21,1.31-3.31,2.26-5.63,2.64c-0.51,5.89-3.69,9.58-7.61,9.58c-2.96,0-5.09-1.4-5.09-5.03c0-3.66,2.16-11.3,8.72-11.3
				C217.6,240.81,218.93,242.56,218.93,245.9z M216.2,247.65c-0.67-0.16-0.86-0.7-0.86-1.34c0-0.89,0.41-1.46,0.99-1.72
				c-0.06-1.34-0.38-1.85-1.21-1.85c-2.26,0-4.23,5.83-4.23,8.94c0,2.1,0.41,2.58,1.62,2.58
				C214.06,254.28,215.69,251.41,216.2,247.65z"/>
			<path class="st1" d="M230.65,234.73l-3.66,17.19c-0.09,0.41-0.13,0.73-0.13,1.02c0,0.89,0.41,1.18,1.3,1.18
				c1.24,0,2.39-1.21,2.87-2.8h1.34c-1.81,5.19-4.97,5.89-6.68,5.89c-1.91,0-3.41-1.15-3.41-3.82c0-0.6,0.1-1.3,0.25-2.07
				l3.41-15.95L230.65,234.73z"/>
			<path class="st1" d="M241.12,234.73l-3.66,17.19c-0.09,0.41-0.13,0.73-0.13,1.02c0,0.89,0.41,1.18,1.3,1.18
				c1.24,0,2.39-1.21,2.87-2.8h1.34c-1.81,5.19-4.97,5.89-6.68,5.89c-1.91,0-3.41-1.15-3.41-3.82c0-0.6,0.1-1.3,0.25-2.07
				l3.41-15.95L241.12,234.73z"/>
			<path class="st1" d="M250.06,254.53c2.51,0,4.04-1.4,5.63-3.21h1.08c-1.81,2.93-4.52,5.89-8.75,5.89c-2.99,0-4.96-1.46-4.96-5.06
				c0-3.66,2.07-11.33,8.59-11.33c2.83,0,3.5,1.46,3.5,3.06c0,3.66-3.5,6.49-7.32,6.72c-0.03,0.45-0.06,0.89-0.06,1.27
				C247.77,254.02,248.53,254.53,250.06,254.53z M251.91,242.5c-1.62,0-3.18,3.41-3.82,6.56c2.45-0.16,4.62-2.61,4.62-5.25
				C252.7,243.01,252.51,242.5,251.91,242.5z"/>
			<path class="st1" d="M266.93,243.8c0-0.8-0.29-1.31-0.89-1.31c-2,0-4.07,5.83-4.07,9.36c0,2.16,0.76,2.67,2.29,2.67
				c2.51,0,4.04-1.4,5.63-3.21h1.08c-1.81,2.93-4.52,5.89-8.75,5.89c-2.99,0-4.96-1.46-4.96-5.06c0-3.69,2.1-11.33,8.56-11.33
				c2.83,0,3.53,1.46,3.53,2.93c0,1.56-0.76,2.32-1.69,2.32c-0.35,0-0.73-0.13-1.11-0.38C266.8,244.98,266.93,244.34,266.93,243.8z"
				/>
			<path class="st1" d="M279.69,236.07l-1.08,5.03h1.91l-0.25,1.27h-1.91l-2.04,9.55c-0.1,0.41-0.13,0.73-0.13,1.02
				c0,0.89,0.41,1.18,1.31,1.18c1.24,0,2.39-1.21,2.86-2.8h1.34c-1.81,5.19-4.96,5.89-6.68,5.89c-1.91,0-3.41-1.15-3.41-3.82
				c0-0.6,0.1-1.3,0.25-2.07l1.91-8.94h-1.05l0.25-1.27h1.05l0.96-4.39L279.69,236.07z"/>
			<path class="st1" d="M294.68,245.9c0.13,0.06,0.25,0.06,0.35,0.06c1.46,0,3.53-0.96,4.9-1.91l0.29,0.86
				c-1.21,1.31-3.31,2.26-5.63,2.64c-0.51,5.89-3.69,9.58-7.61,9.58c-2.96,0-5.09-1.4-5.09-5.03c0-3.66,2.17-11.3,8.72-11.3
				C293.34,240.81,294.68,242.56,294.68,245.9z M291.94,247.65c-0.67-0.16-0.86-0.7-0.86-1.34c0-0.89,0.41-1.46,0.99-1.72
				c-0.06-1.34-0.38-1.85-1.21-1.85c-2.26,0-4.23,5.83-4.23,8.94c0,2.1,0.41,2.58,1.62,2.58
				C289.81,254.28,291.43,251.41,291.94,247.65z"/>
			<path class="st1" d="M305.02,241.1l-0.41,1.97c1.11-0.96,2.32-1.97,3.85-1.97c1.43,0,2.2,1.18,2.2,2.39
				c0,1.11-0.73,2.32-2.29,2.32c-1.78,0-0.89-2.1-1.85-2.1s-1.53,0.48-2.32,1.21l-2.55,12.1h-4.58l3.37-15.92H305.02z"/>
		</g>
		<g>
			<g class="st2">
				<path class="st3" d="M205.44,251.6c-1.69,4.27-6.17,5.92-9.07,5.92c-4.71,0-6.97-2.1-6.97-7.83c0-5.76,2.77-16.55,11.11-16.55
					c2.99,0,5.32,1.18,5.32,4.26c0,1.69-0.6,2.93-2.23,2.93c-0.51,0-1.21-0.13-1.81-0.83c0.76-0.38,1.46-1.72,1.46-2.93
					c0-1.02-0.51-1.94-1.94-1.94c-3.5,0-6.62,8.37-6.62,14.86c0,2.93,0.76,4.96,3.82,4.96c2.48,0,4.74-1.21,6.21-3.18L205.44,251.6z
					"/>
				<path class="st3" d="M218.93,245.9c0.13,0.06,0.25,0.06,0.35,0.06c1.46,0,3.53-0.96,4.9-1.91l0.29,0.86
					c-1.21,1.31-3.31,2.26-5.63,2.64c-0.51,5.89-3.69,9.58-7.61,9.58c-2.96,0-5.09-1.4-5.09-5.03c0-3.66,2.16-11.3,8.72-11.3
					C217.6,240.81,218.93,242.56,218.93,245.9z M216.2,247.65c-0.67-0.16-0.86-0.7-0.86-1.34c0-0.89,0.41-1.46,0.99-1.72
					c-0.06-1.34-0.38-1.85-1.21-1.85c-2.26,0-4.23,5.83-4.23,8.94c0,2.1,0.41,2.58,1.62,2.58
					C214.06,254.28,215.69,251.41,216.2,247.65z"/>
				<path class="st3" d="M230.65,234.73l-3.66,17.19c-0.09,0.41-0.13,0.73-0.13,1.02c0,0.89,0.41,1.18,1.3,1.18
					c1.24,0,2.39-1.21,2.87-2.8h1.34c-1.81,5.19-4.97,5.89-6.68,5.89c-1.91,0-3.41-1.15-3.41-3.82c0-0.6,0.1-1.3,0.25-2.07
					l3.41-15.95L230.65,234.73z"/>
				<path class="st3" d="M241.12,234.73l-3.66,17.19c-0.09,0.41-0.13,0.73-0.13,1.02c0,0.89,0.41,1.18,1.3,1.18
					c1.24,0,2.39-1.21,2.87-2.8h1.34c-1.81,5.19-4.97,5.89-6.68,5.89c-1.91,0-3.41-1.15-3.41-3.82c0-0.6,0.1-1.3,0.25-2.07
					l3.41-15.95L241.12,234.73z"/>
				<path class="st3" d="M250.06,254.53c2.51,0,4.04-1.4,5.63-3.21h1.08c-1.81,2.93-4.52,5.89-8.75,5.89
					c-2.99,0-4.96-1.46-4.96-5.06c0-3.66,2.07-11.33,8.59-11.33c2.83,0,3.5,1.46,3.5,3.06c0,3.66-3.5,6.49-7.32,6.72
					c-0.03,0.45-0.06,0.89-0.06,1.27C247.77,254.02,248.53,254.53,250.06,254.53z M251.91,242.5c-1.62,0-3.18,3.41-3.82,6.56
					c2.45-0.16,4.62-2.61,4.62-5.25C252.7,243.01,252.51,242.5,251.91,242.5z"/>
				<path class="st3" d="M266.93,243.8c0-0.8-0.29-1.31-0.89-1.31c-2,0-4.07,5.83-4.07,9.36c0,2.16,0.76,2.67,2.29,2.67
					c2.51,0,4.04-1.4,5.63-3.21h1.08c-1.81,2.93-4.52,5.89-8.75,5.89c-2.99,0-4.96-1.46-4.96-5.06c0-3.69,2.1-11.33,8.56-11.33
					c2.83,0,3.53,1.46,3.53,2.93c0,1.56-0.76,2.32-1.69,2.32c-0.35,0-0.73-0.13-1.11-0.38C266.8,244.98,266.93,244.34,266.93,243.8z
					"/>
				<path class="st3" d="M279.69,236.07l-1.08,5.03h1.91l-0.25,1.27h-1.91l-2.04,9.55c-0.1,0.41-0.13,0.73-0.13,1.02
					c0,0.89,0.41,1.18,1.31,1.18c1.24,0,2.39-1.21,2.86-2.8h1.34c-1.81,5.19-4.96,5.89-6.68,5.89c-1.91,0-3.41-1.15-3.41-3.82
					c0-0.6,0.1-1.3,0.25-2.07l1.91-8.94h-1.05l0.25-1.27h1.05l0.96-4.39L279.69,236.07z"/>
				<path class="st3" d="M294.68,245.9c0.13,0.06,0.25,0.06,0.35,0.06c1.46,0,3.53-0.96,4.9-1.91l0.29,0.86
					c-1.21,1.31-3.31,2.26-5.63,2.64c-0.51,5.89-3.69,9.58-7.61,9.58c-2.96,0-5.09-1.4-5.09-5.03c0-3.66,2.17-11.3,8.72-11.3
					C293.34,240.81,294.68,242.56,294.68,245.9z M291.94,247.65c-0.67-0.16-0.86-0.7-0.86-1.34c0-0.89,0.41-1.46,0.99-1.72
					c-0.06-1.34-0.38-1.85-1.21-1.85c-2.26,0-4.23,5.83-4.23,8.94c0,2.1,0.41,2.58,1.62,2.58
					C289.81,254.28,291.43,251.41,291.94,247.65z"/>
				<path class="st3" d="M305.02,241.1l-0.41,1.97c1.11-0.96,2.32-1.97,3.85-1.97c1.43,0,2.2,1.18,2.2,2.39
					c0,1.11-0.73,2.32-2.29,2.32c-1.78,0-0.89-2.1-1.85-2.1s-1.53,0.48-2.32,1.21l-2.55,12.1h-4.58l3.37-15.92H305.02z"/>
			</g>
		</g>
		<g>
			<g class="st2">
				<path class="st1" d="M205.44,251.6c-1.69,4.27-6.17,5.92-9.07,5.92c-4.71,0-6.97-2.1-6.97-7.83c0-5.76,2.77-16.55,11.11-16.55
					c2.99,0,5.32,1.18,5.32,4.26c0,1.69-0.6,2.93-2.23,2.93c-0.51,0-1.21-0.13-1.81-0.83c0.76-0.38,1.46-1.72,1.46-2.93
					c0-1.02-0.51-1.94-1.94-1.94c-3.5,0-6.62,8.37-6.62,14.86c0,2.93,0.76,4.96,3.82,4.96c2.48,0,4.74-1.21,6.21-3.18L205.44,251.6z
					"/>
				<path class="st1" d="M218.93,245.9c0.13,0.06,0.25,0.06,0.35,0.06c1.46,0,3.53-0.96,4.9-1.91l0.29,0.86
					c-1.21,1.31-3.31,2.26-5.63,2.64c-0.51,5.89-3.69,9.58-7.61,9.58c-2.96,0-5.09-1.4-5.09-5.03c0-3.66,2.16-11.3,8.72-11.3
					C217.6,240.81,218.93,242.56,218.93,245.9z M216.2,247.65c-0.67-0.16-0.86-0.7-0.86-1.34c0-0.89,0.41-1.46,0.99-1.72
					c-0.06-1.34-0.38-1.85-1.21-1.85c-2.26,0-4.23,5.83-4.23,8.94c0,2.1,0.41,2.58,1.62,2.58
					C214.06,254.28,215.69,251.41,216.2,247.65z"/>
				<path class="st1" d="M230.65,234.73l-3.66,17.19c-0.09,0.41-0.13,0.73-0.13,1.02c0,0.89,0.41,1.18,1.3,1.18
					c1.24,0,2.39-1.21,2.87-2.8h1.34c-1.81,5.19-4.97,5.89-6.68,5.89c-1.91,0-3.41-1.15-3.41-3.82c0-0.6,0.1-1.3,0.25-2.07
					l3.41-15.95L230.65,234.73z"/>
				<path class="st1" d="M241.12,234.73l-3.66,17.19c-0.09,0.41-0.13,0.73-0.13,1.02c0,0.89,0.41,1.18,1.3,1.18
					c1.24,0,2.39-1.21,2.87-2.8h1.34c-1.81,5.19-4.97,5.89-6.68,5.89c-1.91,0-3.41-1.15-3.41-3.82c0-0.6,0.1-1.3,0.25-2.07
					l3.41-15.95L241.12,234.73z"/>
				<path class="st1" d="M250.06,254.53c2.51,0,4.04-1.4,5.63-3.21h1.08c-1.81,2.93-4.52,5.89-8.75,5.89
					c-2.99,0-4.96-1.46-4.96-5.06c0-3.66,2.07-11.33,8.59-11.33c2.83,0,3.5,1.46,3.5,3.06c0,3.66-3.5,6.49-7.32,6.72
					c-0.03,0.45-0.06,0.89-0.06,1.27C247.77,254.02,248.53,254.53,250.06,254.53z M251.91,242.5c-1.62,0-3.18,3.41-3.82,6.56
					c2.45-0.16,4.62-2.61,4.62-5.25C252.7,243.01,252.51,242.5,251.91,242.5z"/>
				<path class="st1" d="M266.93,243.8c0-0.8-0.29-1.31-0.89-1.31c-2,0-4.07,5.83-4.07,9.36c0,2.16,0.76,2.67,2.29,2.67
					c2.51,0,4.04-1.4,5.63-3.21h1.08c-1.81,2.93-4.52,5.89-8.75,5.89c-2.99,0-4.96-1.46-4.96-5.06c0-3.69,2.1-11.33,8.56-11.33
					c2.83,0,3.53,1.46,3.53,2.93c0,1.56-0.76,2.32-1.69,2.32c-0.35,0-0.73-0.13-1.11-0.38C266.8,244.98,266.93,244.34,266.93,243.8z
					"/>
				<path class="st1" d="M279.69,236.07l-1.08,5.03h1.91l-0.25,1.27h-1.91l-2.04,9.55c-0.1,0.41-0.13,0.73-0.13,1.02
					c0,0.89,0.41,1.18,1.31,1.18c1.24,0,2.39-1.21,2.86-2.8h1.34c-1.81,5.19-4.96,5.89-6.68,5.89c-1.91,0-3.41-1.15-3.41-3.82
					c0-0.6,0.1-1.3,0.25-2.07l1.91-8.94h-1.05l0.25-1.27h1.05l0.96-4.39L279.69,236.07z"/>
				<path class="st1" d="M294.68,245.9c0.13,0.06,0.25,0.06,0.35,0.06c1.46,0,3.53-0.96,4.9-1.91l0.29,0.86
					c-1.21,1.31-3.31,2.26-5.63,2.64c-0.51,5.89-3.69,9.58-7.61,9.58c-2.96,0-5.09-1.4-5.09-5.03c0-3.66,2.17-11.3,8.72-11.3
					C293.34,240.81,294.68,242.56,294.68,245.9z M291.94,247.65c-0.67-0.16-0.86-0.7-0.86-1.34c0-0.89,0.41-1.46,0.99-1.72
					c-0.06-1.34-0.38-1.85-1.21-1.85c-2.26,0-4.23,5.83-4.23,8.94c0,2.1,0.41,2.58,1.62,2.58
					C289.81,254.28,291.43,251.41,291.94,247.65z"/>
				<path class="st1" d="M305.02,241.1l-0.41,1.97c1.11-0.96,2.32-1.97,3.85-1.97c1.43,0,2.2,1.18,2.2,2.39
					c0,1.11-0.73,2.32-2.29,2.32c-1.78,0-0.89-2.1-1.85-2.1s-1.53,0.48-2.32,1.21l-2.55,12.1h-4.58l3.37-15.92H305.02z"/>
			</g>
		</g>
	</g>
	<g>
		<g class="st2">
			<path class="st1" d="M128.54,219.3c-3.87,9.78-14.15,13.57-20.79,13.57c-10.8,0-15.98-4.81-15.98-17.95
				c0-13.2,6.35-37.93,25.46-37.93c6.86,0,12.18,2.7,12.18,9.78c0,3.87-1.39,6.71-5.11,6.71c-1.17,0-2.77-0.29-4.16-1.9
				c1.75-0.88,3.36-3.94,3.36-6.71c0-2.33-1.17-4.45-4.45-4.45c-8.02,0-15.17,19.19-15.17,34.07c0,6.71,1.75,11.38,8.75,11.38
				c5.69,0,10.87-2.77,14.23-7.3L128.54,219.3z"/>
			<path class="st1" d="M146.05,195.23l-0.95,4.52c2.55-2.19,5.33-4.52,8.83-4.52c3.28,0,5.03,2.7,5.03,5.47
				c0,2.55-1.68,5.33-5.25,5.33c-4.09,0-2.04-4.81-4.23-4.81s-3.5,1.09-5.33,2.77l-5.84,27.72h-10.5l7.73-36.48H146.05z"/>
			<path class="st1" d="M195.44,195.23l-7.22,33.85c4.45-1.61,7.15-4.09,9.19-10.43h3.06c-2.85,9.63-8.39,12.4-12.91,13.64
				l-1.09,5.25c-2.19,10.43-8.32,12.4-13.13,12.4c-4.45,0-8.17-2.33-8.17-7.08c0-6.13,6.42-9.19,11.89-10.87l0.88-3.94
				c-3.06,3.43-6.27,4.08-8.75,4.08c-4.38,0-7.81-2.63-7.81-8.75c0-1.39,0.22-2.99,0.58-4.74l4.96-23.42h10.5l-5.25,24.8
				c-0.15,0.58-0.22,1.24-0.22,1.82c0,1.68,0.51,3.21,2.19,3.21c2.7,0,4.6-2.55,5.69-5.98l5.11-23.86H195.44z M171.66,244.25
				c1.53,0,3.28-2.19,4.23-6.49l0.44-2.12c-3.72,1.39-7.15,3.28-7.15,6.2C169.18,242.87,170.05,244.25,171.66,244.25z"/>
			<path class="st1" d="M232.28,218.65c-3.79,4.38-7.81,7.15-11.16,9.12c-3.06,3.21-7.73,4.38-11.45,4.38
				c-7.44,0-10.65-4.89-10.65-9.34c0-3.36,1.9-5.84,3.87-6.78c4.08-7.22,6.71-14.44,8.97-21.59l10.8-1.46
				c0.88,18.89,1.61,21.74,1.61,26.55c0,1.02-0.07,1.9-0.29,2.77c1.97-1.17,3.87-2.48,5.25-3.65H232.28z M204.85,222.22
				c-0.73,0-1.6-0.22-1.97-0.95c0,3.43,1.24,5.11,4.45,5.11s6.35-1.68,6.35-6.79c0-3.79-0.66-6.05-1.39-17.29
				c-1.46,4.74-3.5,9.12-5.91,13.79c0.95,0.44,1.68,1.31,1.68,2.55C208.06,220.4,206.75,222.22,204.85,222.22z"/>
			<path class="st1" d="M251.11,183.7l-2.48,11.53H253l-0.58,2.92h-4.38l-4.67,21.89c-0.22,0.95-0.29,1.68-0.29,2.33
				c0,2.04,0.95,2.7,2.99,2.7c2.84,0,5.47-2.77,6.57-6.42h3.06c-4.16,11.89-11.38,13.5-15.32,13.5c-4.38,0-7.81-2.63-7.81-8.75
				c0-1.39,0.22-2.99,0.58-4.74l4.38-20.5h-2.41l0.58-2.92h2.41l2.19-10.07L251.11,183.7z"/>
			<path class="st1" d="M291.59,195.23l-5.25,24.8c-0.22,0.95-0.29,1.68-0.29,2.33c0,2.04,0.95,3.14,2.99,3.14
				c2.84,0,4.81-3.21,5.91-6.86h3.06c-4.16,11.89-10.72,13.5-14.66,13.5c-4.09,0-6.71-2.33-7.15-6.71
				c-2.26,3.36-5.69,6.71-10.87,6.71c-4.96,0-9.7-3.06-9.7-11.75c0-9.85,6.05-25.53,18.75-25.53c4.16,0,5.91,1.6,5.91,3.72v0.51
				l0.8-3.87H291.59z M266.43,219.38c0,5.62,2.33,5.69,3.65,5.69c2.12,0,5.18-2.19,6.05-6.42l3.5-16.49c0-0.88-0.66-2.77-2.99-2.77
				C270.44,199.39,266.43,212.52,266.43,219.38z"/>
			<path class="st1" d="M308.96,219.89c-0.15,0.73-0.29,1.46-0.29,2.12c0,1.68,0.73,2.92,2.99,2.92c1.31,0,1.9-0.22,2.33-0.44
				c-0.36,5.18-4.08,7.66-8.03,7.66c-4.38,0-7.81-2.7-7.81-8.9c0-1.39,0.22-2.99,0.58-4.74l7.81-36.55l10.8-1.46L308.96,219.89z"/>
		</g>
		<g>
			<g class="st2">
				<path class="st4" d="M128.54,219.3c-3.87,9.78-14.15,13.57-20.79,13.57c-10.8,0-15.98-4.81-15.98-17.95
					c0-13.2,6.35-37.93,25.46-37.93c6.86,0,12.18,2.7,12.18,9.78c0,3.87-1.39,6.71-5.11,6.71c-1.17,0-2.77-0.29-4.16-1.9
					c1.75-0.88,3.36-3.94,3.36-6.71c0-2.33-1.17-4.45-4.45-4.45c-8.02,0-15.17,19.19-15.17,34.07c0,6.71,1.75,11.38,8.75,11.38
					c5.69,0,10.87-2.77,14.23-7.3L128.54,219.3z"/>
				<path class="st4" d="M146.05,195.23l-0.95,4.52c2.55-2.19,5.33-4.52,8.83-4.52c3.28,0,5.03,2.7,5.03,5.47
					c0,2.55-1.68,5.33-5.25,5.33c-4.09,0-2.04-4.81-4.23-4.81s-3.5,1.09-5.33,2.77l-5.84,27.72h-10.5l7.73-36.48H146.05z"/>
				<path class="st4" d="M195.44,195.23l-7.22,33.85c4.45-1.61,7.15-4.09,9.19-10.43h3.06c-2.85,9.63-8.39,12.4-12.91,13.64
					l-1.09,5.25c-2.19,10.43-8.32,12.4-13.13,12.4c-4.45,0-8.17-2.33-8.17-7.08c0-6.13,6.42-9.19,11.89-10.87l0.88-3.94
					c-3.06,3.43-6.27,4.08-8.75,4.08c-4.38,0-7.81-2.63-7.81-8.75c0-1.39,0.22-2.99,0.58-4.74l4.96-23.42h10.5l-5.25,24.8
					c-0.15,0.58-0.22,1.24-0.22,1.82c0,1.68,0.51,3.21,2.19,3.21c2.7,0,4.6-2.55,5.69-5.98l5.11-23.86H195.44z M171.66,244.25
					c1.53,0,3.28-2.19,4.23-6.49l0.44-2.12c-3.72,1.39-7.15,3.28-7.15,6.2C169.18,242.87,170.05,244.25,171.66,244.25z"/>
				<path class="st4" d="M232.28,218.65c-3.79,4.38-7.81,7.15-11.16,9.12c-3.06,3.21-7.73,4.38-11.45,4.38
					c-7.44,0-10.65-4.89-10.65-9.34c0-3.36,1.9-5.84,3.87-6.78c4.08-7.22,6.71-14.44,8.97-21.59l10.8-1.46
					c0.88,18.89,1.61,21.74,1.61,26.55c0,1.02-0.07,1.9-0.29,2.77c1.97-1.17,3.87-2.48,5.25-3.65H232.28z M204.85,222.22
					c-0.73,0-1.6-0.22-1.97-0.95c0,3.43,1.24,5.11,4.45,5.11s6.35-1.68,6.35-6.79c0-3.79-0.66-6.05-1.39-17.29
					c-1.46,4.74-3.5,9.12-5.91,13.79c0.95,0.44,1.68,1.31,1.68,2.55C208.06,220.4,206.75,222.22,204.85,222.22z"/>
				<path class="st4" d="M251.11,183.7l-2.48,11.53H253l-0.58,2.92h-4.38l-4.67,21.89c-0.22,0.95-0.29,1.68-0.29,2.33
					c0,2.04,0.95,2.7,2.99,2.7c2.84,0,5.47-2.77,6.57-6.42h3.06c-4.16,11.89-11.38,13.5-15.32,13.5c-4.38,0-7.81-2.63-7.81-8.75
					c0-1.39,0.22-2.99,0.58-4.74l4.38-20.5h-2.41l0.58-2.92h2.41l2.19-10.07L251.11,183.7z"/>
				<path class="st4" d="M291.59,195.23l-5.25,24.8c-0.22,0.95-0.29,1.68-0.29,2.33c0,2.04,0.95,3.14,2.99,3.14
					c2.84,0,4.81-3.21,5.91-6.86h3.06c-4.16,11.89-10.72,13.5-14.66,13.5c-4.09,0-6.71-2.33-7.15-6.71
					c-2.26,3.36-5.69,6.71-10.87,6.71c-4.96,0-9.7-3.06-9.7-11.75c0-9.85,6.05-25.53,18.75-25.53c4.16,0,5.91,1.6,5.91,3.72v0.51
					l0.8-3.87H291.59z M266.43,219.38c0,5.62,2.33,5.69,3.65,5.69c2.12,0,5.18-2.19,6.05-6.42l3.5-16.49c0-0.88-0.66-2.77-2.99-2.77
					C270.44,199.39,266.43,212.52,266.43,219.38z"/>
				<path class="st4" d="M308.96,219.89c-0.15,0.73-0.29,1.46-0.29,2.12c0,1.68,0.73,2.92,2.99,2.92c1.31,0,1.9-0.22,2.33-0.44
					c-0.36,5.18-4.08,7.66-8.03,7.66c-4.38,0-7.81-2.7-7.81-8.9c0-1.39,0.22-2.99,0.58-4.74l7.81-36.55l10.8-1.46L308.96,219.89z"/>
			</g>
		</g>
		<g>
			<g class="st2">
				<path class="st1" d="M128.54,219.3c-3.87,9.78-14.15,13.57-20.79,13.57c-10.8,0-15.98-4.81-15.98-17.95
					c0-13.2,6.35-37.93,25.46-37.93c6.86,0,12.18,2.7,12.18,9.78c0,3.87-1.39,6.71-5.11,6.71c-1.17,0-2.77-0.29-4.16-1.9
					c1.75-0.88,3.36-3.94,3.36-6.71c0-2.33-1.17-4.45-4.45-4.45c-8.02,0-15.17,19.19-15.17,34.07c0,6.71,1.75,11.38,8.75,11.38
					c5.69,0,10.87-2.77,14.23-7.3L128.54,219.3z"/>
				<path class="st1" d="M146.05,195.23l-0.95,4.52c2.55-2.19,5.33-4.52,8.83-4.52c3.28,0,5.03,2.7,5.03,5.47
					c0,2.55-1.68,5.33-5.25,5.33c-4.09,0-2.04-4.81-4.23-4.81s-3.5,1.09-5.33,2.77l-5.84,27.72h-10.5l7.73-36.48H146.05z"/>
				<path class="st1" d="M195.44,195.23l-7.22,33.85c4.45-1.61,7.15-4.09,9.19-10.43h3.06c-2.85,9.63-8.39,12.4-12.91,13.64
					l-1.09,5.25c-2.19,10.43-8.32,12.4-13.13,12.4c-4.45,0-8.17-2.33-8.17-7.08c0-6.13,6.42-9.19,11.89-10.87l0.88-3.94
					c-3.06,3.43-6.27,4.08-8.75,4.08c-4.38,0-7.81-2.63-7.81-8.75c0-1.39,0.22-2.99,0.58-4.74l4.96-23.42h10.5l-5.25,24.8
					c-0.15,0.58-0.22,1.24-0.22,1.82c0,1.68,0.51,3.21,2.19,3.21c2.7,0,4.6-2.55,5.69-5.98l5.11-23.86H195.44z M171.66,244.25
					c1.53,0,3.28-2.19,4.23-6.49l0.44-2.12c-3.72,1.39-7.15,3.28-7.15,6.2C169.18,242.87,170.05,244.25,171.66,244.25z"/>
				<path class="st1" d="M232.28,218.65c-3.79,4.38-7.81,7.15-11.16,9.12c-3.06,3.21-7.73,4.38-11.45,4.38
					c-7.44,0-10.65-4.89-10.65-9.34c0-3.36,1.9-5.84,3.87-6.78c4.08-7.22,6.71-14.44,8.97-21.59l10.8-1.46
					c0.88,18.89,1.61,21.74,1.61,26.55c0,1.02-0.07,1.9-0.29,2.77c1.97-1.17,3.87-2.48,5.25-3.65H232.28z M204.85,222.22
					c-0.73,0-1.6-0.22-1.97-0.95c0,3.43,1.24,5.11,4.45,5.11s6.35-1.68,6.35-6.79c0-3.79-0.66-6.05-1.39-17.29
					c-1.46,4.74-3.5,9.12-5.91,13.79c0.95,0.44,1.68,1.31,1.68,2.55C208.06,220.4,206.75,222.22,204.85,222.22z"/>
				<path class="st1" d="M251.11,183.7l-2.48,11.53H253l-0.58,2.92h-4.38l-4.67,21.89c-0.22,0.95-0.29,1.68-0.29,2.33
					c0,2.04,0.95,2.7,2.99,2.7c2.84,0,5.47-2.77,6.57-6.42h3.06c-4.16,11.89-11.38,13.5-15.32,13.5c-4.38,0-7.81-2.63-7.81-8.75
					c0-1.39,0.22-2.99,0.58-4.74l4.38-20.5h-2.41l0.58-2.92h2.41l2.19-10.07L251.11,183.7z"/>
				<path class="st1" d="M291.59,195.23l-5.25,24.8c-0.22,0.95-0.29,1.68-0.29,2.33c0,2.04,0.95,3.14,2.99,3.14
					c2.84,0,4.81-3.21,5.91-6.86h3.06c-4.16,11.89-10.72,13.5-14.66,13.5c-4.09,0-6.71-2.33-7.15-6.71
					c-2.26,3.36-5.69,6.71-10.87,6.71c-4.96,0-9.7-3.06-9.7-11.75c0-9.85,6.05-25.53,18.75-25.53c4.16,0,5.91,1.6,5.91,3.72v0.51
					l0.8-3.87H291.59z M266.43,219.38c0,5.62,2.33,5.69,3.65,5.69c2.12,0,5.18-2.19,6.05-6.42l3.5-16.49c0-0.88-0.66-2.77-2.99-2.77
					C270.44,199.39,266.43,212.52,266.43,219.38z"/>
				<path class="st1" d="M308.96,219.89c-0.15,0.73-0.29,1.46-0.29,2.12c0,1.68,0.73,2.92,2.99,2.92c1.31,0,1.9-0.22,2.33-0.44
					c-0.36,5.18-4.08,7.66-8.03,7.66c-4.38,0-7.81-2.7-7.81-8.9c0-1.39,0.22-2.99,0.58-4.74l7.81-36.55l10.8-1.46L308.96,219.89z"/>
			</g>
		</g>
	</g>
</g>
</svg>
