<?xml version="1.0" encoding="utf-8"?>
<!-- Generator: Adobe Illustrator 24.1.2, SVG Export Plug-In . SVG Version: 6.00 Build 0)  -->
<svg version="1.1" id="Layer_1" xmlns="http://www.w3.org/2000/svg" xmlns:xlink="http://www.w3.org/1999/xlink" x="0px" y="0px"
	 viewBox="0 0 72 72" style="enable-background:new 0 0 72 72;" xml:space="preserve">
<style type="text/css">
	.st0{fill:#2D818F;}
</style>
<g>
	<g>
		<path class="st0" d="M38.2,0.1c1.2,0.1,2.3,0.2,3.5,0.4c2.6,0.4,5.1,1.1,7.5,2c3.4,1.3,6.5,3.1,9.3,5.4c2.5,2,4.7,4.3,6.6,6.9
			c1.8,2.5,3.3,5.2,4.4,8c0.7,1.9,1.3,3.8,1.7,5.7c0.3,1.6,0.6,3.3,0.7,4.9c0.1,2.1,0.1,4.2-0.1,6.3c-0.1,1.4-0.4,2.7-0.7,4
			c-0.4,2-1,3.9-1.8,5.7c-1.1,2.7-2.4,5.2-4.1,7.5c-2.2,3.1-4.8,5.7-7.9,8c-3.4,2.5-7.2,4.4-11.3,5.6c-2,0.6-4,1-6,1.2
			C38.7,71.9,37.4,72,36,72c-2.5,0-5-0.2-7.5-0.8c-3.8-0.8-7.4-2.2-10.7-4.1c-2.7-1.6-5.2-3.5-7.5-5.8c-2.7-2.7-4.9-5.8-6.6-9.3
			c-1-1.9-1.8-3.9-2.3-5.9c-0.4-1.4-0.7-2.8-1-4.2C0,38.9-0.1,36,0.1,33.1c0.1-1.7,0.4-3.4,0.8-5c0.5-2,1.1-3.9,1.8-5.8
			c1.3-3.1,3-6,5.1-8.6c2.4-3.1,5.3-5.7,8.6-7.8c3.1-2,6.3-3.5,9.8-4.5c2-0.6,4-0.9,6-1.1c0.5,0,1.1-0.1,1.6-0.1
			C35.3,0.1,36.7,0.1,38.2,0.1z M57.3,29.5c0-0.1,0-0.2,0-0.3c-0.1-0.6-0.2-1.2-0.3-1.7c-0.6-1.8-1.8-3.1-3.6-3.8
			c-1.2-0.5-2.4-0.7-3.6-0.7c-3.1,0-6.2,0-9.2,0c-0.7,0-1.1,0.4-1.1,1.1c0,7.9,0,15.9,0,23.8c0,0.7,0.4,1.1,1.1,1.1c3,0,6.1,0,9.1,0
			c0.7,0,1.4,0,2-0.1c1.5-0.1,3-0.5,4.3-1.3c1.6-0.9,2.8-2.3,3.3-4.1c0.5-1.8,0.4-3.6-0.2-5.3c-0.5-1.6-1.6-2.7-3.1-3.4
			c0,0-0.1-0.1-0.2-0.1c0.8-0.9,1.2-1.9,1.4-3.1c0-0.3,0.1-0.5,0.1-0.8c0,0.1,0,0.2,0,0.3c0,0,0,0,0,0c0-0.6,0-1.3,0-1.9
			c0,0,0,0,0,0C57.3,29.3,57.3,29.4,57.3,29.5z M30.1,38.7c0.1-0.1,0.2-0.1,0.3-0.2c2.1-1,3.4-2.6,4-4.8c0.4-1.5,0.4-3.1,0-4.7
			c-0.5-2.3-1.8-4-3.9-5c-1.5-0.8-3.1-1-4.8-1c-3.2,0-6.3,0-9.5,0c-0.7,0-1.1,0.4-1.1,1c0,0.1,0,0.2,0,0.3c0,3,0,6,0,9
			c0,4.8,0,9.6,0,14.4c0,0.7,0.3,1.2,1.2,1.2c6.5,0,12.9,0,19.4,0c0.1,0,0.2,0,0.3,0c0.3,0,0.5-0.2,0.7-0.4c0.2-0.3,0.3-0.8-0.1-1.2
			c-2-2.6-4-5.3-6.1-7.9C30.4,39.2,30.3,38.9,30.1,38.7z"/>
		<path class="st0" d="M38.2,0.1c-1.5,0-2.9,0-4.4,0C35.3,0,36.7,0,38.2,0.1z"/>
		<path class="st0" d="M57.3,30.8c0-0.4,0-0.9,0-1.3c0-0.1,0-0.2,0-0.3c0,0,0,0,0,0c0,0.6,0,1.3,0,1.9c0,0,0,0,0,0
			C57.3,31,57.3,30.9,57.3,30.8z"/>
	</g>
</g>
<image style="overflow:visible;enable-background:new    ;" width="252" height="72" xlink:href="11412866.jpeg"  transform="matrix(0.4521 0 0 0.4298 12.8681 84.3074)">
</image>
</svg>
