<?xml version="1.0" encoding="utf-8"?>
<!-- Generator: Adobe Illustrator 23.0.6, SVG Export Plug-In . SVG Version: 6.00 Build 0)  -->
<svg version="1.1" id="Layer_1" xmlns="http://www.w3.org/2000/svg" xmlns:xlink="http://www.w3.org/1999/xlink" x="0px" y="0px"
	 viewBox="0 0 72 72" style="enable-background:new 0 0 72 72;" xml:space="preserve">
<style type="text/css">
	.st0{fill:#AD8175;}
</style>
<title>IconLinkedIn</title>
<path class="st0" d="M36,0C16.12,0,0,16.12,0,36s16.12,36,36,36s36-16.12,36-36S55.88,0,36,0 M25.65,53.64c0,0.68,0,0.68-0.7,0.68
	c-2.69,0-5.37,0-8.06,0c-0.4,0-0.54-0.12-0.54-0.53c0-9.6,0-19.2,0-28.8c0-0.42,0.14-0.52,0.54-0.52H25c0.62,0,0.62,0,0.62,0.61
	v28.56H25.65z M21,20.47c-2.98-0.02-5.38-2.46-5.36-5.44s2.46-5.38,5.44-5.36c2.97,0.02,5.37,2.44,5.36,5.41
	C26.41,18.06,23.99,20.47,21,20.47 M59.81,54.32h-8.18c-0.58,0-0.58,0-0.58-0.6v-15.3c0.03-1.23-0.15-2.45-0.52-3.62
	c-0.46-1.59-1.88-2.72-3.53-2.8c-1.47-0.24-2.98,0.1-4.2,0.95c-0.78,0.61-1.34,1.46-1.61,2.41c-0.4,1.34-0.58,2.73-0.53,4.12v14.23
	c0,0.61,0,0.61-0.61,0.61c-2.71,0-5.43,0-8.14,0c-0.41,0-0.54-0.12-0.54-0.53c0-9.6,0-19.2,0-28.79c0-0.42,0.13-0.54,0.54-0.53h7.81
	c0.55,0,0.55,0,0.55,0.55c0,1,0,2.07,0,3.11c0,0.13,0,0.27,0.07,0.37s0.14-0.08,0.19-0.14c1.47-2.41,3.96-4.02,6.76-4.36
	c2.76-0.52,5.61-0.11,8.11,1.16c1.93,1.04,3.37,2.81,4,4.91c0.72,2.26,1.06,4.63,1,7c0,5.58,0,11.15,0,16.73
	c0,0.56,0,0.56-0.57,0.56"/>
</svg>
