<?xml version="1.0" encoding="utf-8"?>
<!-- Generator: Adobe Illustrator 23.0.6, SVG Export Plug-In . SVG Version: 6.00 Build 0)  -->
<svg version="1.1" id="Layer_1" xmlns="http://www.w3.org/2000/svg" xmlns:xlink="http://www.w3.org/1999/xlink" x="0px" y="0px"
	 viewBox="0 0 72 72" style="enable-background:new 0 0 72 72;" xml:space="preserve">
<style type="text/css">
	.st0{fill:#AD8175;}
</style>
<title>IconInstagram</title>
<g>
	<path class="st0" d="M38.12,72H33.9c-0.18-0.05-0.36-0.09-0.54-0.12c-4.34-0.24-8.58-1.35-12.49-3.25
		C8.05,62.24,1.06,51.87,0.08,37.57c-0.41-5.78,0.74-11.57,3.33-16.76C9.79,8,20.17,1,34.43,0.08c6.43-0.44,12.84,1.01,18.46,4.16
		c9.83,5.14,16.69,14.58,18.54,25.51c0.26,1.37,0.38,2.76,0.57,4.15v4.22c-0.05,0.2-0.09,0.4-0.12,0.6
		c-0.3,5.01-1.72,9.89-4.14,14.28c-5.17,9.79-14.61,16.61-25.53,18.44C40.86,71.69,39.48,71.81,38.12,72z M54,36.06L54,36.06
		c0-3.35,0.08-6.7,0-10c-0.16-4.4-3.73-7.91-8.14-8c-6.57-0.11-13.15-0.13-19.73-0.06c-4.45,0.1-8.03,3.68-8.13,8.13
		c-0.05,6.58-0.05,13.16,0,19.74c0.1,3.71,2.63,6.91,6.22,7.86C24.8,53.89,25.4,53.98,26,54c6.7,0,13.4,0.09,20.1,0
		c4.28-0.19,7.71-3.61,7.9-7.89C54.1,42.76,54,39.41,54,36.06z"/>
	<path class="st0" d="M36,51.92h-9.18c-3.51,0.19-6.51-2.49-6.7-6c-0.01-0.23-0.01-0.47,0-0.7c0-6.13,0-12.26,0-18.41
		c-0.18-3.51,2.52-6.51,6.03-6.69c0.23-0.01,0.46-0.01,0.69,0h18.34c3.52-0.2,6.54,2.48,6.74,6c0.01,0.25,0.01,0.49,0,0.74
		c0,6.12,0,12.23,0,18.34c0.21,3.5-2.45,6.51-5.96,6.72c-0.26,0.02-0.53,0.02-0.79,0H36z M47.66,36
		c-0.01-6.43-5.24-11.64-11.67-11.63c-6.43,0.01-11.64,5.24-11.63,11.67s5.24,11.64,11.67,11.63c0.01,0,0.02,0,0.03,0
		C42.47,47.61,47.64,42.41,47.66,36z M49.29,24.66c-0.02-1.03-0.87-1.84-1.9-1.82c-1.03,0.02-1.84,0.87-1.82,1.9
		c0.02,1.02,0.85,1.83,1.87,1.82c1.03-0.01,1.86-0.86,1.85-1.89c0-0.01,0-0.02,0-0.03V24.66z"/>
	<path class="st0" d="M26.82,36c0.01-5.09,4.14-9.2,9.23-9.19s9.2,4.14,9.19,9.23c-0.01,5.09-4.14,9.2-9.23,9.19c0,0-0.01,0-0.01,0
		C30.92,45.21,26.82,41.08,26.82,36z"/>
</g>
</svg>
