<?xml version="1.0" encoding="utf-8"?>
<!-- Generator: Adobe Illustrator 23.0.6, SVG Export Plug-In . SVG Version: 6.00 Build 0)  -->
<svg version="1.1" id="Layer_1" xmlns="http://www.w3.org/2000/svg" xmlns:xlink="http://www.w3.org/1999/xlink" x="0px" y="0px"
	 viewBox="0 0 72 72" style="enable-background:new 0 0 72 72;" xml:space="preserve">
<style type="text/css">
	.st0{fill:#AD8175;}
</style>
<title>IconGitHub</title>
<path class="st0" d="M38.4,72.03h-4.77c-0.2-0.06-0.4-0.1-0.61-0.13c-3.32-0.21-6.59-0.95-9.68-2.18
	C10.85,64.64,3.22,55.5,0.58,42.25c-0.25-1.22-0.37-2.54-0.55-3.81v-4.78c0.05-0.22,0.1-0.45,0.14-0.68
	c0.23-1.55,0.38-3.11,0.71-4.64C5.07,8.93,24.19-3.4,43.6,0.79S75.35,24.1,71.16,43.51c-0.15,0.69-0.32,1.38-0.51,2.07
	c-4.07,14.27-13.82,22.85-28.37,25.88C41.03,71.73,39.7,71.84,38.4,72.03z M40.12,46.69c1,1.19,1.49,2.71,1.39,4.26
	c0,2,0,3.93,0,5.9c0,1.11,0.65,1.59,1.7,1.25c0.53-0.17,1.05-0.39,1.56-0.61C56.31,52.2,61.38,38.55,56.09,27
	c-0.04-0.1-0.09-0.19-0.13-0.29c-4.58-9.95-15.78-15.01-26.27-11.88c-8.89,2.82-15.14,10.8-15.76,20.1
	c-0.42,8.47,2.68,15.32,9.53,20.34c1.68,1.08,3.47,2.01,5.32,2.76c0.83,0.4,1.67,0,1.71-0.72c0.08-1.37,0-2.74,0-4.13
	c-0.58,0.08-1.06,0.16-1.55,0.21c-2.54,0.23-5-0.78-6-3.47c-0.45-1.35-1.35-2.5-2.54-3.27c-0.28-0.23-0.54-0.49-0.76-0.78
	c0.41-0.43,1.03-0.57,1.58-0.35c1.29,0.35,2.38,1.22,3,2.4c1.13,2.14,3.76,2.99,5.93,1.91c0.19-0.07,0.35-0.21,0.46-0.38
	c0.39-1,0.74-1.92,1.1-2.88c-0.27,0-0.66-0.09-1.05-0.16c-2.49-0.29-4.79-1.47-6.48-3.32c-1.24-1.56-1.98-3.45-2.15-5.44
	c-0.34-2.9-0.08-5.66,1.89-8c0.13-0.2,0.18-0.45,0.12-0.69c-0.43-1.59-0.39-3.28,0.1-4.85c0.25-0.86,0.36-0.92,1.24-0.77
	c1.61,0.32,3.14,0.98,4.47,1.95c0.39,0.29,0.89,0.37,1.35,0.23c3.1-0.76,6.35-0.76,9.45,0c0.57,0.18,1.19,0.08,1.68-0.27
	c1.29-0.93,2.77-1.57,4.34-1.88c0.65-0.11,1,0,1.22,0.75c0.45,1.56,0.5,3.2,0.14,4.78c-0.04,0.3,0.03,0.61,0.21,0.86
	c0.92,1.1,1.51,2.44,1.7,3.86c0.16,1.51,0.16,3.03,0,4.54c-0.25,3.68-2.82,6.78-6.38,7.72C42.42,46.22,41.29,46.41,40.12,46.69z"/>
</svg>
