<?xml version="1.0" encoding="utf-8"?>
<!-- Generator: Adobe Illustrator 24.1.2, SVG Export Plug-In . SVG Version: 6.00 Build 0)  -->
<svg version="1.1" id="Layer_1" xmlns="http://www.w3.org/2000/svg" xmlns:xlink="http://www.w3.org/1999/xlink" x="0px" y="0px"
	 viewBox="0 0 72 72" style="enable-background:new 0 0 72 72;" xml:space="preserve">
<style type="text/css">
	.st0{fill:#2D818F;}
</style>
<g>
	<path class="st0" d="M38.1,72h-4.2c-0.2-0.1-0.4-0.1-0.5-0.1c-4.3-0.2-8.6-1.3-12.5-3.3C8.1,62.2,1.1,51.9,0.1,37.6
		C-0.3,31.8,0.8,26,3.4,20.8C9.8,8,20.2,1,34.4,0.1c6.4-0.4,12.8,1,18.5,4.2c9.8,5.1,16.7,14.6,18.5,25.5c0.3,1.4,0.4,2.8,0.6,4.2
		v4.2c-0.1,0.2-0.1,0.4-0.1,0.6c-0.3,5-1.7,9.9-4.1,14.3c-5.2,9.8-14.6,16.6-25.5,18.4C40.9,71.7,39.5,71.8,38.1,72z M54,36.1
		L54,36.1c0-3.3,0.1-6.7,0-10c-0.2-4.4-3.7-7.9-8.1-8C39.3,18,32.7,17.9,26.1,18c-4.5,0.1-8,3.7-8.1,8.1c0,6.6,0,13.2,0,19.7
		c0.1,3.7,2.6,6.9,6.2,7.9c0.6,0.2,1.2,0.2,1.8,0.3c6.7,0,13.4,0.1,20.1,0c4.3-0.2,7.7-3.6,7.9-7.9C54.1,42.8,54,39.4,54,36.1z"/>
	<path class="st0" d="M36,51.9h-9.2c-3.5,0.2-6.5-2.5-6.7-6c0-0.2,0-0.5,0-0.7c0-6.1,0-12.3,0-18.4c-0.2-3.5,2.5-6.5,6-6.7
		c0.2,0,0.5,0,0.7,0h18.3c3.5-0.2,6.5,2.5,6.7,6c0,0.3,0,0.5,0,0.7c0,6.1,0,12.2,0,18.3c0.2,3.5-2.5,6.5-6,6.7c-0.3,0-0.5,0-0.8,0
		H36z M47.7,36c0-6.4-5.2-11.6-11.7-11.6c-6.4,0-11.6,5.2-11.6,11.7S29.6,47.7,36,47.7c0,0,0,0,0,0C42.5,47.6,47.6,42.4,47.7,36z
		 M49.3,24.7c0-1-0.9-1.8-1.9-1.8c-1,0-1.8,0.9-1.8,1.9c0,1,0.8,1.8,1.9,1.8C48.5,26.5,49.3,25.7,49.3,24.7
		C49.3,24.7,49.3,24.6,49.3,24.7C49.3,24.6,49.3,24.7,49.3,24.7z"/>
	<path class="st0" d="M26.8,36c0-5.1,4.1-9.2,9.2-9.2s9.2,4.1,9.2,9.2c0,5.1-4.1,9.2-9.2,9.2h0C30.9,45.2,26.8,41.1,26.8,36z"/>
</g>
</svg>
