<?xml version="1.0" encoding="utf-8"?>
<!-- Generator: Adobe Illustrator 24.1.2, SVG Export Plug-In . SVG Version: 6.00 Build 0)  -->
<svg version="1.1" id="Layer_1" xmlns="http://www.w3.org/2000/svg" xmlns:xlink="http://www.w3.org/1999/xlink" x="0px" y="0px"
	 viewBox="0 0 72 72" style="enable-background:new 0 0 72 72;" xml:space="preserve">
<style type="text/css">
	.st0{fill:#2D818F;}
</style>
<path class="st0" d="M38.4,72h-4.8c-0.2-0.1-0.4-0.1-0.6-0.1c-3.3-0.2-6.6-0.9-9.7-2.2C10.9,64.6,3.2,55.5,0.6,42.3
	C0.3,41,0.2,39.7,0,38.4v-4.8c0-0.2,0.1-0.5,0.1-0.7c0.2-1.5,0.4-3.1,0.7-4.6C5.1,8.9,24.2-3.4,43.6,0.8s31.8,23.3,27.6,42.7
	c-0.2,0.7-0.3,1.4-0.5,2.1c-4.1,14.3-13.8,22.9-28.4,25.9C41,71.7,39.7,71.8,38.4,72z M40.1,46.7c1,1.2,1.5,2.7,1.4,4.3
	c0,2,0,3.9,0,5.9c0,1.1,0.7,1.6,1.7,1.3c0.5-0.2,1-0.4,1.6-0.6C56.3,52.2,61.4,38.5,56.1,27c0-0.1-0.1-0.2-0.1-0.3
	c-4.6-10-15.8-15-26.3-11.9c-8.9,2.8-15.1,10.8-15.8,20.1c-0.4,8.5,2.7,15.3,9.5,20.3c1.7,1.1,3.5,2,5.3,2.8c0.8,0.4,1.7,0,1.7-0.7
	c0.1-1.4,0-2.7,0-4.1c-0.6,0.1-1.1,0.2-1.5,0.2c-2.5,0.2-5-0.8-6-3.5c-0.5-1.3-1.4-2.5-2.5-3.3c-0.3-0.2-0.5-0.5-0.8-0.8
	c0.4-0.4,1-0.6,1.6-0.3c1.3,0.3,2.4,1.2,3,2.4c1.1,2.1,3.8,3,5.9,1.9c0.2-0.1,0.4-0.2,0.5-0.4c0.4-1,0.7-1.9,1.1-2.9
	c-0.3,0-0.7-0.1-1-0.2c-2.5-0.3-4.8-1.5-6.5-3.3c-1.2-1.6-2-3.5-2.1-5.4c-0.3-2.9-0.1-5.7,1.9-8c0.1-0.2,0.2-0.5,0.1-0.7
	c-0.4-1.6-0.4-3.3,0.1-4.9c0.3-0.9,0.4-0.9,1.2-0.8c1.6,0.3,3.1,1,4.5,2c0.4,0.3,0.9,0.4,1.4,0.2c3.1-0.8,6.4-0.8,9.4,0
	c0.6,0.2,1.2,0.1,1.7-0.3c1.3-0.9,2.8-1.6,4.3-1.9c0.7-0.1,1,0,1.2,0.8c0.5,1.6,0.5,3.2,0.1,4.8c0,0.3,0,0.6,0.2,0.9
	c0.9,1.1,1.5,2.4,1.7,3.9c0.2,1.5,0.2,3,0,4.5c-0.3,3.7-2.8,6.8-6.4,7.7C42.4,46.2,41.3,46.4,40.1,46.7z"/>
</svg>
