<?xml version="1.0" encoding="utf-8"?>
<!-- Generator: Adobe Illustrator 23.0.6, SVG Export Plug-In . SVG Version: 6.00 Build 0)  -->
<svg version="1.1" id="Layer_1" xmlns="http://www.w3.org/2000/svg" xmlns:xlink="http://www.w3.org/1999/xlink" x="0px" y="0px"
	 viewBox="0 0 432 432" style="enable-background:new 0 0 432 432;" xml:space="preserve">
<style type="text/css">
	.st0{fill:#F5E8E8;}
	.st1{opacity:0.7;fill:#441E59;}
	.st2{opacity:0.5;fill:#F5E8E8;}
	.st3{fill:#35103F;}
	.st4{fill:#441E59;}
</style>
<rect class="st0" width="432" height="432"/>
<rect class="st1" width="432" height="432"/>
<circle class="st2" cx="212.77" cy="193.08" r="157.43"/>
<g>
	<g>
		<path class="st3" d="M212.49,27.59c-91.51,0-165.96,74.45-165.96,165.96c0,61.03,33.12,114.46,82.32,143.29
			c-7.48,2.95-12.7,9.44-12.7,17c0,4.47,1.83,8.57,4.86,11.79c-9.91,3.86-15.62,8.41-15.62,13.26c0,14.08,47.94,25.5,107.09,25.5
			s107.09-11.42,107.09-25.5c0-4.86-5.71-9.4-15.62-13.26c3.04-3.22,4.86-7.32,4.86-11.79c0-7.56-5.21-14.06-12.7-17
			c49.2-28.83,82.32-82.26,82.32-143.29C378.45,102.04,304,27.59,212.49,27.59z M212.49,347.31c-84.78,0-153.76-68.97-153.76-153.76
			c0-84.78,68.97-153.76,153.76-153.76s153.76,68.97,153.76,153.76C366.25,278.34,297.27,347.31,212.49,347.31z"/>
		<path class="st3" d="M86.05,193.55c0-3.37-2.73-6.1-6.1-6.1c-3.37,0-6.1,2.73-6.1,6.1c0,12.44,1.65,24.77,4.9,36.66
			c0.74,2.71,3.2,4.49,5.88,4.49c0.53,0,1.07-0.07,1.61-0.22c3.25-0.89,5.17-4.25,4.28-7.5C87.55,216.15,86.05,204.9,86.05,193.55z"
			/>
		<path class="st3" d="M168.68,74.91c14-5.17,28.75-7.8,43.82-7.8c3.37,0,6.1-2.73,6.1-6.1c0-3.37-2.73-6.1-6.1-6.1
			c-16.52,0-32.69,2.88-48.05,8.55c-39.05,14.43-70.25,46.6-83.46,86.05c-1.07,3.2,0.65,6.65,3.85,7.72
			c0.64,0.22,1.3,0.32,1.94,0.32c2.55,0,4.93-1.61,5.79-4.17C104.61,117.4,133.06,88.07,168.68,74.91z"/>
		<ellipse class="st3" cx="212.49" cy="324.83" rx="60.34" ry="16.21"/>
		<g>
			<path class="st4" d="M52.64,70.48c1.23,0,2.22-0.99,2.22-2.22c0-8.31,6.76-15.06,15.06-15.06c1.23,0,2.22-0.99,2.22-2.22
				s-0.99-2.22-2.22-2.22c-8.31,0-15.06-6.76-15.06-15.06c0-1.23-0.99-2.22-2.22-2.22s-2.22,0.99-2.22,2.22
				c0,8.31-6.76,15.06-15.06,15.06c-1.23,0-2.22,0.99-2.22,2.22s0.99,2.22,2.22,2.22c8.31,0,15.06,6.76,15.06,15.06
				C50.42,69.48,51.41,70.48,52.64,70.48z"/>
		</g>
		<g>
			<path class="st4" d="M414.65,121.29c-8.3,0-15.06-6.76-15.06-15.06c0-1.23-0.99-2.22-2.22-2.22c-1.23,0-2.22,0.99-2.22,2.22
				c0,8.31-6.76,15.06-15.06,15.06c-1.23,0-2.22,0.99-2.22,2.22s0.99,2.22,2.22,2.22c8.3,0,15.06,6.76,15.06,15.06
				c0,1.23,0.99,2.22,2.22,2.22c1.23,0,2.22-0.99,2.22-2.22c0-8.31,6.76-15.06,15.06-15.06c1.23,0,2.22-0.99,2.22-2.22
				S415.87,121.29,414.65,121.29z"/>
		</g>
		<g>
			<path class="st4" d="M87.2,322.61c-8.31,0-15.06-6.76-15.06-15.06c0-1.23-0.99-2.22-2.22-2.22s-2.22,0.99-2.22,2.22
				c0,8.31-6.76,15.06-15.06,15.06c-1.23,0-2.22,0.99-2.22,2.22c0,1.23,0.99,2.22,2.22,2.22c8.31,0,15.06,6.76,15.06,15.06
				c0,1.23,0.99,2.22,2.22,2.22s2.22-0.99,2.22-2.22c0-8.3,6.76-15.06,15.06-15.06c1.23,0,2.22-0.99,2.22-2.22
				C89.42,323.6,88.42,322.61,87.2,322.61z"/>
		</g>
	</g>
</g>
<g>
	<path class="st4" d="M132.43,188.81c0.79,0,1.19,1,1.19,3c0,2-0.37,3.79-1.12,5.37c-0.75,1.58-1.66,2.81-2.72,3.69
		s-2.26,1.58-3.59,2.12c-4.46,1.96-8.62,1.92-12.49-0.13c-1.96-1.04-3.46-2.28-4.5-3.72c-1.04-1.44-1.87-3.15-2.5-5.15
		c-0.96-3-1.44-6.14-1.44-9.43c0-3.29,0.31-6.37,0.94-9.24c0.62-2.87,1.58-5.61,2.87-8.21c1.29-2.6,3.12-4.69,5.5-6.28
		c2.37-1.58,5.12-2.37,8.25-2.37c1.33,0,2.72,0.22,4.15,0.66c1.44,0.44,2.61,0.98,3.53,1.62c0.92,0.65,1.73,1.63,2.44,2.97
		c0.71,1.33,1.06,2.89,1.06,4.68c0,1.92-0.46,3.64-1.37,5.18c-0.42,0.71-1.08,1.34-2,1.91c-0.92,0.56-2,0.84-3.25,0.84
		c-1.92,0-3.27-0.85-4.06-2.56c-0.33-0.67-0.5-1.39-0.5-2.19c0-0.79,0.27-1.25,0.81-1.37c0.58-0.17,1.12-0.62,1.62-1.37
		c0.5-0.75,0.75-1.62,0.75-2.62c0-0.79-0.21-1.48-0.62-2.06c-0.79-1.04-1.94-1.56-3.44-1.56s-2.86,0.69-4.09,2.06
		c-1.23,1.37-2.15,3.1-2.78,5.18c-1.25,4.16-1.87,8-1.87,11.49c0,3.5,0.48,6.31,1.44,8.43c1.17,2.62,2.64,4.37,4.44,5.25
		c1.12,0.54,2.41,0.81,3.87,0.81c2.46,0,4.66-1.1,6.62-3.31c0.83-0.87,1.52-1.91,2.06-3.12
		C131.83,188.99,132.1,188.81,132.43,188.81z"/>
	<path class="st4" d="M156.11,186.37l0.25,2.19c0,0.79-0.75,1.19-2.25,1.19c-3.04,0-4.56-1.15-4.56-3.44c0-0.54,0.15-1.29,0.44-2.25
		c0.29-0.96,0.44-1.79,0.44-2.5c0-0.71-0.21-1.32-0.62-1.84c-0.42-0.52-1.02-0.78-1.81-0.78c-0.79,0-1.47,0.28-2.03,0.84
		c-0.56,0.56-0.91,1.14-1.03,1.72l-0.25,0.87c-0.25,1.29-0.37,3.45-0.37,6.46c0,3.02,0.04,5.39,0.12,7.12
		c0.08,1.73,0.17,2.92,0.25,3.56c0.08,0.65,0.13,1.03,0.13,1.16c0,1.04-0.65,1.88-1.94,2.53c-1.29,0.65-2.58,0.97-3.87,0.97
		c-1.29,0-1.94-0.27-1.94-0.81l0.31-1.94c0.58-3.62,0.87-8.35,0.87-14.18c0-5.83-0.21-9.79-0.62-11.87c0-0.5,0.44-0.75,1.31-0.75
		c2.25,0,3.75,0.77,4.5,2.31c0.04,0.17,0.11,0.25,0.22,0.25c0.1,0,0.38-0.19,0.84-0.56c1.37-1.12,3-1.69,4.87-1.69
		c1.17,0,2.33,0.23,3.5,0.69c2.37,0.96,3.56,2.96,3.56,6L156.11,186.37z"/>
	<path class="st4" d="M170.29,220.41c0,0.5-0.25,0.75-0.75,0.75h-0.06c-1.37,0-2.93-0.48-4.65-1.44c-1.73-0.96-2.59-2.06-2.59-3.31
		c0-1.25,0.79-3.43,2.37-6.53c1.58-3.1,2.37-5.17,2.37-6.21c0-1.12-0.54-3.14-1.62-6.06c-1.37-3.79-2.47-6.87-3.28-9.24
		s-1.69-4.47-2.62-6.28c-0.94-1.81-1.61-2.88-2.03-3.22l-0.62-0.44c-0.46-0.25-0.69-0.52-0.69-0.81c0-0.58,0.91-1.18,2.72-1.78
		c1.81-0.6,3.4-0.91,4.78-0.91c0.62,0,1.15,0.5,1.56,1.5c0.75,1.96,1.56,4.66,2.44,8.12c2.12,7.08,3.46,10.62,4,10.62
		c0.38,0,1.13-1.46,2.28-4.37c1.15-2.91,1.72-5.27,1.72-7.06c0-3.12-0.92-4.95-2.75-5.5c-0.42-0.08-0.63-0.29-0.63-0.62
		c0-0.75,0.98-1.47,2.94-2.15c1.96-0.69,3.73-1.03,5.31-1.03c1.37,0,2.06,0.9,2.06,2.69c0,1.37-0.29,2.98-0.87,4.81
		c-0.58,1.83-1.12,3.28-1.62,4.34c-0.5,1.06-1.74,3.52-3.72,7.37c-1.98,3.85-3.61,7.24-4.9,10.15c-1.42,3.5-2.12,7.06-2.12,10.68
		c0,1.91,0.17,3.35,0.5,4.31C170.12,219.75,170.29,220.29,170.29,220.41z"/>
	<path class="st4" d="M201.89,194.55c0,1.79-0.34,3.35-1.03,4.68c-0.69,1.33-1.47,2.31-2.34,2.94s-1.92,1.12-3.12,1.5
		c-1.58,0.5-3.02,0.75-4.31,0.75c-2.71,0-4.96-0.53-6.75-1.59c-1.79-1.06-2.69-2.76-2.69-5.09c0-1.37,0.38-2.5,1.12-3.37
		c1.17-1.29,2.56-1.94,4.19-1.94c0.5,0,0.75,0.23,0.75,0.69c0,0.04-0.09,0.36-0.28,0.97c-0.19,0.6-0.28,1.36-0.28,2.28
		c0,0.92,0.36,1.73,1.09,2.44c0.73,0.71,1.61,1.06,2.65,1.06c1.04,0,1.87-0.18,2.5-0.53c0.63-0.35,1.06-0.8,1.31-1.34
		c0.37-0.75,0.56-1.46,0.56-2.12c0-1.21-0.6-2.25-1.81-3.12c-1.21-0.87-2.54-1.56-4-2.06c-1.46-0.5-2.79-1.33-4-2.5
		c-1.21-1.17-1.81-2.62-1.81-4.37c0-3,0.95-5.25,2.84-6.75c1.89-1.5,4.47-2.25,7.71-2.25c1.42,0,2.9,0.2,4.47,0.59
		c1.56,0.4,2.34,1.06,2.34,2s-0.16,1.8-0.47,2.59c-0.31,0.79-0.7,1.19-1.16,1.19c-0.25,0-0.42-0.09-0.5-0.28
		c-0.08-0.19-0.23-0.41-0.44-0.66c-0.21-0.25-0.71-0.57-1.5-0.97c-0.79-0.4-1.47-0.59-2.03-0.59c-0.56,0-0.94,0.01-1.12,0.03
		c-0.19,0.02-0.51,0.08-0.97,0.19c-0.46,0.1-0.87,0.26-1.25,0.47c-0.96,0.54-1.44,1.33-1.44,2.37c0,0.67,0.15,1.16,0.44,1.47
		c0.29,0.31,0.52,0.55,0.69,0.72c0.17,0.17,0.46,0.37,0.87,0.59c0.42,0.23,0.71,0.39,0.87,0.47c0.17,0.08,0.54,0.26,1.12,0.53
		c0.58,0.27,0.96,0.45,1.12,0.53C199.68,188.14,201.89,190.97,201.89,194.55z"/>
	<path class="st4" d="M203.45,178.75l0.19-2.5c0.04-0.38,0.33-0.56,0.87-0.56h2.19l-0.25-5v-0.25c0-0.96,0.73-1.87,2.19-2.75
		c1.46-0.87,2.79-1.31,4-1.31c0.38,0,0.56,0.17,0.56,0.5v0.06c-0.17,1.12-0.33,4.02-0.5,8.68c1.83,0,3-0.04,3.5-0.13
		c0.5-0.08,0.77-0.13,0.81-0.13c0.29,0,0.44,0.25,0.44,0.75s-0.23,1.13-0.69,1.91c-0.46,0.77-0.96,1.18-1.5,1.22h-2.62
		c-0.04,1.42-0.06,3.8-0.06,7.15c0,3.35,0.03,6.11,0.09,8.28c0.06,2.17,0.13,3.8,0.22,4.9c0.08,1.1,0.18,1.99,0.28,2.65
		c0.1,0.67,0.19,1.15,0.25,1.44c0.06,0.29,0.09,0.48,0.09,0.56c0,0.42-0.27,0.65-0.81,0.69c-1.62,0-3.24-0.23-4.84-0.69
		c-1.6-0.46-2.4-1.25-2.4-2.37c0.87-7,1.31-14.51,1.31-22.55c-1.12,0-1.98,0.04-2.56,0.13h-0.06
		C203.76,179.44,203.54,179.21,203.45,178.75z"/>
	<path class="st4" d="M239.24,184.37l-0.13,8c0,5.54,0.6,8.87,1.81,9.99c0.17,0.17,0.25,0.35,0.25,0.56c0,0.62-1.34,0.94-4.03,0.94
		s-4.11-0.79-4.28-2.37c-0.04-0.37-0.06-1.15-0.06-2.31l0.25-9.99c0-0.29-0.17-0.44-0.5-0.44c-2,0-3.87,0.56-5.62,1.69
		c-1.75,1.12-2.62,2.56-2.62,4.31c0,0.92,0.25,1.69,0.75,2.31c0.5,0.62,1.11,0.94,1.84,0.94s1.33-0.15,1.81-0.44
		c0.48-0.29,0.76-0.46,0.84-0.5c0.71,0.08,1.06,0.82,1.06,2.22c0,1.4-0.65,2.52-1.94,3.37s-2.64,1.28-4.06,1.28
		c-1.42,0-2.63-0.25-3.65-0.75c-1.02-0.5-1.76-1.06-2.22-1.69c-0.46-0.62-0.83-1.33-1.13-2.12c-0.29-0.96-0.44-1.79-0.44-2.5
		c0-2.91,0.92-5.25,2.75-7c1.83-1.75,4.18-3,7.06-3.75c3.79-0.75,5.77-1.44,5.93-2.06c0.13-0.46,0.19-1.23,0.19-2.31
		c0-2.21-1.13-3.31-3.37-3.31c-0.96,0-1.81,0.3-2.56,0.91c-0.75,0.6-1.12,1.36-1.12,2.28l0.38,1.5c-0.08,0.71-0.83,1.12-2.25,1.25
		l-0.69,0.06c-1.25,0-2.24-0.31-2.97-0.94c-0.73-0.63-1.09-1.46-1.09-2.5c0-0.67,0.22-1.41,0.66-2.22c0.44-0.81,0.99-1.47,1.66-1.97
		c0.67-0.5,1.7-0.95,3.09-1.34c1.39-0.4,2.74-0.59,4.03-0.59c1.29,0,2.29,0.04,3,0.13c0.71,0.08,1.68,0.28,2.91,0.59
		c1.23,0.31,2.25,0.91,3.06,1.78c0.81,0.87,1.25,1.8,1.31,2.78C239.21,181.13,239.24,182.54,239.24,184.37z"/>
	<path class="st4" d="M250.86,167.38l-0.38,22.92c0,7.16,0.23,11.45,0.69,12.87c0.13,0.25,0.19,0.5,0.19,0.75
		c0,0.5-0.6,0.75-1.81,0.75s-2.55-0.3-4.03-0.91c-1.48-0.6-2.22-1.38-2.22-2.34c0.83-5.83,1.25-13.62,1.25-23.36l-0.25-9.56
		c-0.08-1.17-0.32-2.16-0.72-3c-0.4-0.83-0.78-1.37-1.16-1.62l-0.5-0.31c-0.29-0.17-0.44-0.35-0.44-0.56c0-0.58,0.91-1.3,2.72-2.15
		c1.81-0.85,3.57-1.28,5.28-1.28c0.67,0,1.04,0.23,1.13,0.69C250.78,161.34,250.86,163.72,250.86,167.38z"/>
	<path class="st4" d="M266.35,203.98l0.13-0.69c0.42-0.75,0.77-3.8,1.06-9.15c0.29-5.35,0.44-10.35,0.44-14.99
		c0-4.64-0.09-8.37-0.28-11.18c-0.19-2.81-0.7-4.84-1.53-6.09c-0.17-0.21-0.25-0.46-0.25-0.75c0-0.29,0.25-0.54,0.75-0.75
		c3.41-1.33,8.06-2,13.93-2c1.46,0,3.04,0.2,4.75,0.59c1.71,0.4,3.11,0.89,4.22,1.47c1.1,0.58,2.1,1.48,3,2.69
		c0.9,1.21,1.41,2.65,1.53,4.31c0,6.04-2.5,9.52-7.5,10.43c-0.25,0.08-0.38,0.18-0.38,0.28c0,0.1,0.1,0.22,0.31,0.34
		c2.58,0.42,4.75,1.46,6.5,3.12c0.88,0.79,1.67,2.02,2.37,3.69c0.71,1.67,1.06,3.58,1.06,5.75c0,2.79-0.81,5.43-2.44,7.93
		c-1.33,2.04-3.27,3.5-5.81,4.37c-1.42,0.5-3,0.75-4.75,0.75c-4.37,0-7.14-1.4-8.31-4.19c-0.04-0.13-0.1-0.19-0.19-0.19l-0.25,0.25
		c-0.88,2.92-3.37,4.43-7.5,4.56C266.64,204.55,266.35,204.36,266.35,203.98z M275.53,175l0.06,7.81l-0.25,10.81
		c0.04,0.17,0.1,0.25,0.19,0.25c0.08,0,0.15-0.04,0.19-0.13c0.83-1.17,1.86-1.75,3.09-1.75c1.23,0,1.84,0.25,1.84,0.75
		c0,1.58,0.3,2.8,0.91,3.65c0.6,0.85,1.46,1.28,2.56,1.28c1.1,0,2.16-0.75,3.19-2.25c1.02-1.5,1.53-3.5,1.53-6
		c0-0.83-0.17-1.83-0.5-3c-0.67-2.33-1.92-3.89-3.75-4.68c-1.33-0.54-3.5-0.81-6.5-0.81c-0.33,0-0.5-0.23-0.5-0.69
		c0-2.33,0.42-3.54,1.25-3.62c1.12,0,2.31-0.29,3.56-0.87c2.5-1.17,3.75-3.56,3.75-7.18c0-3.91-2.25-5.87-6.75-5.87l-1.94,0.13
		c-0.75,0.17-1.17,0.48-1.25,0.94v0.19C275.76,165.61,275.53,169.3,275.53,175z"/>
	<path class="st4" d="M319.75,184.37l-0.13,8c0,5.54,0.6,8.87,1.81,9.99c0.17,0.17,0.25,0.35,0.25,0.56c0,0.62-1.34,0.94-4.03,0.94
		s-4.11-0.79-4.28-2.37c-0.04-0.37-0.06-1.15-0.06-2.31l0.25-9.99c0-0.29-0.17-0.44-0.5-0.44c-2,0-3.87,0.56-5.62,1.69
		c-1.75,1.12-2.62,2.56-2.62,4.31c0,0.92,0.25,1.69,0.75,2.31c0.5,0.62,1.11,0.94,1.84,0.94s1.33-0.15,1.81-0.44
		c0.48-0.29,0.76-0.46,0.84-0.5c0.71,0.08,1.06,0.82,1.06,2.22c0,1.4-0.65,2.52-1.94,3.37s-2.64,1.28-4.06,1.28
		c-1.42,0-2.63-0.25-3.65-0.75s-1.76-1.06-2.22-1.69c-0.46-0.62-0.83-1.33-1.13-2.12c-0.29-0.96-0.44-1.79-0.44-2.5
		c0-2.91,0.92-5.25,2.75-7c1.83-1.75,4.18-3,7.06-3.75c3.79-0.75,5.77-1.44,5.93-2.06c0.13-0.46,0.19-1.23,0.19-2.31
		c0-2.21-1.13-3.31-3.37-3.31c-0.96,0-1.81,0.3-2.56,0.91c-0.75,0.6-1.12,1.36-1.12,2.28l0.38,1.5c-0.08,0.71-0.83,1.12-2.25,1.25
		l-0.69,0.06c-1.25,0-2.24-0.31-2.97-0.94c-0.73-0.63-1.09-1.46-1.09-2.5c0-0.67,0.22-1.41,0.66-2.22c0.44-0.81,0.99-1.47,1.66-1.97
		c0.67-0.5,1.7-0.95,3.09-1.34c1.39-0.4,2.74-0.59,4.03-0.59c1.29,0,2.29,0.04,3,0.13c0.71,0.08,1.68,0.28,2.91,0.59
		c1.23,0.31,2.25,0.91,3.06,1.78c0.81,0.87,1.25,1.8,1.31,2.78C319.72,181.13,319.75,182.54,319.75,184.37z"/>
	<path class="st4" d="M331.37,167.38L331,190.31c0,7.16,0.23,11.45,0.69,12.87c0.13,0.25,0.19,0.5,0.19,0.75
		c0,0.5-0.6,0.75-1.81,0.75s-2.55-0.3-4.03-0.91c-1.48-0.6-2.22-1.38-2.22-2.34c0.83-5.83,1.25-13.62,1.25-23.36l-0.25-9.56
		c-0.08-1.17-0.32-2.16-0.72-3c-0.4-0.83-0.78-1.37-1.16-1.62l-0.5-0.31c-0.29-0.17-0.44-0.35-0.44-0.56c0-0.58,0.91-1.3,2.72-2.15
		c1.81-0.85,3.57-1.28,5.28-1.28c0.67,0,1.04,0.23,1.13,0.69C331.29,161.34,331.37,163.72,331.37,167.38z"/>
	<path class="st4" d="M344.05,167.38l-0.38,22.92c0,7.16,0.23,11.45,0.69,12.87c0.13,0.25,0.19,0.5,0.19,0.75
		c0,0.5-0.6,0.75-1.81,0.75s-2.55-0.3-4.03-0.91c-1.48-0.6-2.22-1.38-2.22-2.34c0.83-5.83,1.25-13.62,1.25-23.36l-0.25-9.56
		c-0.08-1.17-0.32-2.16-0.72-3c-0.4-0.83-0.78-1.37-1.16-1.62l-0.5-0.31c-0.29-0.17-0.44-0.35-0.44-0.56c0-0.58,0.91-1.3,2.72-2.15
		c1.81-0.85,3.57-1.28,5.28-1.28c0.67,0,1.04,0.23,1.13,0.69C343.97,161.34,344.05,163.72,344.05,167.38z"/>
</g>
<g>
	<path class="st4" d="M184.38,219.99c0.1,0,0.3,0.1,0.59,0.31c0.29,0.21,0.59,0.31,0.9,0.31h0.04c0.89,0,1.6-0.35,2.12-1.06
		s0.81-1.42,0.87-2.12l0.12-1.06c0-1-0.15-1.85-0.45-2.58c-0.3-0.72-0.65-1.26-1.04-1.61c-0.39-0.35-0.85-0.62-1.38-0.81
		c-0.66-0.26-1.34-0.39-2.06-0.39c-0.72,0-1.3,0.07-1.75,0.22c-0.45,0.14-0.69,0.28-0.75,0.41l-0.04,0.24
		c-0.24,3.54-0.35,6.71-0.35,9.5s0.05,5.2,0.14,7.22c0.09,2.02,0.18,3.57,0.28,4.66c0.09,1.09,0.14,1.68,0.14,1.79
		c0,0.66-0.58,1.18-1.73,1.57c-1.15,0.39-2.29,0.59-3.42,0.59c-0.52,0-0.79-0.13-0.79-0.39c0-0.08,0.04-0.26,0.12-0.55
		c0.5-1.15,0.75-6.51,0.75-16.08c0-5.64-0.38-8.86-1.14-9.67c-0.16-0.16-0.24-0.32-0.24-0.49s0.19-0.36,0.57-0.57
		c0.38-0.21,1.45-0.45,3.21-0.73c1.76-0.28,3.62-0.41,5.58-0.41c3.09,0,5.42,0.84,6.98,2.52c1.56,1.68,2.34,3.68,2.34,6
		c0,2.32-0.64,4.33-1.91,6.04c-1.27,1.71-2.93,2.56-4.98,2.56c-0.66,0-1.31-0.12-1.97-0.35c-1.31-0.47-1.97-1.46-1.97-2.95
		c0-0.31,0.1-0.74,0.31-1.28C183.68,220.26,183.98,219.99,184.38,219.99z"/>
	<path class="st4" d="M206.08,231.08c0,1.13-0.22,2.11-0.65,2.95c-0.43,0.84-0.92,1.46-1.48,1.85c-0.55,0.39-1.21,0.71-1.97,0.94
		c-1,0.32-1.9,0.47-2.71,0.47c-1.7,0-3.12-0.33-4.25-1c-1.13-0.67-1.69-1.74-1.69-3.21c0-0.87,0.24-1.57,0.71-2.12
		c0.73-0.81,1.61-1.22,2.63-1.22c0.31,0,0.47,0.14,0.47,0.43c0,0.03-0.06,0.23-0.18,0.61c-0.12,0.38-0.18,0.86-0.18,1.44
		c0,0.58,0.23,1.09,0.69,1.53c0.46,0.45,1.02,0.67,1.67,0.67s1.18-0.11,1.57-0.33c0.39-0.22,0.67-0.5,0.83-0.85
		c0.24-0.47,0.35-0.92,0.35-1.34c0-0.76-0.38-1.42-1.14-1.97c-0.76-0.55-1.6-0.98-2.52-1.3c-0.92-0.31-1.76-0.84-2.52-1.57
		c-0.76-0.73-1.14-1.65-1.14-2.75c0-1.89,0.6-3.3,1.79-4.25c1.19-0.94,2.81-1.42,4.86-1.42c0.89,0,1.83,0.13,2.81,0.37
		c0.98,0.25,1.47,0.67,1.47,1.26s-0.1,1.13-0.29,1.63s-0.44,0.75-0.73,0.75c-0.16,0-0.26-0.06-0.31-0.18
		c-0.05-0.12-0.14-0.26-0.28-0.41c-0.13-0.16-0.45-0.36-0.94-0.61c-0.5-0.25-0.92-0.37-1.28-0.37c-0.35,0-0.59,0.01-0.71,0.02
		c-0.12,0.01-0.32,0.05-0.61,0.12c-0.29,0.07-0.55,0.16-0.79,0.29c-0.6,0.34-0.9,0.84-0.9,1.49c0,0.42,0.09,0.73,0.28,0.92
		c0.18,0.2,0.33,0.35,0.43,0.45c0.1,0.11,0.29,0.23,0.55,0.37c0.26,0.14,0.45,0.24,0.55,0.29c0.1,0.05,0.34,0.16,0.71,0.33
		c0.37,0.17,0.6,0.28,0.71,0.33C204.69,227.04,206.08,228.82,206.08,231.08z"/>
	<path class="st4" d="M214.62,247.36c0,0.31-0.16,0.47-0.47,0.47h-0.04c-0.87,0-1.84-0.3-2.93-0.9c-1.09-0.6-1.63-1.3-1.63-2.08
		c0-0.79,0.5-2.16,1.49-4.11c1-1.95,1.49-3.26,1.49-3.91c0-0.71-0.34-1.98-1.02-3.81c-0.87-2.38-1.55-4.33-2.06-5.82
		s-1.06-2.81-1.65-3.95s-1.02-1.82-1.28-2.03l-0.39-0.28c-0.29-0.16-0.43-0.33-0.43-0.51c0-0.37,0.57-0.74,1.71-1.12
		c1.14-0.38,2.14-0.57,3.01-0.57c0.39,0,0.72,0.31,0.98,0.94c0.47,1.23,0.98,2.94,1.53,5.11c1.34,4.46,2.18,6.69,2.52,6.69
		c0.24,0,0.71-0.92,1.44-2.75c0.72-1.83,1.08-3.32,1.08-4.44c0-1.97-0.58-3.12-1.73-3.46c-0.26-0.05-0.39-0.18-0.39-0.39
		c0-0.47,0.62-0.92,1.85-1.36c1.23-0.43,2.35-0.65,3.34-0.65c0.87,0,1.3,0.56,1.3,1.69c0,0.87-0.18,1.88-0.55,3.03
		c-0.37,1.15-0.71,2.07-1.02,2.73c-0.31,0.67-1.1,2.22-2.34,4.64c-1.25,2.43-2.28,4.56-3.09,6.39c-0.89,2.2-1.34,4.44-1.34,6.72
		c0,1.21,0.1,2.11,0.31,2.71C214.51,246.94,214.62,247.28,214.62,247.36z"/>
	<path class="st4" d="M235.82,231.94c0,1.49-0.6,2.73-1.79,3.72c-1.19,0.98-2.62,1.48-4.27,1.48c-2.41,0-4.18-0.73-5.31-2.18
		c-1.13-1.46-1.69-3.43-1.69-5.92c0-2.65,0.59-4.99,1.77-7.04c0.58-1.05,1.4-1.87,2.48-2.48c1.08-0.6,2.33-0.9,3.78-0.9
		c2.18,0,3.71,0.73,4.6,2.2c0.37,0.6,0.55,1.31,0.55,2.12c0,1.26-0.53,2.2-1.57,2.83c-0.42,0.24-0.81,0.35-1.16,0.35
		c-0.36,0-0.64-0.02-0.87-0.06c-0.22-0.04-0.52-0.22-0.88-0.53c-0.37-0.31-0.55-0.75-0.55-1.3c0.03-0.29,0.25-0.52,0.67-0.71
		c0.39-0.24,0.59-0.66,0.59-1.26c0-1.02-0.63-1.53-1.89-1.53c-0.31,0-0.69,0.14-1.12,0.41c-0.43,0.28-0.79,0.63-1.08,1.06
		c-0.29,0.43-0.56,1.11-0.81,2.04s-0.37,1.82-0.37,2.67c0,0.85,0.03,1.5,0.1,1.93s0.21,1.02,0.43,1.77
		c0.22,0.75,0.64,1.36,1.26,1.83c0.62,0.47,1.38,0.71,2.3,0.71c1.1,0,2.07-0.46,2.91-1.38c0.34-0.37,0.62-0.81,0.83-1.34
		c0.1-0.21,0.24-0.32,0.39-0.32c0.24,0,0.41,0.22,0.53,0.65S235.82,231.6,235.82,231.94z"/>
	<path class="st4" d="M242.58,215.35l-0.04,3.81c0,0.16,0.05,0.24,0.16,0.24c0.1,0,0.21-0.04,0.31-0.12
		c0.66-0.45,1.69-0.67,3.11-0.67c2.39,0,4.04,0.81,4.96,2.44c0.34,0.6,0.51,1.4,0.51,2.4c0,1-0.06,2.37-0.18,4.13
		c-0.12,1.76-0.18,3-0.18,3.74c0,2.57,0.37,4.27,1.1,5.11c0.13,0.13,0.2,0.26,0.2,0.39c0,0.26-0.56,0.39-1.69,0.39
		c-3.04,0-4.56-1.42-4.56-4.25c0-1.1,0.26-2.65,0.79-4.64c0.52-1.99,0.79-3.46,0.79-4.4c0-0.94-0.22-1.67-0.67-2.18
		c-0.45-0.51-1.06-0.77-1.85-0.77s-1.41,0.17-1.87,0.51c-0.46,0.34-0.74,0.7-0.85,1.06l-0.12,0.51c-0.03,0.5-0.04,2.08-0.04,4.76
		c0,2.67,0.07,4.41,0.2,5.21c0.13,0.8,0.2,1.25,0.2,1.36c0,0.76-0.51,1.44-1.53,2.03s-2.03,0.88-3.03,0.88
		c-0.37,0-0.55-0.21-0.55-0.63l0.08-0.75c0.58-4.4,0.87-9.18,0.87-14.31c0-1.99-0.08-4.01-0.24-6.06l-0.04-0.87
		c-0.05-0.73-0.2-1.36-0.45-1.89c-0.25-0.52-0.48-0.87-0.69-1.02l-0.35-0.2c-0.18-0.1-0.28-0.22-0.28-0.35
		c0-0.37,0.62-0.82,1.85-1.36c1.23-0.54,2.18-0.81,2.85-0.81c0.67,0,1.03,0.14,1.08,0.43C242.53,210.82,242.58,212.78,242.58,215.35
		z"/>
	<path class="st4" d="M254.61,235.29l0.43-9.16c0-2.18-0.25-3.66-0.75-4.44c-0.16-0.26-0.34-0.46-0.55-0.59
		c-0.16-0.05-0.24-0.16-0.24-0.31c0-0.47,0.67-0.93,2.01-1.38c1.34-0.45,2.31-0.67,2.93-0.67c0.62,0,0.94,0.16,0.96,0.47
		c0,0.53-0.07,2.01-0.22,4.46c-0.14,2.45-0.22,5.03-0.22,7.73c0,2.7,0.16,4.38,0.47,5.03c0.08,0.13,0.12,0.26,0.12,0.39
		c0,0.34-0.5,0.51-1.49,0.51s-2.02-0.26-3.07-0.79C254.74,236.41,254.61,235.99,254.61,235.29z M257.76,215.43l-0.94-0.04
		c-0.71,0-1.17,0.17-1.38,0.51c-0.05,0.08-0.12,0.12-0.2,0.12c-0.34,0-0.51-0.58-0.51-1.75s0.18-1.91,0.53-2.22
		c0.35-0.31,0.97-0.47,1.85-0.47c0.88,0,1.47,0.15,1.79,0.45c0.31,0.3,0.47,0.81,0.47,1.51c0,0.71-0.12,1.2-0.35,1.47
		C258.78,215.29,258.36,215.43,257.76,215.43z"/>
	<path class="st4" d="M274.83,231.94c0,1.49-0.6,2.73-1.79,3.72c-1.19,0.98-2.62,1.48-4.27,1.48c-2.41,0-4.18-0.73-5.31-2.18
		s-1.69-3.43-1.69-5.92c0-2.65,0.59-4.99,1.77-7.04c0.58-1.05,1.4-1.87,2.48-2.48c1.07-0.6,2.33-0.9,3.78-0.9
		c2.18,0,3.71,0.73,4.6,2.2c0.37,0.6,0.55,1.31,0.55,2.12c0,1.26-0.52,2.2-1.57,2.83c-0.42,0.24-0.81,0.35-1.16,0.35
		c-0.35,0-0.64-0.02-0.87-0.06c-0.22-0.04-0.52-0.22-0.88-0.53c-0.37-0.31-0.55-0.75-0.55-1.3c0.03-0.29,0.25-0.52,0.67-0.71
		c0.39-0.24,0.59-0.66,0.59-1.26c0-1.02-0.63-1.53-1.89-1.53c-0.31,0-0.69,0.14-1.12,0.41s-0.79,0.63-1.08,1.06
		s-0.56,1.11-0.81,2.04c-0.25,0.93-0.37,1.82-0.37,2.67c0,0.85,0.03,1.5,0.1,1.93s0.21,1.02,0.43,1.77
		c0.22,0.75,0.64,1.36,1.26,1.83c0.62,0.47,1.38,0.71,2.3,0.71c1.1,0,2.07-0.46,2.91-1.38c0.34-0.37,0.62-0.81,0.83-1.34
		c0.1-0.21,0.24-0.32,0.39-0.32c0.24,0,0.41,0.22,0.53,0.65C274.77,231.22,274.83,231.6,274.83,231.94z"/>
</g>
</svg>
