<svg id="Layer_1" data-name="Layer 1" xmlns="http://www.w3.org/2000/svg" viewBox="0 0 358.18 360"><defs><style>.cls-1{fill:#fff;opacity:0.29;}</style></defs><title>smb</title><path class="cls-1" d="M319.76,98c.06.25.07.41.1.58v0A4.86,4.86,0,0,0,319.76,98Z" transform="translate(-0.77 -0.38)"/><path class="cls-1" d="M339.76,96a24.24,24.24,0,0,1-1,10.83c-2.84,8.66-9,16.12-14.71,23.08a153.29,153.29,0,0,1-11.68,12.77c3.1,0,6.19.07,9.29.28,13.16.87,26.75,4.36,37.31,12.05A178.56,178.56,0,0,0,339.76,96Z" transform="translate(-0.77 -0.38)"/><path class="cls-1" d="M349.84,198.79a35.77,35.77,0,0,0,2.41-4.21l.08-.16c0-.09.05-.18.11-.35.3-.95.55-1.92.82-2.88.06-.26.11-.53.17-.79,0-.09,0-.15,0-.27,0-.82.06-1.64,0-2.46,0-.14-.08-.82-.13-1.32s-.59-2.34-.53-2.15a20.31,20.31,0,0,0-.74-2.11c-.1-.17-.23-.39-.43-.7-.44-.68-.85-1.41-1.26-2.11,0-.08-.59-.87-.66-1-4.07-5.21-8.92-7.95-15.49-9.88-7.84-2.3-15.34-2.66-23.77-2.51a140.44,140.44,0,0,0-49.72,10.47c-5.25,2.18-11.25-1.91-13.28-6.52s-.47-11.87,4.6-14.05c.9-.38,1.81-.71,2.71-1.08l0-.05a137.69,137.69,0,0,0,39-23.46,140.32,140.32,0,0,0,15.68-15.92c2-2.36,3.84-4.78,5.62-7.3.95-1.35,1.93-2.71,2.78-4.13.22-.36,1.65-3.51,1.28-2.46l.07-.22c-1.81.12-3.81.32-4.49.39a92.87,92.87,0,0,0-18.44,4,102.14,102.14,0,0,0-51.38,37.64c0,9.5,0,19,.77,28.17a313.74,313.74,0,0,0,7.4,47.31c1.4,5.95,3,11.82,4.74,17.66,6-1.57,12.32-2.39,18.34-3.69,9.12-2,18.2-4.2,27.1-7a154.21,154.21,0,0,0,21.62-8.42A122.75,122.75,0,0,0,336,211.08c1.62-1,3.2-2.07,4.74-3.2l.36-.26.28-.23c.67-.54,1.31-1.09,1.95-1.66a54.87,54.87,0,0,0,4.09-4c-.22.23,1.14-1.36,1.54-1.8Z" transform="translate(-0.77 -0.38)"/><path class="cls-1" d="M319.89,98.76h0v0Z" transform="translate(-0.77 -0.38)"/><path class="cls-1" d="M83.8,187.58,77.16,200.2A251.53,251.53,0,0,0,63.1,230.79c-5.28,14.52-12.84,35.67-1.86,49.49,8.55,10.77,25.32,11.2,37.05,6.19a46.86,46.86,0,0,0,27-33.33c2.89-14.78-3.46-29.1-12-40.15A99.68,99.68,0,0,0,83.8,187.58Z" transform="translate(-0.77 -0.38)"/><path class="cls-1" d="M309.63,248.92c-9.33,3.06-18.86,5.51-28.45,7.64-4.81,1.08-9.64,2-14.48,3l-1.82.38c.68,2.22,1.36,4.44,2,6.67a10.69,10.69,0,0,1-6.2,12.63c-4.46,2-11.15.39-13.37-4.38-14-30.18-19.55-65-21.43-98-.39-6.73-.45-13.44-.39-20.14-3.44-2.61-4-7.16-2.21-11,.81-1.73,1.69-3.43,2.59-5.11q.19-5.33.44-10.66c.46-10.38.66-21.21-1.33-31.54-2,6.1-2.51,13.21-3.37,18.62-2.18,13.75-3.76,27.59-5.76,41.37-4.14,28.66-8.16,57.55-13.67,86-1.09,5.65-7.28,8.8-12.51,8.17-5.84-.69-9.52-5.56-9.89-11.2-1.77-26.65-4.07-53.28-6.11-79.91q-1.55-20.19-3.14-40.37c-.19-2.41-.37-4.93-.67-7.43a330.12,330.12,0,0,0-12.93,38.29q-3.94,14.67-6.57,29.66c-1.74,10-2.28,20.14-4,30.11-.66,3.83-4,6.38-7.55,7.31a71.53,71.53,0,0,1,4.19,25,64.85,64.85,0,0,1-20.87,46.27c-13.25,12-30.81,18.32-48.66,15.21-18.13-3.15-30.58-18-32.19-36-1.58-17.61,6.13-35,14.92-49.78,5.32-8.93,10.07-18.19,15.47-27.08,1.76-2.92,3.61-5.74,5.5-8.52-.55-.28-1.07-.58-1.62-.85-17-8.5-35.42-13.75-53.34-19.95-6.6-2.29-13.24-4.65-19.73-7.33A180,180,0,0,0,354.64,227C341.38,237.12,325.28,243.79,309.63,248.92Z" transform="translate(-0.77 -0.38)"/><path class="cls-1" d="M84.36,86.79c11.32,2.2,8.43,20-2.67,19.76-19.2-.42-37.72,2.91-54.2,12.11A82.33,82.33,0,0,0,8.36,132.92c.48.2,1,.43,1.43.64,4.29,1.87,9.1,3.71,13.71,5.42,22.49,8.3,46.29,15.29,67.18,26.9,1.27-.73,2.85.4,3.14,1.83a111.11,111.11,0,0,1,30.63,25.74c-.07-15.37,2.29-30.76,4.63-45.88,2.77-17.91,4.95-35.88,5.35-54a9.92,9.92,0,0,0-3.66,3.7,25.75,25.75,0,0,0-3.57,10.45c-.13.94-1.77.71-1.66-.23a28.51,28.51,0,0,1,3.61-11.17,54.67,54.67,0,0,0,3.42-6.3c.85-2,1.45-3.78,3.17-5.13,2.57-2,5.86-1.32,7,1.86,3.62,9.87,4.84,20.09,4.92,30.39q6.19-15.64,13.81-30.68c2.88-5.67,10.41-5.62,14.64-1.89,9.08,8,11.7,19.71,13.11,31.18,1.67,13.52,2.86,27.12,4.3,40.67.13,1.18.25,2.37.38,3.55.72-3.78,1.45-7.58,2.18-11.36,1.45-7.57,3-15.11,4.63-22.65,1.28-6.08,2-12.31,3.76-18.28,3.49-11.8,8.73-22.23,18-30.54,3.33-3,9.15-2.88,11.45,1.47,6.17,11.71,8.81,24.33,10,37.27a116.31,116.31,0,0,1,15.23-13.2A114.22,114.22,0,0,1,303.5,83.19c8.35-1.65,20-4.36,27.9.06a15.32,15.32,0,0,1,1.47.93,180,180,0,0,0-310.71,11C41.68,86.25,63.88,82.83,84.36,86.79Z" transform="translate(-0.77 -0.38)"/><path class="cls-1" d="M322,101.1c.3.19.51.28.47.14S322.27,101.13,322,101.1Z" transform="translate(-0.77 -0.38)"/></svg>