<?xml version="1.0" encoding="utf-8"?>
<!-- Generator: Adobe Illustrator 23.0.6, SVG Export Plug-In . SVG Version: 6.00 Build 0)  -->
<svg version="1.1" id="Layer_1" xmlns="http://www.w3.org/2000/svg" xmlns:xlink="http://www.w3.org/1999/xlink" x="0px" y="0px"
	 viewBox="0 0 432 432" style="enable-background:new 0 0 432 432;" xml:space="preserve">
<style type="text/css">
	.st0{fill:#69933E;}
	.st1{opacity:0.5;fill:#8FC640;enable-background:new    ;}
	.st2{fill:#261710;}
	.st3{enable-background:new    ;}
	.st4{fill:#FFFFFF;}
</style>
<rect x="-0.18" y="0.18" class="st0" width="432" height="432"/>
<path class="st1" d="M431.82,388.78c-22.72,1.98-45.71-4.52-67.73-9.42c-29.6-6.5-57.6-18.9-85.8-29.8c-27.2-10.6-54.8-20.5-80-35.4
	c-11.2-6.6-22.1-13.8-33.5-20c3.8,0.8,7.6,1.7,11.3,2.6c27.4,6.7,51.7,21.5,79.4,27.1c28,5.7,56.7,5.9,85.2,4.9
	c14.1-0.5,28.1-1.3,42.2-2c13.4-0.6,26.8-0.6,40.1-1c1.7,7.9,4.9,15.3,8.5,22.7c0.11,0.23,0.22,0.46,0.33,0.68V277.7
	c-5.14,11.34-9.05,23.17-9.63,35.97c-0.1,3.2,0,6.3,0.5,9.3c-26.6-2.5-53.8-0.1-80.4,0.5c-29.2,0.6-58.5-0.1-87.2-6.1
	c-13.9-2.9-26.8-8.2-39.8-13.7c-12.9-5.5-25.8-10.3-39.5-13.6c-12.6-3.1-25.4-5.7-38.4-7.4c-2.3-0.6-4.5-1.2-6.9-1.7
	c-3.9-0.8-7.9-0.7-11.8-0.7c-0.6,0-1,0.2-1.3,0.6c-1.3-0.1-2.6-0.1-4-0.1c-1.8-0.3-3.5-0.5-5.3-0.7c12.2-1.1,24.5-1.3,36.8-1.2
	c30.1,0.3,60.2,2.1,90.3,2.4c31.5,0.3,63,1.4,94.4-0.1c29.3-1.4,57.6-8.4,86.5-13c5.2-0.87,10.46-1.62,15.73-2.21v-3.15
	c-23.24,0.92-46.32,6.51-69.23,9.76c-30.3,4.4-61.3,3.6-91.9,3s-61.3-0.7-91.9-2.1c-24.3-1.2-48.7-2.2-73,0.1
	c13.6-3.2,27.6-5.2,41.4-7.4c14.1-2.3,27.9-6,42-8.8c14.6-2.8,29.4-4.4,44.3-5.2c14.4-0.7,28.8-0.2,43.2-0.7
	c14.1-0.5,28.2-1.7,42.2-3.5c28.2-3.6,56.2-9.9,82.8-19.7c10.26-3.77,20.39-8.2,30.13-13.35v-5
	c-40.86,20.35-86.39,30.32-131.93,34.05c-28.8,2.3-57.7,0.2-86.4,3.2c-14.6,1.5-29.1,4.3-43.4,7.7c-13.8,3.3-27.8,5.4-41.8,7.6
	c-10.6,1.7-21.5,3.5-32,6.4c4.9-2.7,10-5,15.3-7c14.9-5.7,30.8-8.6,46.4-11.5c15.1-2.8,30.1-5.8,44.8-10.2
	c15.2-4.6,30-10.4,44.6-16.6c29.5-12.5,58.4-26.2,87.9-38.6c2.1-0.9,4.2-1.8,6.3-2.7c0.7,1.1,1.5,2.2,2.5,3.2
	c11.1,12,32.6,2.7,45.3-1.7c13.44-4.72,27.92-10.14,42.43-10.71v-8.68c-17.47,0.76-37.22,8.84-50.53,13.59
	c-7.5,2.7-15.7,5.9-23.7,5.4c-9.1-0.6-12.2-8.3-13.2-16.3c-1.6-11.8,0.2-23,7.7-32.5c6.7-8.5,15.8-15,23.6-22.5
	c9.6-9.2,27.2-26.3,19.7-41.1c-8.1-16-30-9.6-43.9-11.3c-8.6-1.1-14.2-6.7-16.3-15c-1.8-7.1,0.4-15,1-22.1
	c0.6-6.6-0.2-13.2-4.2-18.7c-1.02-1.38-2.2-2.6-3.49-3.69h-5.7c4.13,2.77,7.43,6.43,8.79,11.49c1.9,7.2-0.7,15.4-1.4,22.6
	c-0.9,7.9,0.2,15.5,4.9,22.1c2.9,4.1,7.1,6.5,11.7,7.8c-8.5,8.4-13.2,19.6-20.4,29.1c-8.8,11.7-21.7,19.7-34,27.3
	c-27,16.6-54,33.2-81.9,48.4c-13.5,7.3-26,14.9-38.1,24.4c-11.7,9.2-23.2,18.6-36.3,25.7c-11.4,6.1-23.2,10-32.8,18.9
	c-3.6,3.3-6.4,7.1-9,11.1c0-0.1,0.1-0.3,0.1-0.4c1-2.4,2-4.9,3.1-7.2c5.5-11.6,12.6-22.2,21.3-31.7c9.8-10.7,22-19,33.1-28.2
	c11.8-9.8,23.5-19.8,36-28.9c11.7-8.5,23.9-15.7,34.6-25.5c10.6-9.8,19.8-21,28.6-32.3c8.6-11,16.6-22.3,26.4-32.3
	c9.6-9.7,20.1-18.5,29.9-28.1c7.9-7.7,15.1-16,20.9-25.5c0.7-1.2-1.2-2.5-2.1-1.4c-16.3,22.2-39.3,37.7-57.9,57.7
	c-9.6,10.3-17.6,22.1-26.4,33c-9.3,11.4-19.3,22.3-30.8,31.5c-11.6,9.4-25,16.6-36.9,25.7c-12.2,9.3-23.9,19.4-36,29
	c-10.5,8.4-20.7,16.3-29.4,26.6c-4,4.8-7.6,10-10.8,15.3c0.6-5.6,0.8-11.2,0.7-16.8c0.2-0.6,0.5-1.2,0.8-1.7c5.8-12.8,16.4-23,25-34
	c9.7-12.5,19.1-25.4,28.5-38.1c9.2-12.4,18.3-24.6,29.1-35.5c10.4-10.4,21.6-20,31.8-30.5c9.4-9.7,17-20.3,23.5-32.2
	c6.5-12,12.3-24.4,20.1-35.6c0.4-0.6,0.82-1.19,1.24-1.79h-3.06c-13.81,16.47-21.33,38.08-34.78,54.89
	c-9.2,11.4-20.5,21.1-31.3,30.9c-11.1,10-21.5,20.4-30.7,32.2c-9.8,12.5-19.2,25.3-28.9,38c-9.4,12.2-19.6,23.7-29,35.9
	c-1.1,1.4-2.1,2.9-3,4.3c-0.1-1.3-0.3-2.6-0.5-3.9c4.8-21.2,12.6-41.7,22.2-61.2c10.9-22.3,24.9-42.8,37.8-63.9
	c11.9-19.5,24.2-40.6,28.8-63.3c4.2,1.2,8.3,2.5,12.4,3.6c7.9,2.1,15.9,2.4,23.9,0.7c7.41-1.53,14.31-5.31,21.32-8.19H171.3
	c4.28,0.78,8.56,1.94,12.79,3.19c-8.8,22.2-19.4,42.9-32.3,63.1c-13.7,21.4-28.2,42.1-39.6,64.8c-7.3,14.6-13.4,29.9-18,45.6
	c-1.3-4.9-2.9-9.8-4.7-14.5c-0.1-0.6-0.2-1.3-0.4-1.9c-1.9-10-3.6-20.2,0.2-30c2.1-5.3,5.9-9.7,9-14.3c3-4.5,5.8-9.2,8.2-14.1
	c4.5-9.2,7.2-19.1,8.5-29.2s0.8-20.2,0.9-30.3c0-0.9,0-1.9,0-2.9c3-4.2,5.2-9,7.7-13.4c4.9-8.7,10.7-16.7,19.3-22
	c3.19-1.99,6.47-3.3,9.81-4.09h-20.78c-3.61,2.92-6.87,6.32-9.73,10.09c-1.4,1.9-2.7,3.9-4,6c-2,2.5-3.5,5.3-4.6,8.3
	c-2.2,4.1-4.6,8.1-7.5,11.7c-6.9,8.6-19.8,6.9-29.4,5.2c-11.8-2-23.1-6.4-35.1-7.9C27.77,31.9,12.35,35.1-0.18,42.54v12.34
	c4.73-3.52,10.25-6.2,15.47-8.21c0.9-0.4,1.9-0.7,2.8-1c2.3,13.1,5.2,26.2,9.1,38.9c4.3,14,11.4,26.2,18.8,38.7
	c14.4,24.1,27,49.2,33.1,76.7c1.9,8.4,2.5,17.2,2.1,26.1c-3.2,13.5-7.9,26.6-13.2,39.7c-0.7,1.8,0.1,3.3,1.5,3.9
	c-2.1,3.9-4.6,7.6-7.4,11.1c3.1-9.2,4.8-19,6-28.3c3.4-27.2-5-54.7-13.8-80.1c-3.5-10.1-7.1-20.3-10.9-30.3
	c-3.8-10.1-9.4-19.4-15.6-28.3c-6.3-9.1-12.4-18.1-17.6-27.9c-3.17-5.93-6.4-12.08-10.37-17.61v8.06
	c3.9,7.12,7.47,14.42,11.27,21.64c6.7,12.7,16,23.8,22.2,36.8c6.1,12.7,10.1,26.6,14.6,39.9c4.7,13.6,8.9,27.4,11.5,41.6
	c4.3,23.4,2.3,49-7.7,70.8c-1.1,0.4-2.2,0.8-3.3,1.2c0.3-0.4,0.6-0.9,0.9-1.3c13.7-20.3,2.9-47.1-6.2-67
	c-6.5-14.3-14.3-27.8-21.2-41.9c-6-12.3-10.9-25-16.9-37.2c-1.64-3.38-3.4-6.92-5.17-10.6v24.88c8.52,18.27,17.14,36.47,26.47,54.42
	c7.3,14,13.7,28.5,17.4,43.9c2.2,9.3,2.2,18.6-2.7,27c-7.9,13.39-26.6,18.82-41.17,22.97v32.81c26.76-3.58,55.21-1.86,78.57,12.72
	c20.1,12.5,34,33.3,46.9,52.5c6.77,10.08,13.3,20.36,19.74,30.71h13.56c-4.78-7.67-9.59-15.32-14.5-22.91
	c-13.4-20.6-27-41.9-45.2-58.7c-21.6-19.9-47.8-26.9-75-26.9c0.8-0.4,1.6-0.8,2.4-1.2c2-0.4,3.9-0.7,6-0.8c6-0.5,12,0.4,17.8,1.8
	c11.8,2.8,22.9,8.5,33.1,14.8c21.9,13.5,40.1,32,56.4,51.8c11.13,13.54,21.37,27.76,31.47,42.11h7.19
	c-28.18-40.3-58.28-81.57-102.67-105.01c-9.7-5.1-20.3-9.1-31.2-10.7c-2.2-0.3-4.6-0.6-7-0.7c0.3-0.2,0.6-0.5,1-0.7
	c5.1-1.2,10.4-1.9,15.7-1.9c9,0,18,2.2,26.3,5.5c17.8,7,33.2,19.5,46.9,32.6c14.1,13.5,26.7,28.6,39.1,43.7
	c10.08,12.36,20.08,24.67,29.85,37.21h7.39c-9.25-12.01-18.72-23.84-28.34-35.61c-12-14.7-24.1-29.4-37.4-43.1
	c-15.6-16-36.7-33.6-59.5-41.9c0.1,0,0.1,0,0.2,0c12.7,2.8,24.2,9.4,35.1,16.2c12.3,7.6,23.8,16.4,34.8,25.7
	c22.7,19,43.4,40.4,62.7,62.8c4.5,5.25,8.9,10.56,13.24,15.91h6.86c-24.31-30.31-50.42-59.01-80.4-84.11
	c-16.4-13.7-34-26.2-53.2-35.6c-14.7-7.2-31.3-9.2-47.5-8.8c0.6-0.7,1.1-1.4,1.6-2.1c0.2-0.2,0.4-0.4,0.6-0.6
	c9.4,0.3,18.8,1.6,28,3.8c23.3,5.5,44.9,17,64.6,30.2c39.08,26.31,72.79,60.49,102.41,97.21h7.01
	c-31.68-39.8-67.56-76.89-110.22-104.91c-20-13.1-41.8-23.8-65.2-29.1c-5.6-1.3-11.5-2.3-17.6-2.9c0.6-0.4,1.2-0.8,1.8-1.2
	c8.6-0.4,17.3,0.5,25.8,2.1c23.8,4.4,46.2,15.1,66.7,27.7c44.9,27.5,77.3,69,112.5,107.2c0.34,0.37,0.68,0.74,1.02,1.11h7.17
	c-0.1-0.1-0.19-0.2-0.29-0.31c-18.7-20.4-36.5-41.8-55.6-61.8c-32.9-34.4-73-64.3-119.4-77.4c-8.7-2.4-18.4-4.2-28.2-4.8
	c4.4-0.9,8.8-1.5,13.3-1.9c2.5-0.2,5-0.3,7.5-0.3c0.5,0.5,1.1,0.9,2,0.9c5.4,0.2,10.7,0.3,16.1,0.6c18.5,3.1,35.7,11,51.2,22.2
	c10.3,7.4,20,15.8,29.7,23.9c10.1,8.4,20.7,15.9,31.2,23.7c22.1,16.5,42.7,35,63.7,52.9c8.97,7.59,18.1,15.1,27.46,22.31h9.34
	c-24.78-18.97-48.1-39.98-72.1-60.11c-17.2-14.5-35.4-27.7-52.9-41.8c5.1,3.8,10.3,7.5,15.7,11c19.9,13,41.4,23.3,61.5,36
	c19.2,12.1,39.3,22.5,60,31.7c19.3,8.6,39.1,16.6,59.4,22.6c-0.02,0.2-0.03,0.41-0.05,0.61h10.48c0.14-1.21,0.32-2.41,0.57-3.61
	c1.9-9.6,9.9-15.3,17.6-20.3c2.46-1.62,4.9-3.22,7.23-4.91v-14.57H431.82z M81.89,262.37c-1.1,2.1-2.3,4.1-3.7,6.1
	c1.5-3,2.8-6.2,3.9-9.5C81.99,260.07,81.99,261.27,81.89,262.37z M85.59,196.67c-5-23.4-15.9-45.6-28.1-65.9
	c-8.1-13.5-17.4-26.3-23.3-41c-5.6-13.9-8.2-28.6-13-42.7c-0.2-0.7-0.5-1.3-0.7-2c9.7-2.7,19.6-2.2,29.8,0.1
	c-8.2,8.8-4.5,25.8-1.6,36.3c6.4,23.3,19.4,44.2,29.5,66c1,2.3,2,4.5,3,6.8c1.3,10.5,4.1,21.1,4.5,31
	C85.79,189.07,85.79,192.87,85.59,196.67z M85.49,123.97c-3.3,5.6-4.7,11.5-5,17.5c-6.2-12.8-13.2-25.3-19.3-38.2
	c-7.1-14.7-16-34.1-12.1-50.7c0.6-2.7,1.9-5,3.7-6.9c18.1,4.4,42.4,13.4,58-0.1c-0.1,5.9,0.1,11.7-0.1,16.8
	c-0.6,11.1-2.9,22-7.2,32.2C98.99,105.47,91.39,113.97,85.49,123.97z M340.49,180.47c-14.4,3.6-28.3,10-42,15.7
	c-14.7,6.1-29.3,12.7-44,19c-29.7,12.7-59.6,22.8-91.5,28.1c-15,2.5-30.1,5.2-44.7,9.6c-2.3,0.7-4.6,1.4-6.8,2.2
	c0.1-0.1,0.2-0.1,0.3-0.2c9.1-7,18.8-13.1,28.8-18.8c20.8-12,42.7-22.4,64.7-32c24.2-10.5,49-18.8,72.1-31.6
	c21.1-11.7,41.6-24.3,63.6-34.4c-3.5,7-4.9,14.8-4.7,23C336.39,167.77,337.29,174.67,340.49,180.47z M95.49,259.37
	c4.2-7.3,8.5-14.3,15.4-19.9c10.2-8.3,23.6-12,34.8-18.8c12.7-7.6,24-17.6,35.7-26.6c12.2-9.4,25.8-16.4,39.1-24
	c14-8,27.9-16.3,41.6-24.8c13-8.1,25.9-16.2,38.7-24.5c11.5-7.5,22.5-16,30.4-27.4c6.3-9.1,10.4-19.7,17.2-28.6
	c2.2,0.3,4.4,0.6,6.5,0.8c8.2,0.5,16.7-0.7,24.7,1.3c4.2,1,8.6,3.8,10.2,7.9s-0.8,8.8-2.7,12.4c-9.5,18.1-29.1,27.9-41.5,43.6
	c-1.4,1.7-2.6,3.5-3.6,5.4c-22.4,7.4-43,19.9-63.7,31c-24.6,13.2-51,21.6-76.7,32.4c-21.5,9-42.9,19-63.2,30.3
	c-10.5,5.9-20.7,12.3-30.4,19.6C103.89,252.57,99.59,255.87,95.49,259.37z M162.09,300.97c-2.6-1.7-5.1-3.3-7.7-4.9
	c0.5,0.2,0.9,0.4,1.4,0.6c2.3,1.1,4.6,2.4,6.9,3.6C162.49,300.47,162.29,300.67,162.09,300.97z M415.89,401.57
	c-8.1,5.5-15.4,12.2-18.3,21.8c-0.5,1.8-0.9,3.5-1.2,5.3c-18.9-8.6-38.5-16-57.5-24.5c-20.6-9.3-40.8-19.8-60-31.8
	c-19.6-12.3-40.5-22.3-60-34.7c-8.3-5.3-16-11.6-23.8-17.7c22.9,13.2,47.3,23,72.1,32.5c27.6,10.6,54.9,22.4,83.5,30
	c12.7,3.4,25.8,5.7,38.8,8.1c12.4,2.3,25.4,4.3,38,2.5c0.7-0.2,1.2-0.3,1.7-0.4C424.99,396.07,419.99,398.67,415.89,401.57z"/>
<g>
	<g>
		<g>
			<path id="Shape_8_" class="st2" d="M210.7,162.74c-9.76-22.83-26.36-42.06-47.51-55.07c-0.61-0.38-1.31-0.58-2.03-0.58
				c-1.38,0.07-2.55,1.01-2.93,2.33c-0.38,1.32,0.13,2.74,1.26,3.53c33.8,21.31,53.11,55.1,53.11,92.28v10.78
				c-0.07,1.69,1.08,3.18,2.74,3.54c0.93,0.14,1.88-0.13,2.6-0.75c0.71-0.62,1.12-1.52,1.11-2.47v-11.1
				c0-22.05,8.43-43.81,25.04-64.69c0.59-0.75,0.82-1.72,0.63-2.65s-0.79-1.73-1.62-2.18c-1.47-0.79-3.3-0.33-4.22,1.06
				c-6.49,8.09-12.03,16.9-16.51,26.26c-1.12,2.23-3.42,3.62-5.92,3.56S211.71,165.03,210.7,162.74L210.7,162.74z"/>
			<path class="st2" d="M215.82,58.62c-51.55,0-93.34,41.79-93.34,93.34s41.79,93.34,93.34,93.34s93.34-41.79,93.34-93.34
				S267.37,58.62,215.82,58.62z M267.61,137.7c-1.13,1.38-3.16,1.58-4.54,0.45s-1.58-3.16-0.45-4.54
				c7.76-9.66,4.09-24.01,2.25-29.51c-8.79,1.22-26.07,4.8-31.22,11.1c-5.1,6.07-6.22,14.53-2.9,21.73c1.03-1.38,2.03-2.8,3.22-4.15
				c2.02-2.96,5.51-4.56,9.06-4.15c3.56,0.4,6.6,2.74,7.91,6.07s0.66,7.12-1.68,9.83c-15.77,19.73-23.79,40.17-23.79,60.7v11.1
				c0.04,2.86-1.19,5.59-3.36,7.45s-5.05,2.67-7.87,2.2c-4.77-0.9-8.19-5.12-8.08-9.98v-10.78c0-35.08-18.28-66.72-50.15-86.9
				c-2.39-1.51-4.01-3.99-4.41-6.79c-0.54-3.78,1.2-7.53,4.44-9.55s7.37-1.95,10.53,0.19c22.25,13.69,39.72,33.93,50.02,57.94
				c2.92-6.08,6.27-11.94,10.04-17.54c-6.38-9.76-5.54-22.57,2.06-31.41c8.3-10.27,34.99-13.45,37.98-13.9
				c1.38-0.11,2.67,0.66,3.22,1.93C270.54,100.27,279.74,122.8,267.61,137.7L267.61,137.7z"/>
		</g>
	</g>
</g>
<g class="st3">
	<path class="st4" d="M54.41,328.08c-1.29,0-2.23-0.29-2.82-0.88c-0.59-0.59-0.89-1.53-0.89-2.82v-9.41c0-0.7,0.09-1.29,0.28-1.77
		c0.19-0.48,0.47-0.89,0.85-1.21l8.05-6.76c-2.84-0.86-5.08-2.32-6.72-4.39c-1.64-2.06-2.45-5.03-2.45-8.89v-8.45
		c0-2.41,0.4-4.56,1.21-6.44c0.8-1.88,1.96-3.46,3.46-4.75l10.46-8.77c1.45-1.18,3.24-2.1,5.39-2.78c2.14-0.67,4.59-1,7.32-1h22.53
		c1.29,0,2.23,0.29,2.82,0.88c0.59,0.59,0.88,1.53,0.88,2.82v9.58c0,0.7-0.09,1.29-0.28,1.77c-0.19,0.48-0.47,0.88-0.85,1.21
		l-7.24,6.03c3.38,0.75,6.1,2.16,8.17,4.22c2.06,2.07,3.1,5.27,3.1,9.62v8.45c0,2.41-0.4,4.56-1.21,6.44
		c-0.8,1.88-1.99,3.46-3.54,4.75l-10.38,8.69c-1.5,1.23-3.33,2.19-5.47,2.86c-2.15,0.67-4.56,1.01-7.24,1.01H54.41z M90.22,318.5
		c5.15,0,9.21-1.22,12.19-3.66c2.98-2.44,4.47-5.94,4.47-10.5v-8.45c0-4.51-1.15-7.73-3.46-9.66c-2.31-1.93-5.34-3.17-9.09-3.7
		l-11.99-1.61c-0.7-0.05-1.23-0.32-1.61-0.8c-0.38-0.48-0.56-1.07-0.56-1.77c0-0.7,0.19-1.27,0.56-1.73
		c0.38-0.46,0.91-0.68,1.61-0.68h18.75c1.02,0,1.76-0.23,2.21-0.68c0.46-0.46,0.68-1.19,0.68-2.21v-9.58c0-1.02-0.23-1.76-0.68-2.21
		c-0.46-0.46-1.19-0.68-2.21-0.68H78.55c-5.2,0-9.28,1.22-12.23,3.66c-2.95,2.44-4.43,5.94-4.43,10.5v8.45
		c0,4.51,1.14,7.72,3.42,9.66c2.28,1.93,5.3,3.17,9.05,3.7l12.07,1.69c0.7,0.05,1.22,0.3,1.57,0.72c0.35,0.43,0.52,1.1,0.52,2.01
		c0,0.64-0.17,1.19-0.52,1.65c-0.35,0.46-0.87,0.68-1.57,0.68H64.79c-1.02,0-1.76,0.23-2.21,0.68c-0.46,0.46-0.68,1.19-0.68,2.21
		v9.42c0,1.02,0.23,1.76,0.68,2.21c0.46,0.46,1.19,0.68,2.21,0.68H90.22z M96.73,267.81v0.8H78.87c-2.25,0-4.05,0.62-5.39,1.85
		c-1.34,1.24-2.01,2.79-2.01,4.67v6.6c0,1.88,0.37,3.19,1.13,3.94c0.75,0.75,1.74,1.23,2.98,1.45l16.98,3.46
		c1.61,0.32,2.94,1.02,3.98,2.09c1.05,1.07,1.57,3,1.57,5.79v4.67c0,2.36-0.8,4.3-2.41,5.83s-3.78,2.29-6.52,2.29H69.13v-0.8h20.04
		c2.47,0,4.44-0.68,5.91-2.05c1.47-1.37,2.21-3.12,2.21-5.27v-4.67c0-2.52-0.44-4.25-1.33-5.19c-0.89-0.94-2.08-1.57-3.58-1.89
		l-16.98-3.46c-1.4-0.27-2.53-0.82-3.42-1.65c-0.89-0.83-1.33-2.35-1.33-4.55v-6.6c0-2.14,0.75-3.9,2.25-5.27
		c1.5-1.37,3.49-2.05,5.95-2.05H96.73z"/>
	<path class="st4" d="M139.86,328.08h-13.04c-1.29,0-2.23-0.29-2.82-0.88c-0.59-0.59-0.89-1.53-0.89-2.82v-38.7H112.1
		c-1.29,0-2.23-0.29-2.82-0.88c-0.59-0.59-0.89-1.53-0.89-2.82v-9.74c0-0.7,0.09-1.29,0.28-1.77c0.19-0.48,0.47-0.88,0.84-1.21
		l10.38-8.77c0.27-0.21,0.63-0.39,1.09-0.52c0.46-0.13,0.95-0.2,1.49-0.2h42.49c1.29,0,2.23,0.29,2.82,0.88
		c0.59,0.59,0.88,1.53,0.88,2.82v9.74c0,0.7-0.09,1.29-0.28,1.77c-0.19,0.48-0.47,0.89-0.84,1.21l-10.46,8.69
		c-0.21,0.21-0.55,0.4-1.01,0.56c-0.46,0.16-0.95,0.24-1.49,0.24h-0.64v29.93c0,0.7-0.09,1.29-0.28,1.77
		c-0.19,0.48-0.47,0.89-0.84,1.21l-10.46,8.69c-0.21,0.21-0.55,0.4-1.01,0.56C140.9,328,140.4,328.08,139.86,328.08z M150.24,318.5
		c1.02,0,1.76-0.23,2.21-0.68c0.46-0.46,0.68-1.19,0.68-2.21v-39.51h11.83c1.02,0,1.76-0.23,2.21-0.68
		c0.46-0.46,0.68-1.19,0.68-2.21v-9.74c0-1.02-0.23-1.76-0.68-2.21c-0.46-0.46-1.19-0.68-2.21-0.68h-42.49
		c-1.02,0-1.76,0.23-2.21,0.68c-0.46,0.46-0.68,1.19-0.68,2.21v9.74c0,1.02,0.23,1.76,0.68,2.21c0.46,0.46,1.19,0.68,2.21,0.68
		h11.83v39.51c0,1.02,0.23,1.76,0.68,2.21c0.46,0.46,1.19,0.68,2.21,0.68H150.24z M143.32,311.26v-42.65h-16.5v-0.8h33.8v0.8h-16.5
		v42.65H143.32z"/>
	<path class="st4" d="M213.57,328.08h-37.34c-1.29,0-2.23-0.29-2.82-0.88c-0.59-0.59-0.88-1.53-0.88-2.82v-52.14
		c0-0.7,0.09-1.29,0.28-1.77c0.19-0.48,0.47-0.88,0.85-1.21l10.38-8.77c0.27-0.21,0.63-0.39,1.09-0.52c0.46-0.13,0.95-0.2,1.49-0.2
		h37.34c1.29,0,2.22,0.29,2.82,0.88c0.59,0.59,0.89,1.53,0.89,2.82v9.41c0,0.7-0.09,1.29-0.28,1.77c-0.19,0.48-0.47,0.88-0.84,1.21
		l-6.92,5.71c0.54,0.27,0.93,0.67,1.17,1.21c0.24,0.54,0.36,1.23,0.36,2.09v8.61c0,0.7-0.09,1.29-0.28,1.77
		c-0.19,0.48-0.47,0.89-0.84,1.21l-7.16,6.04h11.1c1.29,0,2.22,0.3,2.82,0.88c0.59,0.59,0.89,1.53,0.89,2.82v9.42
		c0,0.7-0.09,1.29-0.28,1.77c-0.19,0.48-0.47,0.89-0.84,1.21l-10.46,8.69c-0.22,0.21-0.55,0.4-1.01,0.56
		C214.6,328,214.11,328.08,213.57,328.08z M223.95,318.5c1.02,0,1.76-0.23,2.21-0.68c0.46-0.46,0.68-1.19,0.68-2.21v-9.42
		c0-1.02-0.23-1.76-0.68-2.21c-0.46-0.46-1.19-0.68-2.21-0.68h-22.21v-6.92h15.69c1.02,0,1.76-0.23,2.21-0.68
		c0.46-0.46,0.68-1.19,0.68-2.21v-8.61c0-1.02-0.23-1.76-0.68-2.21c-0.46-0.46-1.19-0.68-2.21-0.68h-15.69v-6.2h22.21
		c1.02,0,1.76-0.23,2.21-0.68c0.46-0.46,0.68-1.19,0.68-2.21v-9.41c0-1.02-0.23-1.76-0.68-2.21c-0.46-0.46-1.19-0.68-2.21-0.68
		h-37.34c-1.02,0-1.76,0.23-2.21,0.68c-0.46,0.46-0.68,1.19-0.68,2.21v52.14c0,1.02,0.23,1.76,0.68,2.21
		c0.46,0.46,1.19,0.68,2.21,0.68H223.95z M219.61,310.45v0.8h-27.12v-43.45h27.12v0.8h-26.31v20.2h19.79v0.8h-19.79v20.84H219.61z"
		/>
	<path class="st4" d="M261.85,318.58l-10.46,8.69c-0.21,0.21-0.55,0.4-1.01,0.56c-0.46,0.16-0.95,0.24-1.49,0.24h-11.99
		c-1.29,0-2.23-0.29-2.82-0.88c-0.59-0.59-0.88-1.53-0.88-2.82v-52.14c0-0.7,0.09-1.29,0.28-1.77c0.19-0.48,0.47-0.88,0.85-1.21
		l10.38-8.77c0.27-0.21,0.63-0.39,1.09-0.52c0.46-0.13,0.95-0.2,1.49-0.2h12.96c1.02,0,1.86,0.21,2.54,0.64
		c0.67,0.43,1.3,1.15,1.89,2.17l5.47,10.06l0.72-1.29c0.21-0.38,0.44-0.74,0.68-1.09c0.24-0.35,0.5-0.63,0.77-0.84l10.38-8.69
		c0.43-0.32,0.87-0.56,1.33-0.72c0.46-0.16,1.01-0.24,1.65-0.24h13.04c1.29,0,2.22,0.29,2.82,0.88c0.59,0.59,0.88,1.53,0.88,2.82
		v52.14c0,0.7-0.1,1.29-0.28,1.77c-0.19,0.48-0.47,0.89-0.85,1.21l-10.46,8.69c-0.21,0.21-0.55,0.4-1.01,0.56
		c-0.46,0.16-0.95,0.24-1.49,0.24h-12.39c-1.34,0-2.29-0.29-2.86-0.88c-0.56-0.59-0.85-1.53-0.85-2.82v-21.24l-4.75,3.94
		c-0.43,0.38-0.93,0.66-1.49,0.84c-0.56,0.19-1.22,0.28-1.97,0.28h-1.05v7.4c0,0.7-0.09,1.29-0.28,1.77
		C262.51,317.86,262.22,318.26,261.85,318.58z M259.28,318.5c1.02,0,1.76-0.23,2.21-0.68c0.46-0.46,0.68-1.19,0.68-2.21v-28.32
		l4.75,8.77c0.48,0.91,1.06,1.57,1.73,1.97c0.67,0.4,1.52,0.6,2.54,0.6h3.22c1.02,0,1.86-0.2,2.53-0.6c0.67-0.4,1.25-1.06,1.73-1.97
		l4.75-8.77v28.32c0,1.02,0.23,1.76,0.68,2.21c0.46,0.46,1.19,0.68,2.21,0.68h12.39c1.02,0,1.76-0.23,2.21-0.68
		c0.46-0.46,0.68-1.19,0.68-2.21v-52.14c0-1.02-0.23-1.76-0.68-2.21c-0.46-0.46-1.2-0.68-2.21-0.68h-13.04
		c-0.86,0-1.57,0.19-2.13,0.56c-0.56,0.38-1.09,0.99-1.57,1.85l-7.16,13.12c-0.27,0.48-0.5,0.83-0.69,1.05
		c-0.19,0.21-0.44,0.32-0.76,0.32h-0.72c-0.32,0-0.58-0.11-0.76-0.32c-0.19-0.21-0.42-0.56-0.68-1.05l-7.24-13.12
		c-0.48-0.86-1.01-1.47-1.57-1.85c-0.56-0.37-1.28-0.56-2.13-0.56h-12.96c-1.02,0-1.76,0.23-2.21,0.68
		c-0.46,0.46-0.68,1.19-0.68,2.21v52.14c0,1.02,0.23,1.76,0.68,2.21c0.46,0.46,1.19,0.68,2.21,0.68H259.28z M272.71,287.52
		c0.96,0,1.66-0.21,2.09-0.64c0.43-0.43,1.1-1.34,2.01-2.74l9.82-14.97c0.32-0.54,0.68-0.9,1.09-1.09c0.4-0.19,0.82-0.28,1.25-0.28
		h1.37c0.75,0,1.3,0.2,1.65,0.6c0.35,0.4,0.52,1.03,0.52,1.89v40.96h-0.8V270.3c0-0.43-0.09-0.82-0.28-1.17
		c-0.19-0.35-0.55-0.52-1.09-0.52h-1.21c-0.38,0-0.7,0.05-0.96,0.16c-0.27,0.11-0.56,0.43-0.89,0.97l-9.82,14.81
		c-0.96,1.45-1.7,2.44-2.21,2.98c-0.51,0.54-1.36,0.8-2.53,0.8c-1.18,0-2.03-0.27-2.54-0.8c-0.51-0.54-1.25-1.53-2.21-2.98
		l-9.82-14.81c-0.32-0.54-0.63-0.86-0.93-0.97c-0.29-0.11-0.63-0.16-1-0.16h-1.21c-0.54,0-0.89,0.17-1.05,0.52
		c-0.16,0.35-0.24,0.74-0.24,1.17v40.96h-0.8V270.3c0-0.86,0.17-1.49,0.52-1.89c0.35-0.4,0.87-0.6,1.57-0.6h1.37
		c0.43,0,0.86,0.09,1.29,0.28c0.43,0.19,0.8,0.55,1.13,1.09l9.82,14.97c0.91,1.4,1.58,2.31,2.01,2.74
		C271.05,287.31,271.75,287.52,272.71,287.52z"/>
	<path class="st4" d="M338.21,318.58l-10.46,8.69c-0.21,0.21-0.55,0.4-1,0.56c-0.46,0.16-0.95,0.24-1.49,0.24h-11.99
		c-1.29,0-2.23-0.29-2.82-0.88c-0.59-0.59-0.88-1.53-0.88-2.82v-52.14c0-0.7,0.09-1.29,0.28-1.77c0.19-0.48,0.47-0.88,0.84-1.21
		l10.38-8.77c0.27-0.21,0.63-0.39,1.09-0.52c0.46-0.13,0.95-0.2,1.49-0.2h12.96c1.02,0,1.86,0.21,2.54,0.64
		c0.67,0.43,1.3,1.15,1.89,2.17l5.47,10.06l0.72-1.29c0.21-0.38,0.44-0.74,0.68-1.09c0.24-0.35,0.5-0.63,0.76-0.84l10.38-8.69
		c0.43-0.32,0.87-0.56,1.33-0.72c0.46-0.16,1.01-0.24,1.65-0.24h13.04c1.29,0,2.22,0.29,2.82,0.88c0.59,0.59,0.88,1.53,0.88,2.82
		v52.14c0,0.7-0.09,1.29-0.28,1.77c-0.19,0.48-0.47,0.89-0.85,1.21l-10.46,8.69c-0.21,0.21-0.55,0.4-1.01,0.56
		c-0.46,0.16-0.95,0.24-1.49,0.24h-12.39c-1.34,0-2.29-0.29-2.86-0.88c-0.56-0.59-0.84-1.53-0.84-2.82v-21.24l-4.75,3.94
		c-0.43,0.38-0.93,0.66-1.49,0.84c-0.56,0.19-1.22,0.28-1.97,0.28h-1.05v7.4c0,0.7-0.09,1.29-0.28,1.77
		C338.87,317.86,338.59,318.26,338.21,318.58z M335.64,318.5c1.02,0,1.76-0.23,2.21-0.68c0.46-0.46,0.68-1.19,0.68-2.21v-28.32
		l4.75,8.77c0.48,0.91,1.06,1.57,1.73,1.97c0.67,0.4,1.51,0.6,2.53,0.6h3.22c1.02,0,1.86-0.2,2.53-0.6s1.25-1.06,1.73-1.97
		l4.75-8.77v28.32c0,1.02,0.23,1.76,0.68,2.21c0.46,0.46,1.19,0.68,2.21,0.68h12.39c1.02,0,1.76-0.23,2.21-0.68
		c0.46-0.46,0.68-1.19,0.68-2.21v-52.14c0-1.02-0.23-1.76-0.68-2.21c-0.46-0.46-1.2-0.68-2.21-0.68h-13.04
		c-0.86,0-1.57,0.19-2.13,0.56c-0.56,0.38-1.09,0.99-1.57,1.85l-7.16,13.12c-0.27,0.48-0.5,0.83-0.68,1.05
		c-0.19,0.21-0.44,0.32-0.76,0.32h-0.72c-0.32,0-0.58-0.11-0.76-0.32c-0.19-0.21-0.42-0.56-0.68-1.05l-7.24-13.12
		c-0.48-0.86-1.01-1.47-1.57-1.85c-0.56-0.37-1.28-0.56-2.13-0.56h-12.96c-1.02,0-1.76,0.23-2.21,0.68
		c-0.46,0.46-0.68,1.19-0.68,2.21v52.14c0,1.02,0.23,1.76,0.68,2.21c0.46,0.46,1.19,0.68,2.21,0.68H335.64z M349.07,287.52
		c0.96,0,1.66-0.21,2.09-0.64c0.43-0.43,1.1-1.34,2.01-2.74l9.82-14.97c0.32-0.54,0.68-0.9,1.09-1.09c0.4-0.19,0.82-0.28,1.25-0.28
		h1.37c0.75,0,1.3,0.2,1.65,0.6c0.35,0.4,0.52,1.03,0.52,1.89v40.96h-0.8V270.3c0-0.43-0.09-0.82-0.28-1.17
		c-0.19-0.35-0.55-0.52-1.09-0.52h-1.21c-0.38,0-0.7,0.05-0.96,0.16c-0.27,0.11-0.56,0.43-0.89,0.97l-9.82,14.81
		c-0.97,1.45-1.7,2.44-2.21,2.98c-0.51,0.54-1.36,0.8-2.53,0.8c-1.18,0-2.03-0.27-2.54-0.8c-0.51-0.54-1.25-1.53-2.21-2.98
		l-9.82-14.81c-0.32-0.54-0.63-0.86-0.93-0.97c-0.29-0.11-0.63-0.16-1.01-0.16h-1.21c-0.54,0-0.88,0.17-1.05,0.52
		c-0.16,0.35-0.24,0.74-0.24,1.17v40.96h-0.8V270.3c0-0.86,0.17-1.49,0.52-1.89c0.35-0.4,0.87-0.6,1.57-0.6h1.37
		c0.43,0,0.86,0.09,1.29,0.28c0.43,0.19,0.8,0.55,1.13,1.09l9.82,14.97c0.91,1.4,1.58,2.31,2.01,2.74
		C347.41,287.31,348.11,287.52,349.07,287.52z"/>
</g>
</svg>
