<?xml version="1.0" encoding="utf-8"?>
<!-- Generator: Adobe Illustrator 23.0.6, SVG Export Plug-In . SVG Version: 6.00 Build 0)  -->
<svg version="1.1" id="Layer_1" xmlns="http://www.w3.org/2000/svg" xmlns:xlink="http://www.w3.org/1999/xlink" x="0px" y="0px"
	 viewBox="0 0 432 432" style="enable-background:new 0 0 432 432;" xml:space="preserve">
<style type="text/css">
	.st0{fill:#F8F1DB;}
	.st1{enable-background:new    ;}
	.st2{fill:#22665B;}
	.st3{fill:#A63433;}
	.st4{fill:#277164;}
	.st5{fill:#288D7A;}
</style>
<rect class="st0" width="432" height="432"/>
<g class="st1">
	<path class="st2" d="M102.7,103.95l-10.06-0.62v21.36c0,2.79,0.44,4.8,1.32,6.04c0.88,1.24,2.53,1.86,4.95,1.86
		c2.42,0,4.28,0.08,5.57,0.23c1.29,0.16,2.66,0.65,4.1,1.47c2.37,1.34,3.56,4.8,3.56,10.37c0,6.5-1.45,10.47-4.33,11.92
		c-1.55,0.72-2.92,1.16-4.1,1.32c-1.19,0.16-2.92,0.23-5.19,0.23c-10.73,0-18.88-2.42-24.46-7.27c-5.57-4.85-8.36-13.05-8.36-24.61
		v-22.91c-1.96,0.31-4.08,0.46-6.35,0.46c-2.27,0-4.15-0.88-5.65-2.63c-1.5-1.75-2.24-4.75-2.24-8.98c0-4.23,0.26-7.3,0.77-9.21
		c0.52-1.91,1.24-3.27,2.17-4.1c1.65-1.34,3.71-2.01,6.19-2.01l5.11,0.62V61.54c0-2.37,0.08-4.13,0.23-5.26
		c0.15-1.13,0.64-2.37,1.47-3.71c1.34-2.58,5.31-3.87,11.92-3.87c7.02,0,11.2,1.91,12.54,5.73c0.52,1.65,0.77,4.28,0.77,7.89v15.17
		c4.54-0.41,7.97-0.62,10.29-0.62s4.08,0.08,5.26,0.23c1.19,0.16,2.55,0.65,4.1,1.47c2.68,1.34,4.02,5.32,4.02,11.92
		c0,6.5-1.39,10.47-4.18,11.92c-1.55,0.72-2.92,1.16-4.1,1.32C106.85,103.87,105.07,103.95,102.7,103.95z"/>
	<path class="st2" d="M159.27,61.46c-0.77,1.5-2.14,2.55-4.1,3.17c-1.96,0.62-4.57,0.93-7.82,0.93s-5.86-0.31-7.82-0.93
		c-1.96-0.62-3.33-1.7-4.1-3.25s-1.24-2.92-1.39-4.1c-0.15-1.18-0.23-2.96-0.23-5.34c0-2.37,0.08-4.15,0.23-5.34
		c0.15-1.19,0.59-2.5,1.32-3.95c1.44-2.79,5.47-4.18,12.07-4.18c6.5,0,10.42,1.39,11.76,4.18c0.82,1.55,1.32,2.92,1.47,4.1
		c0.15,1.19,0.23,2.97,0.23,5.34c0,2.38-0.08,4.15-0.23,5.34C160.51,58.62,160.05,59.96,159.27,61.46z M133.81,90.17
		c0-2.37,0.08-4.15,0.23-5.34c0.15-1.18,0.59-2.55,1.32-4.1c1.44-2.68,5.47-4.02,12.07-4.02c4.95,0,8.46,0.88,10.53,2.63
		c1.75,1.45,2.68,3.66,2.79,6.66c0.1,1.03,0.15,2.53,0.15,4.49v54.17c0,2.37-0.08,4.15-0.23,5.34c-0.15,1.19-0.65,2.55-1.47,4.1
		c-1.34,2.68-5.32,4.02-11.92,4.02c-6.5,0-10.47-1.39-11.92-4.18c-0.72-1.55-1.16-2.89-1.32-4.02c-0.15-1.13-0.23-2.94-0.23-5.42
		V90.17z"/>
	<path class="st2" d="M207.79,117.33c0,4.39,1.44,7.79,4.33,10.22c2.89,2.43,5.96,3.64,9.21,3.64c3.25,0,6.29-0.95,9.13-2.86
		c2.84-1.91,5.13-2.86,6.89-2.86c3.1,0,6.86,2.74,11.3,8.2c2.37,2.99,3.56,5.68,3.56,8.05c0,3.92-2.84,7.58-8.51,10.99
		c-5.88,4.13-13.11,6.19-21.67,6.19c-9.6,0-18.83-3.46-27.71-10.37c-4.23-3.3-7.69-7.71-10.37-13.23
		c-2.68-5.52-4.02-11.61-4.02-18.26c0-6.66,1.34-12.69,4.02-18.11c2.68-5.42,6.14-9.78,10.37-13.08c8.56-6.81,17.7-10.22,27.4-10.22
		c3.92,0,7.74,0.54,11.45,1.63c3.71,1.08,6.45,2.14,8.2,3.17l2.48,1.55c1.86,1.24,3.3,2.22,4.33,2.94c2.68,2.07,4.02,4.41,4.02,7.04
		c0,2.63-1.08,5.6-3.25,8.9c-3.71,5.68-7.27,8.51-10.68,8.51c-1.96,0-4.75-1.13-8.36-3.41c-1.86-1.75-4.52-2.63-7.97-2.63
		c-3.46,0-6.68,1.24-9.67,3.71C209.29,109.52,207.79,112.95,207.79,117.33z"/>
</g>
<g class="st1">
	<path class="st3" d="M293.85,86.61c15.07,0,22.6,7.53,22.6,22.6c0,15.07-7.53,22.6-22.6,22.6c-15.07,0-22.6-7.53-22.6-22.6
		C271.25,94.14,278.78,86.61,293.85,86.61z"/>
</g>
<g class="st1">
	<path class="st4" d="M102.7,219.86l-10.06-0.62v21.36c0,2.79,0.44,4.8,1.32,6.04c0.88,1.24,2.53,1.86,4.95,1.86
		c2.42,0,4.28,0.08,5.57,0.23c1.29,0.16,2.66,0.65,4.1,1.47c2.37,1.34,3.56,4.8,3.56,10.37c0,6.5-1.45,10.47-4.33,11.92
		c-1.55,0.72-2.92,1.16-4.1,1.32c-1.19,0.16-2.92,0.23-5.19,0.23c-10.73,0-18.88-2.42-24.46-7.27c-5.57-4.85-8.36-13.05-8.36-24.61
		v-22.91c-1.96,0.31-4.08,0.46-6.35,0.46c-2.27,0-4.15-0.88-5.65-2.63c-1.5-1.75-2.24-4.75-2.24-8.98c0-4.23,0.26-7.3,0.77-9.21
		c0.52-1.91,1.24-3.27,2.17-4.1c1.65-1.34,3.71-2.01,6.19-2.01l5.11,0.62v-15.94c0-2.37,0.08-4.13,0.23-5.26
		c0.15-1.13,0.64-2.37,1.47-3.71c1.34-2.58,5.31-3.87,11.92-3.87c7.02,0,11.2,1.91,12.54,5.73c0.52,1.65,0.77,4.28,0.77,7.89v15.17
		c4.54-0.41,7.97-0.62,10.29-0.62s4.08,0.08,5.26,0.23c1.19,0.16,2.55,0.65,4.1,1.47c2.68,1.34,4.02,5.32,4.02,11.92
		c0,6.5-1.39,10.47-4.18,11.92c-1.55,0.72-2.92,1.16-4.1,1.32C106.85,219.78,105.07,219.86,102.7,219.86z"/>
	<path class="st4" d="M186.75,201.13c0.62-5.78,4.69-8.67,12.23-8.67c4.02,0,7.02,0.31,8.98,0.93c1.96,0.62,3.33,1.7,4.1,3.25
		s1.24,2.92,1.39,4.1c0.15,1.19,0.23,2.97,0.23,5.34v54.17c0,2.37-0.08,4.15-0.23,5.34c-0.15,1.19-0.59,2.55-1.32,4.1
		c-1.45,2.68-4.98,4.02-10.6,4.02c-5.63,0-9.39-0.7-11.3-2.09c-1.91-1.39-3.02-3.43-3.33-6.11c-3.82,5.47-10.19,8.2-19.12,8.2
		c-8.93,0-17.21-4.08-24.84-12.23c-7.64-8.15-11.45-17.62-11.45-28.4c0-10.78,3.84-20.22,11.53-28.33
		c7.69-8.1,16.12-12.15,25.31-12.15c3.51,0,6.71,0.62,9.6,1.86c2.89,1.24,4.9,2.4,6.04,3.48
		C185.09,199.04,186.02,200.1,186.75,201.13z M158.58,233.32c0,3.41,1.34,6.48,4.02,9.21c2.68,2.74,5.93,4.1,9.75,4.1
		c3.82,0,6.99-1.39,9.52-4.18c2.53-2.79,3.79-5.86,3.79-9.21c0-3.35-1.21-6.47-3.64-9.36c-2.43-2.89-5.68-4.33-9.75-4.33
		c-4.08,0-7.38,1.45-9.91,4.33C159.84,226.77,158.58,229.92,158.58,233.32z"/>
	<path class="st4" d="M260.58,233.24c0,4.39,1.44,7.79,4.33,10.22c2.89,2.43,5.96,3.64,9.21,3.64c3.25,0,6.29-0.95,9.13-2.86
		c2.84-1.91,5.13-2.86,6.89-2.86c3.1,0,6.86,2.74,11.3,8.2c2.37,2.99,3.56,5.68,3.56,8.05c0,3.92-2.84,7.58-8.51,10.99
		c-5.88,4.13-13.11,6.19-21.67,6.19c-9.6,0-18.83-3.46-27.71-10.37c-4.23-3.3-7.69-7.71-10.37-13.23
		c-2.68-5.52-4.02-11.61-4.02-18.26c0-6.66,1.34-12.69,4.02-18.11c2.68-5.42,6.14-9.78,10.37-13.08c8.56-6.81,17.7-10.22,27.4-10.22
		c3.92,0,7.74,0.54,11.46,1.63c3.71,1.08,6.45,2.14,8.2,3.17l2.48,1.55c1.86,1.24,3.3,2.22,4.33,2.94c2.68,2.07,4.03,4.41,4.03,7.04
		c0,2.63-1.08,5.6-3.25,8.9c-3.71,5.68-7.27,8.51-10.68,8.51c-1.96,0-4.75-1.13-8.36-3.41c-1.86-1.75-4.52-2.63-7.97-2.63
		s-6.68,1.24-9.67,3.71C262.07,225.43,260.58,228.86,260.58,233.24z"/>
</g>
<g class="st1">
	<path class="st3" d="M346.64,202.52c15.07,0,22.6,7.53,22.6,22.6c0,15.07-7.53,22.6-22.6,22.6c-15.07,0-22.6-7.53-22.6-22.6
		C324.04,210.05,331.57,202.52,346.64,202.52z"/>
</g>
<g class="st1">
	<path class="st5" d="M102.7,335.76l-10.06-0.62v21.36c0,2.79,0.44,4.8,1.32,6.04c0.88,1.24,2.53,1.86,4.95,1.86
		c2.42,0,4.28,0.08,5.57,0.23c1.29,0.16,2.66,0.65,4.1,1.47c2.37,1.34,3.56,4.8,3.56,10.37c0,6.5-1.45,10.47-4.33,11.92
		c-1.55,0.72-2.92,1.16-4.1,1.32c-1.19,0.16-2.92,0.23-5.19,0.23c-10.73,0-18.88-2.42-24.46-7.27c-5.57-4.85-8.36-13.05-8.36-24.61
		v-22.91c-1.96,0.31-4.08,0.46-6.35,0.46c-2.27,0-4.15-0.88-5.65-2.63c-1.5-1.75-2.24-4.75-2.24-8.98c0-4.23,0.26-7.3,0.77-9.21
		c0.52-1.91,1.24-3.27,2.17-4.1c1.65-1.34,3.71-2.01,6.19-2.01l5.11,0.62v-15.94c0-2.37,0.08-4.13,0.23-5.26
		c0.15-1.13,0.64-2.37,1.47-3.71c1.34-2.58,5.31-3.87,11.92-3.87c7.02,0,11.2,1.91,12.54,5.73c0.52,1.65,0.77,4.28,0.77,7.89v15.17
		c4.54-0.41,7.97-0.62,10.29-0.62s4.08,0.08,5.26,0.23c1.19,0.16,2.55,0.65,4.1,1.47c2.68,1.34,4.02,5.32,4.02,11.92
		c0,6.5-1.39,10.47-4.18,11.92c-1.55,0.72-2.92,1.16-4.1,1.32C106.85,335.69,105.07,335.76,102.7,335.76z"/>
	<path class="st5" d="M144.49,318.58c8.67-8.05,18.57-12.07,29.72-12.07s21,4,29.56,12c8.56,8,12.85,18.19,12.85,30.57
		c0,8.57-2.22,16.17-6.66,22.83c-4.44,6.66-9.83,11.56-16.18,14.7c-6.35,3.15-12.92,4.72-19.73,4.72s-13.42-1.68-19.81-5.03
		c-6.4-3.35-11.79-8.3-16.18-14.86c-4.39-6.55-6.58-13.96-6.58-22.21C131.49,336.85,135.82,326.63,144.49,318.58z M163.84,360.3
		c3.3,2.53,6.66,3.79,10.06,3.79s6.81-1.29,10.22-3.87c3.41-2.58,5.11-6.4,5.11-11.45c0-5.05-1.6-8.82-4.8-11.3
		c-3.2-2.48-6.66-3.71-10.37-3.71s-7.17,1.29-10.37,3.87c-3.2,2.58-4.8,6.37-4.8,11.38C158.88,354,160.53,357.77,163.84,360.3z"/>
	<path class="st5" d="M314.29,339.4c0,6.35-1.57,11.04-4.72,14.08c-3.15,3.04-6.63,4.57-10.45,4.57h-36.68
		c0,2.89,1.7,5.32,5.11,7.28c3.41,1.96,6.81,2.94,10.22,2.94c5.98,0,10.68-0.62,14.08-1.86l1.7-0.62c2.48-1.13,4.54-1.7,6.19-1.7
		c3.3,0,6.14,2.32,8.51,6.96c1.34,2.79,2.01,5.16,2.01,7.12c0,9.19-10.99,13.78-32.97,13.78c-7.64,0-14.42-1.32-20.35-3.95
		c-5.93-2.63-10.55-6.11-13.85-10.45c-6.5-8.36-9.75-17.7-9.75-28.02c0-13,4.2-23.4,12.62-31.19c8.41-7.79,18.91-11.69,31.5-11.69
		c14.34,0,24.87,5.06,31.58,15.17C312.53,327.2,314.29,333.06,314.29,339.4z M281.63,343.97c3.92,0,5.88-1.65,5.88-4.95
		c0-2.37-0.9-4.28-2.71-5.73c-1.81-1.44-4.39-2.17-7.74-2.17c-3.35,0-6.68,1.37-9.98,4.1c-3.3,2.74-4.95,5.65-4.95,8.75H281.63z"/>
	<path class="st5" d="M334.87,366.33c1.03-2.01,2.6-3.38,4.72-4.1c2.11-0.72,5.42-1.08,9.91-1.08c4.49,0,7.74,0.98,9.75,2.94
		c2.01,1.96,3.02,5.06,3.02,9.29v2.48c0,2.48-0.08,4.31-0.23,5.49c-0.16,1.19-0.65,2.61-1.47,4.26c-1.65,2.99-5.6,4.49-11.84,4.49
		c-6.25,0-10.37-1.01-12.38-3.02c-2.01-2.01-3.02-5.91-3.02-11.69C333.33,371.37,333.84,368.35,334.87,366.33z M355.61,348.3
		c-1.96,0.52-4.59,0.77-7.89,0.77c-3.3,0-5.93-0.26-7.89-0.77c-1.96-0.52-3.33-1.44-4.1-2.79c-0.77-1.34-1.24-2.53-1.39-3.56
		c-0.15-1.03-0.23-2.63-0.23-4.8v-49.07c0-2.17,0.08-3.79,0.23-4.88c0.16-1.08,0.64-2.29,1.47-3.64c0.83-1.34,2.22-2.3,4.18-2.86
		c1.96-0.57,4.59-0.85,7.89-0.85c3.3,0,5.93,0.29,7.89,0.85c1.96,0.57,3.33,1.55,4.1,2.94c0.77,1.39,1.24,2.63,1.39,3.71
		c0.16,1.08,0.23,2.71,0.23,4.88v49.07c0,2.17-0.08,3.77-0.23,4.8c-0.15,1.03-0.65,2.19-1.47,3.48
		C358.97,346.88,357.57,347.79,355.61,348.3z"/>
</g>
</svg>
